<svg xmlns="http://www.w3.org/2000/svg" width="50" height="50" fill="none" viewBox="0 0 50 50">
  <g clip-path="url(#a)">
    <path fill="#FCFCFC" d="M25 50c13.807 0 25-11.193 25-25S38.807 0 25 0 0 11.193 0 25s11.193 25 25 25Z"/>
    <path fill="#6DA544" d="M39.13 21.74h-3.26c0 6.002-4.867 10.869-10.87 10.869-6.003 0-10.87-4.867-10.87-10.87h-3.26c0 6.466 4.343 11.918 10.272 13.597a3.617 3.617 0 0 0 .377 3.948l3.554-2.847 3.553 2.847a3.618 3.618 0 0 0 .358-3.985c5.864-1.72 10.146-7.14 10.146-13.56Z"/>
    <path fill="#FFDA44" d="M16.304 20.652s0 5.435 5.435 5.435l1.087 1.087H25s1.087-3.261 3.26-3.261c0 0 0-2.174 2.175-2.174h3.26s-1.087-4.348 4.348-7.609l-2.174-1.087s-7.608 5.435-13.043 4.348v2.174h-2.174l-1.087-1.087-3.26 2.174Z"/>
  </g>
  <defs>
    <clipPath id="a">
      <path fill="#fff" d="M0 0h50v50H0z"/>
    </clipPath>
  </defs>
</svg>
