<svg xmlns="http://www.w3.org/2000/svg" width="50" height="50" fill="none" viewBox="0 0 50 50">
  <g clip-path="url(#a)">
    <path fill="#FF9811" d="M.001 4.348H0v41.304h.001V4.348Z"/>
    <path fill="#FFDA44" d="M25 50c13.807 0 25-11.193 25-25S38.807 0 25 0 0 11.193 0 25s11.193 25 25 25Z"/>
    <path fill="#FF9811" d="M19.565 4.348H10.91c-.384.262-.76.535-1.127.818L7.609 25l2.174 19.834c.368.283.743.556 1.127.818h8.655V4.348Z"/>
    <path fill="#6DA544" d="M0 25c0 8.08 3.835 15.264 9.783 19.834V5.166C3.835 9.736 0 16.919 0 25Z"/>
    <path fill="#FFDA44" d="M40.217 15.24v.626l.024.004-.024-.63Z"/>
    <path fill="#A2001D" d="M48.007 31.522h-4.71l-1.993 2.174v4.348h-4.347V35.87h2.173v-4.348h-9.782v2.717h-2.174V29.06a3.252 3.252 0 0 1-1.087-2.43V12.5c0-1.8 1.46-3.26 3.26-3.26v20.108h4.349l1.492-1.243a5.2 5.2 0 0 1-.405-2.018v-3.26h-3.261v-6.522h6.522c0-1.087 1.63-2.174 1.63-2.174s1.63 1.086 1.63 2.174v6.521c1.21.015 3.131-.017 5.207 0a6.595 6.595 0 0 1-.859-3.26c0-1.919.828-3.643 2.146-4.836-1.9-4.21-4.931-7.8-8.707-10.382H22.826v41.304h16.265a25.055 25.055 0 0 0 9.776-13.192l-.86-.938Z"/>
  </g>
  <defs>
    <clipPath id="a">
      <path fill="#fff" d="M0 0h50v50H0z"/>
    </clipPath>
  </defs>
</svg>
