<svg xmlns="http://www.w3.org/2000/svg" width="50" height="50" fill="none" viewBox="0 0 50 50">
  <g clip-path="url(#a)">
    <path fill="#338AF3" d="M50 25c0 13.807-11.193 25-25 25S0 38.807 0 25c1.087 0 25-3.26 25-3.26L50 25Z"/>
    <path fill="#F0F0F0" d="M0 25C0 11.193 11.193 0 25 0s25 11.193 25 25"/>
    <path fill="#6DA544" d="M34.924 17.25 25 27.174l-9.923-9.924a11.887 11.887 0 0 0-2.033 6.663v3.26c0 5.237 3.383 9.697 8.078 11.311a3.616 3.616 0 0 0 .398 3.907l3.553-2.847 3.553 2.847a3.617 3.617 0 0 0 .376-3.95c4.63-1.65 7.955-6.077 7.955-11.267v-3.26c0-2.466-.75-4.759-2.033-6.664Z"/>
    <path fill="#FFDA44" d="M25 35.87c-4.794 0-8.695-3.901-8.695-8.696v-3.26c0-4.796 3.9-8.697 8.695-8.697s8.696 3.901 8.696 8.696v3.26c0 4.796-3.9 8.697-8.696 8.697Z"/>
    <path fill="#338AF3" d="M30.435 27.174v-3.26A5.441 5.441 0 0 0 25 18.477a5.441 5.441 0 0 0-5.435 5.435v3.26L25 28.262l5.435-1.087Z"/>
    <path fill="#6DA544" d="M19.565 27.174A5.441 5.441 0 0 0 25 32.609a5.441 5.441 0 0 0 5.435-5.435h-10.87Z"/>
    <path fill="#FFDA44" d="M31.522 15.217a3.261 3.261 0 0 0-5.435-2.43V10.87h1.087V8.697h-1.087V7.609h-2.174v1.087h-1.087v2.174h1.087v1.918a3.261 3.261 0 0 0-4.348 4.86v1.917h10.87v-1.918a3.252 3.252 0 0 0 1.087-2.43Z"/>
  </g>
  <defs>
    <clipPath id="a">
      <path fill="#fff" d="M0 0h50v50H0z"/>
    </clipPath>
  </defs>
</svg>
