<svg xmlns="http://www.w3.org/2000/svg" width="50" height="50" fill="none" viewBox="0 0 50 50">
  <g clip-path="url(#a)">
    <path fill="#F0F0F0" d="M25 50c13.807 0 25-11.193 25-25S38.807 0 25 0 0 11.193 0 25s11.193 25 25 25Z"/>
    <path fill="#D80027" d="M50 25c0-9.912-5.769-18.476-14.13-22.52v45.04C44.23 43.475 50 34.911 50 24.999Z"/>
    <path fill="#6DA544" d="M0 25c0 9.911 5.768 18.475 14.13 22.52V2.48C5.768 6.524 0 15.088 0 25Zm18.479 0a6.522 6.522 0 1 0 13.043 0v-2.174H18.48V25Z"/>
    <path fill="#FF9811" d="M33.696 20.652h-6.522a2.174 2.174 0 0 0-4.348 0h-6.521c0 1.2 1.046 2.174 2.246 2.174h-.072c0 1.2.973 2.174 2.174 2.174 0 1.2.973 2.174 2.174 2.174h4.347A2.174 2.174 0 0 0 29.348 25c1.2 0 2.174-.973 2.174-2.174h-.072c1.2 0 2.246-.973 2.246-2.174Z"/>
  </g>
  <defs>
    <clipPath id="a">
      <path fill="#fff" d="M0 0h50v50H0z"/>
    </clipPath>
  </defs>
</svg>
