<svg xmlns="http://www.w3.org/2000/svg" width="50" height="50" fill="none" viewBox="0 0 50 50">
  <g clip-path="url(#a)">
    <path fill="#A2001D" d="M49.139 18.478C46.27 7.834 36.55 0 25 0 13.45 0 3.73 7.834.861 18.478l24.14 1.087 24.138-1.087ZM.861 31.522C3.731 42.166 13.45 50 25.001 50c11.55 0 21.27-7.834 24.138-18.478L25 30.435.861 31.522Z"/>
    <path fill="#6DA544" d="M49.139 18.478H.86A25.027 25.027 0 0 0 0 25c0 2.257.3 4.442.861 6.522H49.14c.56-2.08.861-4.265.861-6.522 0-2.256-.3-4.442-.861-6.522Z"/>
  </g>
  <defs>
    <clipPath id="a">
      <path fill="#fff" d="M0 0h50v50H0z"/>
    </clipPath>
  </defs>
</svg>
