<svg xmlns="http://www.w3.org/2000/svg" width="50" height="51" fill="none" viewBox="0 0 50 51">
  <g clip-path="url(#a)">
    <path fill="#D80027" d="M25 50.581c13.807 0 25-11.193 25-25s-11.193-25-25-25-25 11.193-25 25 11.193 25 25 25Z"/>
    <path fill="#F0F0F0" d="m23.976 21.01 2.052 2.826 3.322-1.077-2.055 2.824 2.051 2.827-3.32-1.082-2.055 2.825.002-3.493-3.32-1.081 3.321-1.077.002-3.493Z"/>
    <path fill="#F0F0F0" d="M18.378 32.646a7.065 7.065 0 1 1 3.361-13.281 8.696 8.696 0 1 0 0 12.432 7.04 7.04 0 0 1-3.36.85Z"/>
  </g>
  <defs>
    <clipPath id="a">
      <path fill="#fff" d="M0 0h50v50H0z" transform="translate(0 .581)"/>
    </clipPath>
  </defs>
</svg>
