<svg xmlns="http://www.w3.org/2000/svg" width="50" height="50" fill="none" viewBox="0 0 50 50">
  <g clip-path="url(#a)">
    <path fill="#6DA544" d="M25 50c13.807 0 25-11.193 25-25S38.807 0 25 0 0 11.193 0 25s11.193 25 25 25Z"/>
    <path fill="#F0F0F0" d="M14.13 29.891a3.261 3.261 0 0 0 3.261 3.261h9.783a2.718 2.718 0 0 0 2.718 2.718h3.26a2.718 2.718 0 0 0 2.718-2.718v-3.26H14.13ZM36.142 14.13v7.61a2.176 2.176 0 0 1-2.175 2.173v3.26a5.44 5.44 0 0 0 5.435-5.434V14.13h-3.26Zm-23.37 7.61a2.176 2.176 0 0 1-2.174 2.173v3.26a5.44 5.44 0 0 0 5.435-5.434V14.13h-3.261v7.61Z"/>
    <path fill="#F0F0F0" d="M31.25 14.13h3.26v7.61h-3.26v-7.61Zm-4.891 4.348a.544.544 0 0 1-1.087 0V14.13H22.01v4.348a.544.544 0 0 1-1.087 0V14.13h-3.26v4.348a3.809 3.809 0 0 0 3.803 3.805c.808 0 1.558-.254 2.174-.686a3.782 3.782 0 0 0 2.654.654 2.176 2.176 0 0 1-2.11 1.662v3.26a5.44 5.44 0 0 0 5.435-5.434V14.13h-3.261v4.348Z"/>
    <path fill="#F0F0F0" d="M17.663 23.913h4.891v3.26h-4.89v-3.26Z"/>
  </g>
  <defs>
    <clipPath id="a">
      <path fill="#fff" d="M0 0h50v50H0z"/>
    </clipPath>
  </defs>
</svg>
