<svg xmlns="http://www.w3.org/2000/svg" width="51" height="50" fill="none" viewBox="0 0 51 50">
  <g clip-path="url(#a)">
    <path fill="#F0F0F0" d="M25.988 50c13.807 0 25-11.193 25-25s-11.193-25-25-25-25 11.193-25 25 11.193 25 25 25Z"/>
    <path fill="#0052B4" d="M25.988 0c-7.577 0-14.366 3.371-18.95 8.696H44.94C40.355 3.37 33.566 0 25.988 0ZM44.94 41.304H7.037C11.622 46.63 18.411 50 25.988 50c7.578 0 14.367-3.371 18.952-8.696Z"/>
    <path fill="#D80027" d="M47.319 11.957H4.658A24.882 24.882 0 0 0 .988 25c0 4.78 1.343 9.246 3.67 13.044h42.66A24.881 24.881 0 0 0 50.989 25a24.87 24.87 0 0 0-3.67-13.043Z"/>
    <path fill="#F0F0F0" d="M16.369 34.62a9.62 9.62 0 0 0 0-19.24 9.62 9.62 0 1 0 0 19.24Z"/>
    <path fill="#D80027" d="m16.369 15.38 2.158 6.643h6.996l-5.662 4.106 2.175 6.662-5.667-4.125-5.66 4.117 2.168-6.654-5.657-4.106h6.99l2.159-6.643Z"/>
  </g>
  <defs>
    <clipPath id="a">
      <path fill="#fff" d="M0 0h50v50H0z" transform="translate(.988)"/>
    </clipPath>
  </defs>
</svg>
