<svg xmlns="http://www.w3.org/2000/svg" width="50" height="50" fill="none" viewBox="0 0 50 50">
  <g clip-path="url(#a)">
    <path fill="#D80027" d="M0 25c0 4.331 1.102 8.405 3.04 11.956L25 39.13l21.96-2.174A24.89 24.89 0 0 0 50 25a24.89 24.89 0 0 0-3.04-11.957L25 10.87 3.04 13.043A24.889 24.889 0 0 0 0 25Z"/>
    <path fill="#0052B4" d="M3.04 13.043h43.92C42.72 5.274 34.476 0 25 0S7.28 5.272 3.04 13.043ZM25 50c9.476 0 17.72-5.272 21.96-13.044H3.04C7.28 44.728 15.524 50 25 50Z"/>
    <path fill="#F0F0F0" d="M33.696 29.891v-3.26h-2.174v-4.348l-2.174-2.174-2.174 2.174v-4.348L25 15.76l-2.174 2.174v4.348l-2.174-2.174-2.174 2.174v4.348h-2.174v3.26H14.13v3.261h21.74v-3.26h-2.174Z"/>
  </g>
  <defs>
    <clipPath id="a">
      <path fill="#fff" d="M0 0h50v50H0z"/>
    </clipPath>
  </defs>
</svg>
