<svg xmlns="http://www.w3.org/2000/svg" width="50" height="50" fill="none" viewBox="0 0 50 50">
  <g clip-path="url(#a)">
    <path fill="#D80027" d="M50 25c0 13.807-11.193 25-25 25S0 38.807 0 25L25 0c13.807 0 25 11.193 25 25Z"/>
    <path fill="#0052B4" d="M25 25V0C11.193 0 0 11.193 0 25h25Z"/>
    <path fill="#F0F0F0" d="m20.025 16.304.405 1.246h1.31l-1.06.77.404 1.245-1.06-.77-1.059.77.405-1.245-1.06-.77h1.31l.405-1.246Zm-6.578-9.782.675 2.076h2.182L14.538 9.88l.675 2.075-1.766-1.283-1.766 1.284.675-2.076-1.766-1.283h2.183l.674-2.076Zm6.522 2.174.674 2.076h2.183l-1.766 1.283.674 2.075-1.765-1.283-1.766 1.284.674-2.076-1.766-1.283h2.183l.675-2.076Zm-5.155 8.695.675 2.076h2.183l-1.766 1.283.674 2.076-1.766-1.283-1.766 1.283.675-2.076-1.766-1.283h2.183l.674-2.076ZM9.1 11.957l.674 2.076h2.183l-1.766 1.282.674 2.076L9.1 16.108l-1.766 1.283.675-2.076-1.766-1.282h2.183l.674-2.076Z"/>
  </g>
  <defs>
    <clipPath id="a">
      <path fill="#fff" d="M0 0h50v50H0z"/>
    </clipPath>
  </defs>
</svg>
