<svg xmlns="http://www.w3.org/2000/svg" width="50" height="50" fill="none" viewBox="0 0 50 50">
  <g clip-path="url(#a)">
    <path fill="#F0F0F0" d="M25 50c13.807 0 25-11.193 25-25S38.807 0 25 0 0 11.193 0 25s11.193 25 25 25Z"/>
    <path fill="#A2001D" d="M7.322 42.678a25.149 25.149 0 0 0 3.341 2.807l34.822-34.821a25.142 25.142 0 0 0-6.149-6.149L4.515 39.336a25.147 25.147 0 0 0 2.807 3.342Z"/>
    <path fill="#0052B4" d="M7.322 7.322c-7.887 7.887-9.4 19.732-4.545 29.14L36.463 2.778C27.054-2.08 15.209-.565 7.323 7.322Z"/>
    <path fill="#496E2D" d="M42.677 42.678c7.887-7.887 9.401-19.732 4.546-29.14L13.537 47.222c9.408 4.856 21.253 3.342 29.14-4.545Z"/>
    <path fill="#FFDA44" d="m20.652 14.13-2.801 1.318 1.491 2.713-3.041-.582-.386 3.073-2.119-2.26-2.119 2.26-.385-3.073-3.042.582 1.492-2.713L6.94 14.13l2.802-1.317L8.25 10.1l3.042.582.385-3.073 2.12 2.26 2.118-2.26.386 3.073 3.041-.582-1.491 2.713 2.801 1.317Z"/>
  </g>
  <defs>
    <clipPath id="a">
      <path fill="#fff" d="M0 0h50v50H0z"/>
    </clipPath>
  </defs>
</svg>
