<svg xmlns="http://www.w3.org/2000/svg" width="50" height="50" fill="none" viewBox="0 0 50 50">
  <g clip-path="url(#a)">
    <path fill="#D80027" d="M25 50c13.807 0 25-11.193 25-25S38.807 0 25 0 0 11.193 0 25s11.193 25 25 25Z"/>
    <path fill="#FFDA44" d="M39.774 20.517H28.487L25 9.783l-3.488 10.734H10.226l9.13 6.634-3.487 10.734 9.13-6.634 9.132 6.634-3.488-10.734 9.131-6.634ZM21.912 26.32l1.18-3.63h3.816l1.18 3.63L25 28.564l-3.088-2.244Zm4.29-5.803h-2.404l1.202-3.7 1.202 3.7Zm3.735 4.46-.743-2.286h3.89l-3.147 2.286Zm-9.131-2.286-.743 2.286-3.147-2.286h3.89Zm-.802 9.503 1.202-3.7 1.945 1.413-3.147 2.287Zm6.845-2.287 1.945-1.413 1.202 3.7-3.147-2.287Z"/>
  </g>
  <defs>
    <clipPath id="a">
      <path fill="#fff" d="M0 0h50v50H0z"/>
    </clipPath>
  </defs>
</svg>
