<svg xmlns="http://www.w3.org/2000/svg" width="50" height="50" fill="none" viewBox="0 0 50 50">
  <g clip-path="url(#a)">
    <path fill="#F0F0F0" d="M25 50c13.807 0 25-11.193 25-25S38.807 0 25 0 0 11.193 0 25s11.193 25 25 25Z"/>
    <path fill="#000" d="M25 0A24.922 24.922 0 0 0 7.322 7.322L25 25V0ZM0 25a24.922 24.922 0 0 0 7.322 17.678L25 25H0Zm25 25a24.922 24.922 0 0 0 17.678-7.322L25 25v25Zm25-25a24.922 24.922 0 0 0-7.322-17.678L25 25h25Z"/>
    <path fill="#FFDA44" d="M16.304 17.391 25 18.48l8.696-1.088v-5.217l-3.479 1.739L25 8.696l-5.217 5.217-3.479-1.74v5.218Z"/>
    <path fill="#D80027" d="M25 38.043c-4.795 0-8.696-3.9-8.696-8.695v-8.695l3.261-3.261h10.87l3.26 3.26v8.696c0 4.795-3.9 8.695-8.695 8.695Z"/>
    <path fill="#F0F0F0" d="M25 34.783a5.44 5.44 0 0 1-5.435-5.435v-8.696h10.87v8.696A5.441 5.441 0 0 1 25 34.783Z"/>
    <path fill="#FFDA44" d="M16.304 17.391h3.261v3.261h-3.26v-3.26Zm14.131 0h3.26v3.261h-3.26v-3.26Zm0 7.065h3.26v3.261h-3.26v-3.26Zm-14.131 0h3.261v3.261h-3.26v-3.26ZM25 34.783a5.415 5.415 0 0 1-1.63-.25v3.355c.528.1 1.073.156 1.63.156a8.67 8.67 0 0 0 1.63-.156v-3.355a5.418 5.418 0 0 1-1.63.25Zm-5.362-4.553-2.603 2.602a8.724 8.724 0 0 0 1.887 2.726l2.304-2.305a5.424 5.424 0 0 1-1.588-3.023Zm13.327 2.603-2.603-2.603a5.426 5.426 0 0 1-1.588 3.024l2.304 2.304a8.732 8.732 0 0 0 1.887-2.725Z"/>
    <path fill="#0052B4" d="M23.913 22.464v1.811a1.087 1.087 0 0 0 2.174 0v-1.811h-2.174Zm0 7.246v1.812a1.087 1.087 0 0 0 2.174 0V29.71h-2.174Zm3.261-3.623v1.812a1.087 1.087 0 0 0 2.174 0v-1.812h-2.174Zm-3.261 0v1.812a1.087 1.087 0 0 0 2.174 0v-1.812h-2.174Zm-3.261 0v1.812a1.087 1.087 0 0 0 2.174 0v-1.812h-2.174Z"/>
  </g>
  <defs>
    <clipPath id="a">
      <path fill="#fff" d="M0 0h50v50H0z"/>
    </clipPath>
  </defs>
</svg>
