<svg xmlns="http://www.w3.org/2000/svg" width="50" height="50" fill="none" viewBox="0 0 50 50">
  <g clip-path="url(#a)">
    <path fill="#F0F0F0" d="M25 50c13.807 0 25-11.193 25-25S38.807 0 25 0 0 11.193 0 25s11.193 25 25 25Z"/>
    <path fill="#338AF3" d="M50 25c0-9.912-5.768-18.476-14.13-22.52v45.04C44.232 43.475 50 34.91 50 25ZM0 25c0 9.911 5.768 18.476 14.13 22.52V2.48C5.768 6.525 0 15.089 0 25Z"/>
    <path fill="#ACABB1" d="M31.533 29.227 27.306 25l4.023-4.024-.182-2.125-1.152-1.152L25 22.694 20.005 17.7l-1.152 1.152-.183 2.125L22.694 25l-4.227 4.227 2.306 2.306L25 27.306l4.227 4.227 2.306-2.306Z"/>
    <path fill="#6DA544" d="m31.149 18.851-2.306 2.306a5.435 5.435 0 1 1-7.686 0l-2.306-2.306a8.696 8.696 0 1 0 12.297 0Z"/>
  </g>
  <defs>
    <clipPath id="a">
      <path fill="#fff" d="M0 0h50v50H0z"/>
    </clipPath>
  </defs>
</svg>
