<svg xmlns="http://www.w3.org/2000/svg" width="50" height="50" fill="none" viewBox="0 0 50 50">
  <g clip-path="url(#a)">
    <path fill="#338AF3" d="M22.826 22.826S7.336 42.681 7.322 42.678A24.922 24.922 0 0 0 25 50c13.807 0 25-11.193 25-25l-27.174-2.174Z"/>
    <path fill="#6DA544" d="M22.826 25S7.336 7.319 7.322 7.322A24.922 24.922 0 0 1 25 0c13.807 0 25 11.193 25 25H22.826Z"/>
    <path fill="#D80027" d="M7.322 7.322c-9.763 9.763-9.763 25.592 0 35.356C7.322 42.682 50 25 50 25L7.322 7.322Z"/>
    <path fill="#FFDA44" d="M13.043 14.674c-4.794 0-8.695 3.9-8.695 8.696v3.26c0 4.795 3.9 8.696 8.695 8.696s8.696-3.9 8.696-8.696v-3.26c0-4.795-3.9-8.696-8.696-8.696Zm5.435 11.957a5.444 5.444 0 0 1-3.804 5.184v-3.554l2.307-2.307-2.306-2.306-.001-.82v-1.089h-3.26V25l-2.306 2.305 2.305 2.306v2.204a5.444 5.444 0 0 1-3.804-5.184V23.37a5.44 5.44 0 0 1 5.434-5.435 5.441 5.441 0 0 1 5.435 5.435v3.26Z"/>
  </g>
  <defs>
    <clipPath id="a">
      <path fill="#fff" d="M0 0h50v50H0z"/>
    </clipPath>
  </defs>
</svg>
