<svg xmlns="http://www.w3.org/2000/svg" width="50" height="50" fill="none" viewBox="0 0 50 50">
  <g clip-path="url(#a)">
    <path fill="#F0F0F0" d="M25 50c13.807 0 25-11.193 25-25S38.807 0 25 0 0 11.193 0 25s11.193 25 25 25Z"/>
    <path fill="#D80027" d="M25 0C15.088 0 6.524 5.768 2.48 14.13h45.04C43.475 5.768 34.91 0 25 0Z"/>
    <path fill="#0052B4" d="M25 50c9.911 0 18.476-5.768 22.52-14.13H2.48C6.525 44.232 15.089 50 25 50Z"/>
    <path fill="#6DA544" d="m31.149 17.764-2.306 2.306a5.435 5.435 0 1 1-7.686 0l-2.306-2.306a8.696 8.696 0 1 0 12.297 0Z"/>
    <path fill="#FFDA44" d="m25 20.652.81 2.491h2.619l-2.12 1.54.81 2.49L25 25.635l-2.12 1.54.81-2.491-2.119-1.54h2.62l.809-2.49Z"/>
  </g>
  <defs>
    <clipPath id="a">
      <path fill="#fff" d="M0 0h50v50H0z"/>
    </clipPath>
  </defs>
</svg>
