<svg xmlns="http://www.w3.org/2000/svg" width="50" height="50" fill="none" viewBox="0 0 50 50">
  <g clip-path="url(#a)">
    <path fill="#FFDA44" d="M25 50c13.807 0 25-11.193 25-25S38.807 0 25 0 0 11.193 0 25s11.193 25 25 25Z"/>
    <path fill="#0052B4" d="M25 50c8.203 0 15.483-3.951 20.042-10.054H4.958C9.517 46.05 16.797 50 25 50Zm25-25C50 11.193 38.807 0 25 0S0 11.193 0 25c0 2.956.515 5.792 1.457 8.425h47.086A24.954 24.954 0 0 0 50 25Z"/>
    <path fill="#F0F0F0" d="m17.111 16.033 1.35 4.152h4.365l-3.532 2.566 1.35 4.152-3.533-2.566-3.531 2.566 1.349-4.152-3.532-2.566h4.365l1.35-4.152Zm-7.496-4.348.809 2.492h2.62l-2.12 1.54.81 2.49-2.12-1.54-2.118 1.54.809-2.49-2.119-1.54h2.62l.809-2.492Z"/>
  </g>
  <defs>
    <clipPath id="a">
      <path fill="#fff" d="M0 0h50v50H0z"/>
    </clipPath>
  </defs>
</svg>
