<svg xmlns="http://www.w3.org/2000/svg" width="50" height="50" fill="none" viewBox="0 0 50 50">
  <g clip-path="url(#a)">
    <path fill="#496E2D" d="M25 50c13.807 0 25-11.193 25-25S38.807 0 25 0 0 11.193 0 25s11.193 25 25 25Z"/>
    <path fill="#D80027" d="M34.783 25H25v25c2.922 0 5.727-.503 8.333-1.424L34.783 25Z"/>
    <path fill="#FF9811" d="M41.666 43.632C46.782 39.055 50 32.404 50 25h-9.783l1.45 18.632Z"/>
    <path fill="#000" d="M33.334 25v23.576a24.986 24.986 0 0 0 8.333-4.944V25h-8.334Z"/>
    <path fill="#FF9811" d="M46.196 16.304h-6.522a2.174 2.174 0 0 0-4.348 0h-6.522c0 1.201 1.046 2.174 2.247 2.174h-.073c0 1.201.973 2.174 2.174 2.174 0 1.2.973 2.174 2.174 2.174h4.348c1.2 0 2.174-.973 2.174-2.174 1.2 0 2.174-.973 2.174-2.174h-.073c1.2 0 2.247-.973 2.247-2.174Z"/>
  </g>
  <defs>
    <clipPath id="a">
      <path fill="#fff" d="M0 0h50v50H0z"/>
    </clipPath>
  </defs>
</svg>
