<svg xmlns="http://www.w3.org/2000/svg" width="50" height="50" fill="none" viewBox="0 0 50 50">
  <g clip-path="url(#a)">
    <path fill="#338AF3" d="M50 25c0 13.807-11.193 25-25 25S0 38.807 0 25C0 25.006 25 .003 25 0c13.807 0 25 11.193 25 25Z"/>
    <path fill="#0052B4" d="M11.957 25h8.431l-7.345-8.696-1.086 3.261V25ZM25 20.389l-8.696-8.432H25v8.431Z"/>
    <path fill="#F0F0F0" d="M24.933 25H25v-.067l-.067.067Z"/>
    <path fill="#F0F0F0" d="M25 13.043V0h-.004C11.19.002 0 11.194 0 25h13.044v-7.345L20.388 25h4.545l.067-.067V20.39l-7.345-7.345H25Z"/>
    <path fill="#D80027" d="M12.648 3.26a25.119 25.119 0 0 0-9.387 9.388V25h6.522V9.783H25V3.26H12.648Z"/>
    <path fill="#D80027" d="m25 21.926-8.882-8.882h-3.074L25 25v-3.074Z"/>
    <path fill="#FFDA44" d="m27.286 41.304.54 1.66h1.746l-1.413 1.027.54 1.661-1.413-1.026-1.413 1.026.54-1.66L25 42.964h1.746l.54-1.66Zm13.907-10.869.54 1.66h1.745l-1.412 1.027.54 1.66-1.413-1.026-1.413 1.026.54-1.66-1.413-1.027h1.746l.54-1.66Zm3.484-16.305.54 1.661h1.746l-1.413 1.026.54 1.661-1.413-1.026-1.413 1.026.54-1.66-1.413-1.027h1.746l.54-1.66Zm.863 11.957.54 1.66h1.746l-1.413 1.027.54 1.66-1.413-1.026-1.412 1.027.54-1.66-1.414-1.027h1.747l.54-1.661ZM29.79 37.398l1.556.793 1.234-1.235-.273 1.725 1.556.793-1.725.273-.273 1.725-.792-1.556-1.725.273 1.234-1.234-.793-1.557Zm0-6.521 1.556.792 1.234-1.234-.273 1.724 1.556.793-1.725.273-.273 1.725-.792-1.556-1.725.273 1.234-1.235-.793-1.556Zm5.434 4.18 1.557.793 1.234-1.235-.273 1.725 1.556.792-1.725.274-.273 1.724-.792-1.556-1.725.274 1.234-1.235-.793-1.556Zm0-13.963 1.557.793 1.234-1.235-.273 1.724 1.556.793-1.725.273-.273 1.725-.792-1.556-1.725.273 1.234-1.234-.793-1.556Zm5.268-.167 1.556.793 1.234-1.235-.273 1.724 1.556.793-1.725.273L42.567 25l-.792-1.556-1.725.274 1.235-1.235-.793-1.556Z"/>
  </g>
  <defs>
    <clipPath id="a">
      <path fill="#fff" d="M0 0h50v50H0z"/>
    </clipPath>
  </defs>
</svg>
