<svg xmlns="http://www.w3.org/2000/svg" width="50" height="50" fill="none" viewBox="0 0 50 50">
  <g clip-path="url(#a)">
    <path fill="#F0F0F0" d="M25 50c13.807 0 25-11.193 25-25S38.807 0 25 0 0 11.193 0 25s11.193 25 25 25Z"/>
    <path fill="#6DA544" d="M25 0c-4.42 0-8.571 1.149-12.174 3.161V46.84A24.884 24.884 0 0 0 25 50c13.807 0 25-11.193 25-25S38.807 0 25 0Z"/>
    <path fill="#F0F0F0" d="M12.9 3.12a25.055 25.055 0 0 0-3.973 2.733L28.074 25 8.927 44.147A25.062 25.062 0 0 0 12.9 46.88L50 25 12.9 3.12Z"/>
    <path fill="#FFDA44" d="M10.788 4.432a25.155 25.155 0 0 0-2.192 1.703L25 25 8.596 43.865c.697.607 1.43 1.175 2.192 1.703L45.721 25 10.788 4.432Z"/>
    <path fill="#000" d="M8.927 5.853a25.17 25.17 0 0 0-1.605 1.47L22.826 25 7.322 42.678c.513.513 1.05 1.002 1.605 1.47L28.074 25 8.927 5.853Z"/>
    <path fill="#D80027" d="M7.322 7.322c-9.763 9.763-9.763 25.592 0 35.356L25 25 7.322 7.322Z"/>
  </g>
  <defs>
    <clipPath id="a">
      <path fill="#fff" d="M0 0h50v50H0z"/>
    </clipPath>
  </defs>
</svg>
