<svg xmlns="http://www.w3.org/2000/svg" width="50" height="50" fill="none" viewBox="0 0 50 50">
  <g clip-path="url(#a)">
    <path fill="#F0F0F0" d="M25 50c13.807 0 25-11.193 25-25S38.807 0 25 0 0 11.193 0 25s11.193 25 25 25Z"/>
    <path fill="#0052B4" d="M0 25c0 13.807 11.193 25 25 25V25H0Z"/>
    <path fill="#D80027" d="M25 0c13.807 0 25 11.193 25 25H25V0Z"/>
    <path fill="#0052B4" d="m14.882 8.696 1.619 4.982h5.238l-4.238 3.079 1.619 4.982-4.238-3.08-4.238 3.08 1.618-4.982-4.238-3.08h5.239l1.619-4.981Z"/>
    <path fill="#D80027" d="m35.118 28.26 1.619 4.983h5.239l-4.239 3.08 1.62 4.981-4.239-3.079-4.238 3.08 1.619-4.983-4.238-3.079h5.238l1.62-4.982Z"/>
  </g>
  <defs>
    <clipPath id="a">
      <path fill="#fff" d="M0 0h50v50H0z"/>
    </clipPath>
  </defs>
</svg>
