<svg xmlns="http://www.w3.org/2000/svg" width="50" height="50" fill="none" viewBox="0 0 50 50">
  <g clip-path="url(#a)">
    <path fill="#F0F0F0" d="M25 50c13.807 0 25-11.193 25-25S38.807 0 25 0 0 11.193 0 25s11.193 25 25 25Z"/>
    <path fill="#0052B4" d="M34.414 19.565h-6.276L25 14.13l-3.137 5.435h-6.276L18.725 25l-3.138 5.435h6.276L25 35.869l3.138-5.434h6.276L31.276 25l3.138-5.435ZM28.855 25l-1.927 3.339h-3.855l-1.928-3.34 1.928-3.338h3.855L28.855 25ZM25 18.323l.718 1.242h-1.435L25 18.323Zm-5.782 3.338h1.434l-.717 1.243-.717-1.243Zm0 6.678.717-1.243.718 1.243h-1.435ZM25 31.677l-.717-1.242h1.435L25 31.677Zm5.783-3.338h-1.435l.718-1.243.717 1.243Zm-1.435-6.678h1.435l-.718 1.243-.717-1.243ZM40.562 5.435H9.438a25.127 25.127 0 0 0-5.769 6.521h42.662a25.134 25.134 0 0 0-5.769-6.521ZM9.438 44.565h31.124a25.129 25.129 0 0 0 5.769-6.521H3.669a25.132 25.132 0 0 0 5.769 6.521Z"/>
  </g>
  <defs>
    <clipPath id="a">
      <path fill="#fff" d="M0 0h50v50H0z"/>
    </clipPath>
  </defs>
</svg>
