<svg xmlns="http://www.w3.org/2000/svg" width="50" height="50" fill="none" viewBox="0 0 50 50">
  <g clip-path="url(#a)">
    <path fill="#F0F0F0" d="M25 50c13.807 0 25-11.193 25-25S38.807 0 25 0 0 11.193 0 25s11.193 25 25 25Z"/>
    <path fill="#D80027" d="M50 25c0-9.912-5.768-18.476-14.13-22.52v45.04C44.232 43.475 50 34.911 50 25ZM0 25c0 9.912 5.768 18.476 14.13 22.52V2.48C5.768 6.525 0 15.089 0 25Zm29.348 3.26 4.347-2.173L31.522 25v-2.174L27.174 25l2.174-4.348h-2.174L25 17.392l-2.174 3.26h-2.174L22.826 25l-4.348-2.174V25l-2.174 1.087 4.348 2.174-1.087 2.174h4.348v3.26h2.174v-3.26h4.348l-1.087-2.174Z"/>
  </g>
  <defs>
    <clipPath id="a">
      <path fill="#fff" d="M0 0h50v50H0z"/>
    </clipPath>
  </defs>
</svg>
