<svg xmlns="http://www.w3.org/2000/svg" width="50" height="50" fill="none" viewBox="0 0 50 50">
  <g clip-path="url(#a)">
    <path fill="#F0F0F0" d="M25 50c13.807 0 25-11.193 25-25S38.807 0 25 0 0 11.193 0 25s11.193 25 25 25Z"/>
    <path fill="#D80027" d="M3.04 13.043h43.92C42.72 5.274 34.476 0 25 0S7.28 5.272 3.04 13.043ZM25 50c9.476 0 17.72-5.272 21.96-13.044H3.04C7.28 44.728 15.524 50 25 50Z"/>
    <path fill="#FFDA44" d="M33.695 25c0 4.803-3.893 7.609-8.695 7.609-4.803 0-8.696-2.806-8.696-7.609a8.696 8.696 0 1 1 17.391 0Z"/>
    <path fill="#0052B4" d="M33.695 25a8.696 8.696 0 1 1-17.39 0"/>
    <path fill="#D80027" d="M19.565 22.826h2.174v4.348h-2.174v-4.348Zm8.696 0h2.174v4.348h-2.174v-4.348Zm-4.348-3.261h2.174v7.609h-2.174v-7.609Z"/>
  </g>
  <defs>
    <clipPath id="a">
      <path fill="#fff" d="M0 0h50v50H0z"/>
    </clipPath>
  </defs>
</svg>
