<svg xmlns="http://www.w3.org/2000/svg" width="50" height="50" fill="none" viewBox="0 0 50 50">
  <g clip-path="url(#a)">
    <path fill="#D80027" d="M25 50c13.807 0 25-11.193 25-25S38.807 0 25 0 0 11.193 0 25s11.193 25 25 25Z"/>
    <path fill="#F0F0F0" d="M27.581 18.913c-.568 2.363-1.578 1.912-2.073 3.973a5.435 5.435 0 0 1 2.54-10.568c-.99 4.122.041 4.481-.467 6.595Zm-7.572 1.751c2.072 1.27 1.33 2.091 3.138 3.2a5.435 5.435 0 0 1-9.266-5.683c3.613 2.216 4.274 1.347 6.128 2.483Zm-.675 7.743c1.849-1.577 2.4-.62 4.013-1.995a5.435 5.435 0 0 1-8.267 7.056c3.224-2.752 2.6-3.65 4.254-5.06Zm7.156 3.035c-.93-2.246.152-2.475-.659-4.433a5.435 5.435 0 0 1 4.157 10.043c-1.621-3.917-2.667-3.601-3.498-5.61Zm5.097-5.868c-2.423.19-2.307-.91-4.42-.744a5.435 5.435 0 0 1 10.837-.85c-4.227.332-4.25 1.424-6.417 1.594Z"/>
  </g>
  <defs>
    <clipPath id="a">
      <path fill="#fff" d="M0 0h50v50H0z"/>
    </clipPath>
  </defs>
</svg>
