<svg xmlns="http://www.w3.org/2000/svg" width="50" height="50" fill="none" viewBox="0 0 50 50">
  <g clip-path="url(#a)">
    <path fill="#496E2D" d="M25 50c13.807 0 25-11.193 25-25S38.807 0 25 0 0 11.193 0 25s11.193 25 25 25Z"/>
    <path fill="#F0F0F0" d="M29.348 23.958a5.12 5.12 0 0 0-1.737.317c.296-.66.495-1.396.495-2.18 0-3.106-3.106-5.435-3.106-5.435s-3.105 2.329-3.105 5.434c0 .785.198 1.52.495 2.18a5.124 5.124 0 0 0-1.738-.316c-3.105 0-5.434 3.105-5.434 3.105s2.329 3.106 5.434 3.106c1.821 0 3.374-1.067 4.348-1.95.974.883 2.527 1.95 4.348 1.95 3.106 0 5.435-3.106 5.435-3.106s-2.33-3.105-5.435-3.105Z"/>
    <path fill="#FFDA44" d="m25 9.783.642 1.974h2.076l-1.68 1.22.641 1.974L25 13.731l-1.68 1.22.642-1.974-1.68-1.22h2.077L25 9.783Zm-7.894 3.453 1.234 1.111 1.438-.83-.675 1.517 1.234 1.111-1.651-.173-.676 1.517-.345-1.625-1.652-.173 1.438-.83-.345-1.625Zm-5.778 5.778 1.624.346.83-1.439.174 1.652 1.624.345-1.517.676.174 1.651-1.111-1.234-1.518.676.83-1.439-1.11-1.234Zm21.566-5.778-1.234 1.111-1.438-.83.675 1.517-1.234 1.111 1.652-.173.675 1.517.346-1.625 1.651-.173-1.438-.83.345-1.625Zm5.779 5.778-1.625.346-.83-1.439-.174 1.652-1.624.345 1.517.676-.174 1.651 1.112-1.234 1.517.676-.83-1.439 1.11-1.234Z"/>
    <path fill="#F0F0F0" d="M25 38.865c2.467 0 4.74-.823 6.564-2.208H18.435A10.818 10.818 0 0 0 25 38.865Zm-9.964-6.522c.345.79.782 1.529 1.296 2.208h17.336c.514-.679.951-1.419 1.296-2.208H15.036Z"/>
  </g>
  <defs>
    <clipPath id="a">
      <path fill="#fff" d="M0 0h50v50H0z"/>
    </clipPath>
  </defs>
</svg>
