<svg xmlns="http://www.w3.org/2000/svg" width="50" height="50" fill="none" viewBox="0 0 50 50">
  <g clip-path="url(#a)">
    <path fill="#F0F0F0" d="M25 50c13.807 0 25-11.193 25-25S38.807 0 25 0 0 11.193 0 25s11.193 25 25 25Z"/>
    <path fill="#D80027" d="M25 0C16.821 0 9.56 3.928 5 10h40.002c-4.56-6.072-11.822-10-20-10Zm0 50c8.179 0 15.44-3.928 20.001-10H5c4.56 6.072 11.821 10 20 10ZM0 25c0 1.712.173 3.384.5 5h49a25.19 25.19 0 0 0 0-10H.5a25.107 25.107 0 0 0-.5 5Z"/>
    <path fill="#0052B4" d="M7.322 7.322c-9.763 9.763-9.763 25.592 0 35.356L25 25 7.322 7.322Z"/>
    <path fill="#F0F0F0" d="m10.118 18.478 1.619 4.982h5.239l-4.238 3.08 1.618 4.982-4.238-3.08-4.238 3.08 1.619-4.982-4.238-3.08h5.238l1.62-4.982Z"/>
  </g>
  <defs>
    <clipPath id="a">
      <path fill="#fff" d="M0 0h50v50H0z"/>
    </clipPath>
  </defs>
</svg>
