<svg xmlns="http://www.w3.org/2000/svg" width="50" height="50" fill="none" viewBox="0 0 50 50">
  <g clip-path="url(#a)">
    <path fill="#F0F0F0" d="M25 50c13.807 0 25-11.193 25-25S38.807 0 25 0 0 11.193 0 25s11.193 25 25 25Z"/>
    <path fill="#D80027" d="M.212 28.261a24.874 24.874 0 0 0 4.956 11.96l13.31-11.96H.212ZM21.74 49.788V31.522L9.78 44.832a24.872 24.872 0 0 0 11.96 4.956Zm0-49.576A24.873 24.873 0 0 0 9.78 5.168l11.96 13.31V.212ZM.212 21.74h18.266L5.168 9.78A24.872 24.872 0 0 0 .212 21.74ZM28.261.212v18.266l11.96-13.31A24.874 24.874 0 0 0 28.26.212ZM49.789 21.74a24.874 24.874 0 0 0-4.957-11.96l-13.31 11.96h18.267Zm-18.267 6.521 13.31 11.96a24.875 24.875 0 0 0 4.957-11.96H31.522Zm-3.261 21.527a24.873 24.873 0 0 0 11.96-4.956l-11.96-13.31v18.266Z"/>
    <path fill="#496E2D" d="M44.834 40.222 29.61 25 44.834 9.778a25.254 25.254 0 0 0-4.612-4.612L25 20.388 9.778 5.166a25.24 25.24 0 0 0-4.612 4.612L20.388 25 5.166 40.222a25.274 25.274 0 0 0 4.612 4.612L25 29.612l15.222 15.222a25.26 25.26 0 0 0 4.612-4.612Z"/>
    <path fill="#F0F0F0" d="M28.26 49.788V28.261h21.528a25.224 25.224 0 0 0 0-6.522H28.261V.212a25.244 25.244 0 0 0-6.522 0v21.527H.212a25.228 25.228 0 0 0 0 6.522h21.527v21.527a25.255 25.255 0 0 0 6.522 0Z"/>
  </g>
  <defs>
    <clipPath id="a">
      <path fill="#fff" d="M0 0h50v50H0z"/>
    </clipPath>
  </defs>
</svg>
