<svg xmlns="http://www.w3.org/2000/svg" width="50" height="50" fill="none" viewBox="0 0 50 50">
  <g clip-path="url(#a)">
    <path fill="#D80027" d="M0 25C0 11.193 11.193 0 25 0s25 11.193 25 25c-1.087 0-25 3.26-25 3.26L0 25Z"/>
    <path fill="#000" d="M50 25c0 13.807-11.193 25-25 25S0 38.807 0 25"/>
    <path fill="#FFDA44" d="m21.572 19.884 2.12 1.538-.808 2.491L25 22.373l2.12 1.538-.81-2.49 2.117-1.54h-2.619l-.81-2.49-.808 2.492-2.619.001Z"/>
    <path fill="#FFDA44" d="M31.25 14.175a12.42 12.42 0 0 0-6.25-1.67v3.26a9.177 9.177 0 0 1 4.62 1.234c4.411 2.547 5.928 8.209 3.381 12.62-2.547 4.413-8.209 5.93-12.62 3.383a9.177 9.177 0 0 1-3.088-2.913l-2.723 1.797a12.42 12.42 0 0 0 4.18 3.94c5.97 3.446 13.629 1.393 17.075-4.576 3.447-5.969 1.394-13.629-4.575-17.075Z"/>
    <path fill="#FFDA44" d="M17.792 22.826a3.261 3.261 0 0 0 1.296 4.426l10.59 5.787c-.72 1.317-.337 2.919.98 3.64l2.86 1.564a2.717 2.717 0 0 0 3.688-1.08l1.565-2.86-20.979-11.477Z"/>
  </g>
  <defs>
    <clipPath id="a">
      <path fill="#fff" d="M0 0h50v50H0z"/>
    </clipPath>
  </defs>
</svg>
