<svg xmlns="http://www.w3.org/2000/svg" width="50" height="50" fill="none" viewBox="0 0 50 50">
  <g clip-path="url(#a)">
    <path fill="#0052B4" d="M25 50c13.807 0 25-11.193 25-25a24.89 24.89 0 0 0-2.861-11.621L24.97 25.029 36.62 2.862A24.89 24.89 0 0 0 25 0C11.193 0 0 11.193 0 25a24.922 24.922 0 0 0 7.322 17.678A24.921 24.921 0 0 0 25 50Z"/>
    <path fill="#F0F0F0" d="M47.112 13.406a24.991 24.991 0 0 0-4.464-6.054 24.987 24.987 0 0 0-6.054-4.464L7.293 42.707l39.819-29.3Z"/>
    <path fill="#FF9811" d="m7.293 42.707 39.819-29.3a24.991 24.991 0 0 0-4.464-6.055L7.293 42.707Z"/>
    <path fill="#F0F0F0" d="m21.71 14.66-3.053 1.437 1.625 2.957-3.315-.635-.42 3.35-2.31-2.464-2.309 2.464-.42-3.35-3.315.634 1.626-2.957-3.054-1.436 3.054-1.436-1.626-2.957 3.315.635.42-3.35 2.31 2.464 2.309-2.464.42 3.35 3.316-.635-1.626 2.957 3.053 1.436Z"/>
  </g>
  <defs>
    <clipPath id="a">
      <path fill="#fff" d="M0 0h50v50H0z"/>
    </clipPath>
  </defs>
</svg>
