<svg xmlns="http://www.w3.org/2000/svg" width="50" height="50" fill="none" viewBox="0 0 50 50">
  <g clip-path="url(#a)">
    <path fill="#FFDA44" d="M0 25c0 3.058.55 5.987 1.555 8.696L25 34.783l23.445-1.087A24.945 24.945 0 0 0 50 25c0-3.058-.55-5.987-1.555-8.696L25 15.217 1.555 16.304A24.947 24.947 0 0 0 0 25Z"/>
    <path fill="#D80027" d="M25 0C14.251 0 5.087 6.784 1.555 16.304h46.89C44.913 6.784 35.75 0 25 0Z"/>
    <path fill="#496E2D" d="M48.445 33.696H1.555C5.088 43.216 14.251 50 25 50c10.75 0 19.913-6.785 23.445-16.304Z"/>
    <path fill="#000" d="m25 16.304 2.158 6.643h6.985l-5.65 4.106 2.158 6.643L25 29.59l-5.651 4.106 2.159-6.643-5.651-4.106h6.985L25 16.304Z"/>
  </g>
  <defs>
    <clipPath id="a">
      <path fill="#fff" d="M0 0h50v50H0z"/>
    </clipPath>
  </defs>
</svg>
