<svg xmlns="http://www.w3.org/2000/svg" width="50" height="50" fill="none" viewBox="0 0 50 50">
  <g clip-path="url(#a)">
    <path fill="#338AF3" d="M22.826 27.174S7.336 7.319 7.322 7.322A24.922 24.922 0 0 1 25 0c13.807 0 25 11.193 25 25l-27.174 2.174Z"/>
    <path fill="#6DA544" d="M22.826 25S7.336 42.681 7.322 42.678A24.921 24.921 0 0 0 25 50c13.807 0 25-11.193 25-25H22.826Z"/>
    <path fill="#F0F0F0" d="M7.322 7.322c-9.763 9.763-9.763 25.592 0 35.356L25 25 7.322 7.322Z"/>
    <path fill="#D80027" d="m10.118 18.478 1.619 4.982h5.239l-4.238 3.08 1.618 4.982-4.238-3.08-4.238 3.08 1.619-4.982-4.238-3.08h5.238l1.62-4.982Z"/>
  </g>
  <defs>
    <clipPath id="a">
      <path fill="#fff" d="M0 0h50v50H0z"/>
    </clipPath>
  </defs>
</svg>
