<svg xmlns="http://www.w3.org/2000/svg" width="50" height="50" fill="none" viewBox="0 0 50 50">
  <g clip-path="url(#a)">
    <path fill="#F0F0F0" d="M25 50c13.807 0 25-11.193 25-25S38.807 0 25 0 0 11.193 0 25s11.193 25 25 25Z"/>
    <path fill="#D80027" d="M0 25c0 9.476 5.272 17.72 13.043 21.96V3.04C5.274 7.28 0 15.524 0 25Z"/>
    <path fill="#D80027" d="M48.445 33.696A24.946 24.946 0 0 0 50 25c0-3.058-.55-5.987-1.555-8.696H1.555A24.944 24.944 0 0 0 0 25c0 3.058.55 5.987 1.555 8.696L25 35.87l23.445-2.174Z"/>
    <path fill="#6DA544" d="M25 50c10.75 0 19.913-6.784 23.445-16.304H1.555C5.087 43.216 14.251 50 25 50Z"/>
    <path fill="#D80027" d="M0 25c0 11.55 7.834 21.27 18.478 24.139V.86C7.834 3.73 0 13.45 0 25Z"/>
    <path fill="#F0F0F0" d="m15.295 11.001-2.306-2.305-1.537 1.537-1.537-1.537L7.609 11l1.537 1.538-1.537 1.537 2.305 2.306 1.538-1.538 1.537 1.538 2.306-2.306-1.538-1.537L15.295 11Z"/>
  </g>
  <defs>
    <clipPath id="a">
      <path fill="#fff" d="M0 0h50v50H0z"/>
    </clipPath>
  </defs>
</svg>
