<svg xmlns="http://www.w3.org/2000/svg" width="50" height="50" fill="none" viewBox="0 0 50 50">
  <g clip-path="url(#a)">
    <path fill="#FFDA44" d="M0 25c0 3.058.55 5.987 1.555 8.696L25 35.87l23.445-2.174A24.946 24.946 0 0 0 50 25c0-3.058-.55-5.987-1.555-8.696L25 14.131 1.555 16.303A24.946 24.946 0 0 0 0 25Z"/>
    <path fill="#D80027" d="M48.445 16.304C44.912 6.784 35.749 0 25 0 14.25 0 5.087 6.784 1.555 16.304h46.89ZM1.555 33.696C5.087 43.216 14.25 50 25 50s19.912-6.785 23.445-16.304H1.555Z"/>
  </g>
  <defs>
    <clipPath id="a">
      <path fill="#fff" d="M0 0h50v50H0z"/>
    </clipPath>
  </defs>
</svg>
