<svg xmlns="http://www.w3.org/2000/svg" width="50" height="50" fill="none" viewBox="0 0 50 50">
  <g clip-path="url(#a)">
    <path fill="#F0F0F0" d="M25 50c13.807 0 25-11.193 25-25S38.807 0 25 0 0 11.193 0 25s11.193 25 25 25Z"/>
    <path fill="#D80027" d="M19.565 21.74h30.223C48.19 9.472 37.702 0 25 0c-1.867 0-3.685.206-5.435.594V21.74Zm-6.522 0V3.04C6.18 6.785 1.265 13.656.213 21.74h12.832Zm0 6.52H.212c1.053 8.084 5.967 14.955 12.832 18.7v-18.7Zm6.522 0v21.146c1.75.388 3.568.594 5.435.594 12.702 0 23.19-9.473 24.788-21.74H19.565Z"/>
  </g>
  <defs>
    <clipPath id="a">
      <path fill="#fff" d="M0 0h50v50H0z"/>
    </clipPath>
  </defs>
</svg>
