<svg xmlns="http://www.w3.org/2000/svg" width="50" height="50" fill="none" viewBox="0 0 50 50">
  <g clip-path="url(#a)">
    <path fill="#F0F0F0" d="M25 50c13.807 0 25-11.193 25-25S38.807 0 25 0 0 11.193 0 25s11.193 25 25 25Z"/>
    <path fill="#0052B4" d="M25 50c7.577 0 14.367-3.371 18.951-8.696H6.05C10.633 46.63 17.423 50 25 50Zm25-25C50 11.193 38.807 0 25 0S0 11.193 0 25c0 2.256.3 4.442.861 6.522H49.14c.56-2.08.861-4.265.861-6.522Z"/>
    <path fill="#D80027" d="M1.987 34.783a24.895 24.895 0 0 0 1.682 3.26h42.662a25.023 25.023 0 0 0 1.682-3.26H1.987Z"/>
    <path fill="#FFDA44" d="m17.87 26.63.405 1.246h1.31l-1.06.77.405 1.245-1.06-.77-1.06.77.405-1.245-1.06-.77h1.31l.405-1.245Zm0 16.305.405 1.245h1.31l-1.06.77.405 1.246-1.06-.77-1.06.77.405-1.246-1.06-.77h1.31l.405-1.245Zm-7.59-5.515.405 1.246h1.31l-1.06.77.405 1.246-1.06-.77-1.059.77.405-1.246-1.06-.77h1.31l.405-1.245Zm2.9-9.16.404 1.246h1.31l-1.06.77.405 1.246-1.06-.77-1.059.77.405-1.246-1.06-.77h1.31l.405-1.245Zm-4.614 5.13h1.31l.405-1.246.404 1.246h1.31l-1.06.77.405 1.245-1.06-.77-1.059.77.405-1.245-1.06-.77Zm3.554 10.937.405-1.245-1.06-.77h1.31l.405-1.245.404 1.245h1.31l-1.06.77.405 1.246-1.06-.77-1.059.77Zm13.337-6.907-.405 1.246h-1.31l1.06.77-.405 1.246 1.06-.77 1.06.77-.405-1.246 1.059-.77h-1.31l-.404-1.245Zm-2.899-9.16-.405 1.246h-1.31l1.06.77-.405 1.246 1.06-.77 1.06.77-.405-1.246 1.06-.77h-1.31l-.405-1.245Zm4.613 5.13h-1.31l-.404-1.246-.405 1.246h-1.31l1.06.77-.405 1.245 1.06-.77 1.06.77-.405-1.245 1.059-.77Zm-3.554 10.937-.404-1.245 1.06-.77h-1.31l-.405-1.245-.405 1.245h-1.31l1.06.77-.405 1.246 1.06-.77 1.06.77Z"/>
  </g>
  <defs>
    <clipPath id="a">
      <path fill="#fff" d="M0 0h50v50H0z"/>
    </clipPath>
  </defs>
</svg>
