<svg xmlns="http://www.w3.org/2000/svg" width="50" height="50" fill="none" viewBox="0 0 50 50">
  <g clip-path="url(#a)">
    <path fill="#F0F0F0" d="M48.445 33.696A24.946 24.946 0 0 0 50 25c0-3.058-.55-5.987-1.555-8.696L25 14.131 1.555 16.303A24.946 24.946 0 0 0 0 25c0 3.058.55 5.987 1.555 8.696L25 35.87l23.445-2.174Z"/>
    <path fill="#D80027" d="M25 50c10.749 0 19.913-6.784 23.445-16.304H1.555C5.087 43.216 14.25 50 25 50Z"/>
    <path fill="#496E2D" d="M25 0C14.25 0 5.087 6.784 1.555 16.304h46.89C44.913 6.784 35.749 0 25 0Z"/>
    <path fill="#000" d="m25 19.565 1.349 4.152h4.366l-3.532 2.566 1.349 4.152L25 27.869l-3.532 2.566 1.35-4.152-3.532-2.566h4.365l1.35-4.152Z"/>
    <path fill="#F0F0F0" d="M32.427 4.891v5.073a1.45 1.45 0 0 1-1.449 1.449v2.174a3.627 3.627 0 0 0 3.623-3.623V4.89h-2.174ZM16.848 9.964a1.45 1.45 0 0 1-1.45 1.449v2.174a3.627 3.627 0 0 0 3.624-3.623V4.89h-2.174v5.073Z"/>
    <path fill="#F0F0F0" d="M29.166 4.891h2.174v5.073h-2.174V4.89Zm-3.26 2.899a.363.363 0 0 1-.725 0v-2.9h-2.174v2.9a.363.363 0 0 1-.725 0v-2.9h-2.174v2.9a2.539 2.539 0 0 0 2.537 2.536 2.52 2.52 0 0 0 1.449-.457 2.522 2.522 0 0 0 1.77.436 1.45 1.45 0 0 1-1.408 1.108v2.174a3.627 3.627 0 0 0 3.623-3.623V4.89h-2.174v2.9Z"/>
    <path fill="#F0F0F0" d="M20.108 11.413h3.261v2.174h-3.26v-2.174Z"/>
  </g>
  <defs>
    <clipPath id="a">
      <path fill="#fff" d="M0 0h50v50H0z"/>
    </clipPath>
  </defs>
</svg>
