<svg xmlns="http://www.w3.org/2000/svg" width="50" height="50" fill="none" viewBox="0 0 50 50">
  <g clip-path="url(#a)">
    <path fill="#F0F0F0" d="M25 49.999c13.807 0 25-11.193 25-25s-11.193-25-25-25-25 11.193-25 25 11.193 25 25 25Z"/>
    <path fill="#D80027" d="M33.695 25c0 2.173-3.893 7.608-8.695 7.608-4.803 0-8.696-5.435-8.696-7.609a8.696 8.696 0 1 1 17.391 0Z"/>
    <path fill="#0052B4" d="M33.695 24.999a8.696 8.696 0 1 1-17.39 0"/>
    <path fill="#000" d="m34.216 32.685 2.306-2.305 1.537 1.537-2.306 2.305-1.537-1.537Zm-3.843 3.843 2.305-2.306 1.537 1.537-2.306 2.306-1.536-1.537Zm8.455.768 2.305-2.306 1.537 1.538-2.305 2.305-1.537-1.537Zm-3.844 3.844 2.305-2.306 1.537 1.537-2.305 2.305-1.537-1.537Zm1.538-6.149 2.305-2.305 1.537 1.536-2.305 2.306-1.537-1.537Zm-3.842 3.842 2.305-2.305 1.537 1.537-2.306 2.305-1.537-1.537Zm6.158-21.516-6.148-6.148 1.537-1.537 6.148 6.148-1.537 1.537Zm-6.15-1.537-2.305-2.305 1.537-1.537 2.305 2.306-1.537 1.537Zm3.843 3.844-2.305-2.305 1.537-1.537 2.305 2.305-1.537 1.537Zm.768-8.455-2.306-2.305 1.537-1.537 2.306 2.305-1.537 1.537Zm3.845 3.844-2.306-2.306 1.537-1.537 2.306 2.306-1.537 1.537ZM8.863 34.987l6.148 6.147-1.537 1.537-6.148-6.148 1.537-1.536Zm6.147 1.535 2.306 2.306-1.537 1.536-2.306-2.305 1.537-1.537Zm-3.842-3.842 2.305 2.306-1.537 1.537-2.305-2.305 1.537-1.537Zm2.305-2.305 6.148 6.147-1.537 1.537-6.148-6.147 1.537-1.537ZM15.01 8.859l-6.148 6.148-1.537-1.537 6.148-6.148 1.537 1.537Zm2.305 2.305-6.147 6.148-1.537-1.537 6.147-6.148 1.537 1.537Zm2.308 2.306-6.148 6.149-1.537-1.537 6.148-6.148 1.537 1.537Z"/>
  </g>
  <defs>
    <clipPath id="a">
      <path fill="#fff" d="M0 0h50v50H0z" transform="translate(0 -.001)"/>
    </clipPath>
  </defs>
</svg>
