<svg xmlns="http://www.w3.org/2000/svg" width="50" height="50" fill="none" viewBox="0 0 50 50">
  <g clip-path="url(#a)">
    <path fill="#FFDA44" d="M25 0c13.807 0 25 11.193 25 25S38.807 50 25 50 0 38.807 0 25"/>
    <path fill="#D80027" d="M24.457 11.111h21.332a25.139 25.139 0 0 0-5.077-5.555H24.457v5.555Zm0 11.112h25.389a24.858 24.858 0 0 0-1.27-5.556h-24.12v5.555ZM1.425 33.334h47.15a24.86 24.86 0 0 0 1.27-5.556H.156a24.842 24.842 0 0 0 1.27 5.556Zm7.863 11.11h31.424a25.142 25.142 0 0 0 5.077-5.555H4.21a25.14 25.14 0 0 0 5.077 5.555Z"/>
    <path fill="#4A1F63" d="M25 0C11.193 0 0 11.193 0 25h25V0Z"/>
    <path fill="#F0F0F0" d="M20.652 13.044v2.173h-1.087v-2.173h-2.174v2.173h-1.086V10.87h-4.348v4.348H10.87v-2.174H8.696v2.173H7.609v-2.173H5.435v6.521h17.391v-6.521h-2.174Z"/>
  </g>
  <defs>
    <clipPath id="a">
      <path fill="#fff" d="M0 0h50v50H0z"/>
    </clipPath>
  </defs>
</svg>
