<svg xmlns="http://www.w3.org/2000/svg" width="50" height="50" fill="none" viewBox="0 0 50 50">
  <g clip-path="url(#a)">
    <path fill="#D80027" d="M10.91 45.652A24.883 24.883 0 0 0 25 50a24.883 24.883 0 0 0 14.09-4.348L25 43.478l-14.09 2.174ZM39.09 4.348A24.883 24.883 0 0 0 25 0a24.883 24.883 0 0 0-14.09 4.348L25 6.522l14.09-2.174Z"/>
    <path fill="#0052B4" d="M50 25c0-8.272-4.953-16.58-10.91-20.652H10.91C4.323 8.85 0 16.42 0 25c0 8.58 4.323 16.15 10.91 20.652h28.18C45.677 41.15 50 33.58 50 25Z"/>
    <path fill="#D80027" d="M23.585 40.781c-.341-.293-8.368-7.27-8.368-15.781 0-8.51 8.027-15.488 8.368-15.781L25 8.006l1.415 1.213c.341.293 8.367 7.27 8.367 15.781 0 8.51-8.026 15.488-8.367 15.781L25 41.994l-1.415-1.213Z"/>
    <path fill="#338AF3" d="M32.609 25c0-7.609-7.609-14.13-7.609-14.13S17.391 17.392 17.391 25c0 2.328.713 4.553 1.701 6.522h11.816c.988-1.969 1.7-4.194 1.7-6.522Z"/>
    <path fill="#0052B4" d="M32.609 25c0 2.328-.713 4.553-1.701 6.522L25 32.609l-5.908-1.087c-.988-1.969-1.7-4.194-1.7-6.522h15.217Z"/>
    <path fill="#FFDA44" d="M25 39.13s3.665-3.142 5.907-7.608H19.093C21.335 35.988 25 39.13 25 39.13Z"/>
    <path fill="#6DA544" d="M20.109 20.652h9.782L25 25.543l-4.891-4.89Z"/>
    <path fill="#A2001D" d="M23.37 23.913h3.26v9.783h-3.26v-9.783Z"/>
  </g>
  <defs>
    <clipPath id="a">
      <path fill="#fff" d="M0 0h50v50H0z"/>
    </clipPath>
  </defs>
</svg>
