<svg xmlns="http://www.w3.org/2000/svg" width="50" height="50" fill="none" viewBox="0 0 50 50">
  <g clip-path="url(#a)">
    <path fill="#FCFCFC" d="M25 50c13.807 0 25-11.193 25-25S38.807 0 25 0 0 11.193 0 25s11.193 25 25 25Z"/>
    <path fill="#D80027" d="M32.608 20.652v2.174h2.984a13.104 13.104 0 0 1-4.83 4.095 2.718 2.718 0 0 0-4.609 1.29 13.157 13.157 0 0 1-2.306-.001 2.718 2.718 0 0 0-4.61-1.29 13.104 13.104 0 0 1-4.83-4.094h2.984v-2.174H9.782c0 8.404 6.813 15.218 15.218 15.218 8.404 0 15.217-6.814 15.217-15.218h-7.609Z"/>
  </g>
  <defs>
    <clipPath id="a">
      <path fill="#fff" d="M0 0h50v50H0z"/>
    </clipPath>
  </defs>
</svg>
