<svg xmlns="http://www.w3.org/2000/svg" width="50" height="50" fill="none" viewBox="0 0 50 50">
  <g clip-path="url(#a)">
    <path fill="#F0F0F0" d="M25 50c13.807 0 25-11.193 25-25S38.807 0 25 0 0 11.193 0 25s11.193 25 25 25Z"/>
    <path fill="#D80027" d="M49.999 24.928h-27.1c-5.381 5.38-8.635 9.534-11.957 12.857l14.13 1.273L47 36.884c1.914-3.535 3-7.582 3-11.884v-.072Z"/>
    <path fill="#FFDA44" d="M10.942 12.971H46.92C42.668 5.24 34.446 0 25 0A24.917 24.917 0 0 0 7.36 7.287l3.582 5.684Z"/>
    <path fill="#0052B4" d="M12.029 36.884c-2.248 2.248-3.116 4.13-4.742 5.757A24.92 24.92 0 0 0 25 50c9.505 0 17.771-5.305 22-13.116H12.029Z"/>
    <path fill="#6DA544" d="M7.322 7.25c-9.763 9.763-9.763 25.592 0 35.355L25 24.928 7.322 7.25Z"/>
    <path fill="#F0F0F0" d="M6.594 24.928a7.61 7.61 0 0 1 5.978-7.432 7.609 7.609 0 1 0 0 14.864 7.61 7.61 0 0 1-5.978-7.432Z"/>
    <path fill="#F0F0F0" d="m12.489 18.406.404 1.245h1.31l-1.06.77.405 1.246-1.06-.77-1.059.77.405-1.246-1.06-.77h1.31l.405-1.245Zm0 3.261.404 1.245h1.31l-1.06.77.405 1.246-1.06-.77-1.059.77.405-1.246-1.06-.77h1.31l.405-1.245Zm0 3.261.404 1.245h1.31l-1.06.77.405 1.245-1.06-.77-1.059.77.405-1.245-1.06-.77h1.31l.405-1.245Zm0 3.261.404 1.245h1.31l-1.06.77.405 1.245-1.06-.77-1.059.77.405-1.245-1.06-.77h1.31l.405-1.245Z"/>
  </g>
  <defs>
    <clipPath id="a">
      <path fill="#fff" d="M0 0h50v50H0z"/>
    </clipPath>
  </defs>
</svg>
