<svg xmlns="http://www.w3.org/2000/svg" width="50" height="50" fill="none" viewBox="0 0 50 50">
  <g clip-path="url(#a)">
    <path fill="#F0F0F0" d="M25 49.999c13.807 0 25-11.193 25-25s-11.193-25-25-25-25 11.193-25 25 11.193 25 25 25Z"/>
    <path fill="#D80027" d="M23.913 24.999H50a25 25 0 0 0-.861-6.522H23.913V25Zm0-13.044h22.418a25.131 25.131 0 0 0-5.769-6.521H23.913v6.521ZM25 49.999a24.893 24.893 0 0 0 15.562-5.435H9.438A24.893 24.893 0 0 0 25 49.999ZM3.67 38.042h42.66a24.846 24.846 0 0 0 2.809-6.522H.86a24.851 24.851 0 0 0 2.808 6.522Z"/>
    <path fill="#0052B4" d="M11.58 3.903h2.279l-2.12 1.54.81 2.49-2.119-1.539-2.12 1.54.7-2.152a25.138 25.138 0 0 0-4.849 5.404h.73l-1.349.98c-.21.35-.411.707-.604 1.068l.644 1.982-1.202-.873c-.299.633-.572 1.28-.818 1.941l.71 2.184h2.62l-2.12 1.54.81 2.491-2.12-1.54-1.269.923A25.242 25.242 0 0 0 0 24.999h25v-25a24.881 24.881 0 0 0-13.42 3.904Zm.97 18.597-2.119-1.54-2.12 1.54.81-2.491-2.119-1.54h2.62l.809-2.49.81 2.49h2.619l-2.12 1.54.81 2.491Zm-.81-9.774.81 2.491-2.119-1.54-2.12 1.54.81-2.49-2.119-1.54h2.62l.809-2.491.81 2.49h2.619l-2.12 1.54Zm9.777 9.774-2.119-1.54-2.119 1.54.81-2.491-2.12-1.54h2.62l.81-2.49.809 2.49h2.62l-2.12 1.54.81 2.491Zm-.81-9.774.81 2.491-2.119-1.54-2.119 1.54.81-2.49-2.12-1.54h2.62l.81-2.491.809 2.49h2.62l-2.12 1.54Zm0-7.282.81 2.49-2.119-1.539-2.119 1.54.81-2.491-2.12-1.54h2.62l.81-2.491.809 2.491h2.62l-2.12 1.54Z"/>
  </g>
  <defs>
    <clipPath id="a">
      <path fill="#fff" d="M0 0h50v50H0z" transform="translate(0 -.001)"/>
    </clipPath>
  </defs>
</svg>
