<svg xmlns="http://www.w3.org/2000/svg" width="50" height="50" fill="none" viewBox="0 0 50 50">
  <g clip-path="url(#a)">
    <path fill="#F0F0F0" d="M25 50.001c13.807 0 25-11.193 25-25s-11.193-25-25-25-25 11.193-25 25 11.193 25 25 25Z"/>
    <path fill="#0052B4" d="M25 50.001c13.807 0 25-11.193 25-25 0-3.058-.55-5.987-1.555-8.696H1.555A24.946 24.946 0 0 0 0 25.001c0 13.807 11.193 25 25 25Z"/>
    <path fill="#D80027" d="M25 50c10.75 0 19.913-6.783 23.445-16.303H1.555C5.087 43.216 14.25 50 25 50Z"/>
    <path fill="#F0F0F0" d="M6.465 14.132v12.47c0 7.095 9.267 9.269 9.267 9.269S25 33.697 25 26.603V14.13H6.465Z"/>
    <path fill="#D80027" d="M8.639 14.132v12.47c0 .834.185 1.62.55 2.357h13.086a5.23 5.23 0 0 0 .551-2.356V14.13H8.639Z"/>
    <path fill="#F0F0F0" d="M20.08 22.827h-3.26v-2.174h2.173V18.48H16.82v-2.174h-2.173v2.174h-2.174v2.174h2.174v2.174h-3.262v2.174h3.261v2.174h2.174V25h3.261v-2.174Z"/>
    <path fill="#0052B4" d="M12.155 31.994c1.401.88 2.84 1.392 3.577 1.619.737-.227 2.176-.739 3.577-1.619 1.413-.888 2.403-1.903 2.966-3.035a3.787 3.787 0 0 0-3.06-.597 3.805 3.805 0 0 0-6.966 0 3.786 3.786 0 0 0-3.06.598c.563 1.13 1.553 2.146 2.966 3.034Z"/>
  </g>
  <defs>
    <clipPath id="a">
      <path fill="#fff" d="M0 0h50v50H0z" transform="translate(0 .001)"/>
    </clipPath>
  </defs>
</svg>
