<svg xmlns="http://www.w3.org/2000/svg" width="50" height="51" fill="none" viewBox="0 0 50 51">
  <g clip-path="url(#a)">
    <path fill="#F0F0F0" d="M25 50.99c13.807 0 25-11.194 25-25 0-13.808-11.193-25-25-25s-25 11.192-25 25c0 13.806 11.193 25 25 25Z"/>
    <path fill="#496E2D" d="M29.891 50.51c9.883-1.961 17.669-9.746 19.63-19.63H29.89v19.63ZM.48 30.88c1.96 9.884 9.745 17.669 19.629 19.63V30.88H.479Zm49.04-9.782C47.56 11.215 39.774 3.43 29.891 1.469v19.629h19.63ZM20.109 1.469C10.225 3.429 2.44 11.215.479 21.098h19.63V1.469Z"/>
    <path fill="#FFDA44" d="M23.37 30.88h-3.261v19.63c1.064.21 2.152.354 3.26.425V30.88Zm0-9.782V1.044a25.011 25.011 0 0 0-3.261.425v19.629h3.26Z"/>
    <path fill="#000" d="M26.63 1.044A25.256 25.256 0 0 0 25 .989c-.548 0-1.091.02-1.63.055v20.054h3.26V1.044Zm-3.26 49.891c.539.035 1.082.054 1.63.054a25.3 25.3 0 0 0 1.63-.054V30.88h-3.26v20.054Z"/>
    <path fill="#FFDA44" d="M20.109 24.359v-3.261H.479a25.001 25.001 0 0 0-.425 3.26H20.11Zm9.782 0h20.055a25.026 25.026 0 0 0-.426-3.261H29.891v3.26Z"/>
    <path fill="#000" d="M29.891 27.62h20.055c.035-.54.054-1.083.054-1.63a25.3 25.3 0 0 0-.054-1.631H29.89v3.26ZM.054 24.359A25.845 25.845 0 0 0 0 25.989c0 .548.02 1.092.054 1.63H20.11v-3.26H.054Z"/>
    <path fill="#D80027" d="M25 37.946c6.603 0 11.956-5.353 11.956-11.957 0-6.603-5.353-11.956-11.956-11.956s-11.957 5.353-11.957 11.956c0 6.604 5.354 11.957 11.957 11.957Z"/>
    <path fill="#496E2D" d="M27.724 27.323c-.89-1.778-2.045-3.581-2.045-3.581s.028-.82.028-1.31a1.334 1.334 0 0 0-2.662-.115 1.052 1.052 0 0 0-.417 1.982c.167-.391.495-.697.9-.836.066.054.137.102.212.143l.171.082s-.634 1.786-.634 2.746c0 2.698 1.78 3.53 1.78 3.53v.027l-.89.89h1.778V29.1l.89.89c.008-.016 1.684-1.077.889-2.668ZM25 16.207l.405 1.245h1.31l-1.06.77.405 1.245-1.06-.77-1.06.77.405-1.245-1.06-.77h1.31L25 16.207Zm-5.75 1.868 1.06.77 1.059-.77-.405 1.246 1.06.77h-1.31l-.405 1.245-.404-1.246h-1.31l1.06-.77-.405-1.245Zm-3.554 4.891h1.31l.404-1.245.405 1.245h1.31l-1.06.77.405 1.246-1.06-.77-1.059.77.405-1.246-1.06-.77Zm0 6.046 1.06-.77-.405-1.245 1.06.77 1.059-.77-.405 1.245 1.06.77h-1.31l-.405 1.246-.404-1.246h-1.31Zm3.554 4.892.404-1.246-1.059-.77h1.31l.404-1.245.405 1.245h1.31l-1.06.77.405 1.246-1.06-.77-1.059.77ZM25 35.772l-.405-1.245h-1.31l1.06-.77-.404-1.246 1.059.77 1.06-.77-.405 1.246 1.06.77h-1.31L25 35.772Zm5.75-1.868-1.06-.77-1.059.77.405-1.246-1.06-.77h1.31l.404-1.245.405 1.245h1.31l-1.06.77.405 1.245Zm3.554-4.892h-1.31l-.404 1.246-.405-1.246h-1.31l1.06-.77-.405-1.245 1.06.77 1.059-.77-.404 1.246 1.059.77Zm0-6.046-1.06.77.405 1.245-1.06-.77-1.059.77.405-1.245-1.06-.77h1.31l.404-1.245.405 1.245h1.31Zm-3.554-4.891-.405 1.245 1.06.77h-1.31l-.404 1.246-.405-1.246h-1.31l1.06-.77-.405-1.245 1.06.77 1.059-.77Z"/>
  </g>
  <defs>
    <clipPath id="a">
      <path fill="#fff" d="M0 0h50v50H0z" transform="translate(0 .99)"/>
    </clipPath>
  </defs>
</svg>
