<svg xmlns="http://www.w3.org/2000/svg" width="50" height="50" fill="none" viewBox="0 0 50 50">
  <g clip-path="url(#a)">
    <path fill="#F0F0F0" d="M25 50c3.058 0 5.987-.55 8.696-1.555L34.783 25 33.695 1.555A24.947 24.947 0 0 0 25 0c-3.058 0-5.988.55-8.696 1.555L15.217 25l1.087 23.445A24.944 24.944 0 0 0 25 50Z"/>
    <path fill="#FF9811" d="M0 25c0 10.75 6.784 19.913 16.304 23.445V1.555C6.784 5.088 0 14.251 0 25Z"/>
    <path fill="#6DA544" d="M33.696 1.555v46.89C43.216 44.913 50 35.75 50 25S43.216 5.087 33.696 1.555Z"/>
  </g>
  <defs>
    <clipPath id="a">
      <path fill="#fff" d="M0 0h50v50H0z"/>
    </clipPath>
  </defs>
</svg>
