<svg xmlns="http://www.w3.org/2000/svg" width="50" height="50" fill="none" viewBox="0 0 50 50">
  <g clip-path="url(#a)">
    <path fill="#D80027" d="M25 50c13.807 0 25-11.193 25-25S38.807 0 25 0 0 11.193 0 25s11.193 25 25 25Z"/>
    <path fill="#FFDA44" d="m13.682 15.215 2.158 6.64h6.982l-5.644 4.112 2.158 6.64-5.654-4.101-5.655 4.101 2.168-6.64-5.654-4.111h6.982l2.159-6.641ZM29.639 38.72l-1.65-2.03-2.442.947 1.416-2.197-1.65-2.042 2.529.674 1.426-2.197.136 2.617 2.54.674-2.452.938.147 2.617Zm3.281-5.956.781-2.5-2.139-1.514 2.618-.04.771-2.5.85 2.481 2.617-.029-2.1 1.563.84 2.48-2.139-1.514-2.1 1.573Zm4.424-14.414-1.153 2.353 1.875 1.826-2.588-.37-1.152 2.343-.449-2.578-2.598-.371 2.324-1.221-.449-2.588 1.875 1.826 2.315-1.22Zm-7.637-7.13-.195 2.608 2.431.987-2.549.625-.185 2.617-1.377-2.227-2.549.625 1.69-2.002-1.387-2.217 2.432.987 1.689-2.002Z"/>
  </g>
  <defs>
    <clipPath id="a">
      <path fill="#fff" d="M0 0h50v50H0z"/>
    </clipPath>
  </defs>
</svg>
