<svg xmlns="http://www.w3.org/2000/svg" width="50" height="50" fill="none" viewBox="0 0 50 50">
  <g clip-path="url(#a)">
    <path fill="#F0F0F0" d="M25 50c13.807 0 25-11.193 25-25S38.807 0 25 0 0 11.193 0 25s11.193 25 25 25Z"/>
    <path fill="#D80027" d="M44.834 40.222 29.612 25 44.834 9.778a25.267 25.267 0 0 0-4.612-4.612L25 20.388 9.778 5.166a25.237 25.237 0 0 0-4.612 4.612L20.39 25 5.166 40.222a25.264 25.264 0 0 0 4.612 4.612L25 29.61l15.222 15.223a25.25 25.25 0 0 0 4.612-4.612Z"/>
    <path fill="#FFDA44" d="M20.652 7.609 25 8.696l4.348-1.087V3.913l-1.74.87L25 2.173l-2.609 2.61-1.739-.87v3.696Z"/>
    <path fill="#D80027" d="M20.652 7.609v2.717c0 3.329 4.348 4.348 4.348 4.348s4.348-1.02 4.348-4.348V7.61h-8.696Z"/>
  </g>
  <defs>
    <clipPath id="a">
      <path fill="#fff" d="M0 0h50v50H0z"/>
    </clipPath>
  </defs>
</svg>
