<svg xmlns="http://www.w3.org/2000/svg" width="50" height="50" fill="none" viewBox="0 0 50 50">
  <g clip-path="url(#a)">
    <path fill="#F0F0F0" d="M25 50c13.807 0 25-11.193 25-25S38.807 0 25 0 0 11.193 0 25s11.193 25 25 25Z"/>
    <path fill="#D80027" d="M.861 31.522a25.045 25.045 0 0 0 17.617 17.617V31.522H.861Z"/>
    <path fill="#0052B4" d="M18.478.861A25.045 25.045 0 0 0 .861 18.478h17.617V.861Z"/>
    <path fill="#D80027" d="M49.139 18.478C46.83 9.913 40.086 3.17 31.522.861v17.617h17.617Z"/>
    <path fill="#0052B4" d="M31.522 49.139c8.565-2.309 15.309-9.053 17.617-17.617H31.522v17.617Z"/>
    <path fill="#496E2D" d="M31.522 25a6.522 6.522 0 1 1-13.044 0c0-3.602 6.522-6.522 6.522-6.522s6.522 2.92 6.522 6.522Z"/>
    <path fill="#0052B4" d="M18.478 25a6.522 6.522 0 1 1 13.044 0"/>
    <path fill="#D80027" d="M21.331 21.74v4.075a3.668 3.668 0 1 0 7.338 0V21.74H21.33Z"/>
  </g>
  <defs>
    <clipPath id="a">
      <path fill="#fff" d="M0 0h50v50H0z"/>
    </clipPath>
  </defs>
</svg>
