<svg xmlns="http://www.w3.org/2000/svg" width="50" height="50" fill="none" viewBox="0 0 50 50">
  <g clip-path="url(#a)">
    <path fill="#F0F0F0" d="M25 50c13.807 0 25-11.193 25-25S38.807 0 25 0 0 11.193 0 25s11.193 25 25 25Z"/>
    <path fill="#A2001D" d="M25 0C14.251 0 5.087 6.784 1.555 16.304h46.89C44.913 6.784 35.75 0 25 0Z"/>
    <path fill="#000" d="M25 50c10.75 0 19.913-6.784 23.445-16.304H1.555C5.088 43.216 14.251 50 25 50Z"/>
    <path fill="#496E2D" d="M19.022 23.37h-4.82a2.176 2.176 0 0 1 2.103-1.631v-3.261a5.441 5.441 0 0 0-5.435 5.435v2.717h8.152c.3 0 .543.244.543.544v1.087H8.695v3.26h14.131v-4.347a3.809 3.809 0 0 0-3.804-3.805Zm8.152 4.89v-9.782h-3.26v13.044h5.434V28.26h-2.174Zm10.87 0v-9.782h-3.261v9.783h-1.087V25h-3.26v6.522h9.782V28.26h-2.174Z"/>
  </g>
  <defs>
    <clipPath id="a">
      <path fill="#fff" d="M0 0h50v50H0z"/>
    </clipPath>
  </defs>
</svg>
