<svg xmlns="http://www.w3.org/2000/svg" width="50" height="50" fill="none" viewBox="0 0 50 50">
  <g clip-path="url(#a)">
    <path fill="#0052B4" d="M50 25c0 13.807-11.193 25-25 25S0 38.807 0 25C0 25.006 25 .003 25 0c13.807 0 25 11.193 25 25Z"/>
    <path fill="#F0F0F0" d="M24.933 25H25v-.067l-.067.067Z"/>
    <path fill="#F0F0F0" d="M25 13.043V0h-.004C11.19.002 0 11.194 0 25h13.043v-7.345L20.389 25h4.545l.067-.067V20.39l-7.345-7.345H25Z"/>
    <path fill="#D80027" d="M12.648 3.26a25.118 25.118 0 0 0-9.387 9.388V25h6.522V9.783H25V3.26H12.648Z"/>
    <path fill="#D80027" d="m25 21.926-8.882-8.882h-3.074L25 25v-3.074Z"/>
    <path fill="#F0F0F0" d="m33.696 25 .462 1.423h1.497l-1.21.88.462 1.424-1.211-.88-1.211.88.462-1.424-1.21-.88h1.496L33.696 25Zm-6.149 2.547 1.333.68 1.059-1.059-.234 1.478 1.333.68-1.478.234-.234 1.478-.68-1.333-1.478.234 1.059-1.058-.68-1.334ZM25 33.696l1.423-.463v-1.496l.88 1.21 1.424-.462-.88 1.21.88 1.212-1.424-.463-.88 1.21v-1.496L25 33.696Zm2.547 6.148.68-1.333-1.059-1.059 1.478.235.68-1.334.234 1.478 1.478.234-1.333.68.234 1.478-1.059-1.058-1.333.68Zm6.149 2.547-.463-1.423h-1.497l1.211-.88-.462-1.423 1.21.88 1.212-.88-.463 1.423 1.21.88h-1.496l-.462 1.423Zm6.148-2.547-1.333-.679-1.059 1.058.235-1.478-1.334-.68 1.478-.234.234-1.478.68 1.334 1.478-.234-1.058 1.058.68 1.333Zm2.547-6.148-1.423.462v1.497l-.88-1.21-1.423.462.88-1.211-.88-1.211 1.423.462.88-1.21v1.496l1.423.463Zm-2.547-6.149-.679 1.334 1.058 1.058-1.478-.234-.68 1.333-.234-1.478-1.478-.234 1.334-.68-.234-1.478 1.058 1.058 1.333-.679Z"/>
  </g>
  <defs>
    <clipPath id="a">
      <path fill="#fff" d="M0 0h50v50H0z"/>
    </clipPath>
  </defs>
</svg>
