<svg xmlns="http://www.w3.org/2000/svg" width="50" height="51" fill="none" viewBox="0 0 50 51">
  <g clip-path="url(#a)">
    <path fill="#F0F0F0" d="M25 50.99c13.807 0 25-11.194 25-25 0-13.808-11.193-25-25-25s-25 11.192-25 25c0 13.806 11.193 25 25 25Z"/>
    <path fill="#D80027" d="M49.788 22.728H28.261V1.201a25.247 25.247 0 0 0-6.522 0v21.527H.212a25.248 25.248 0 0 0 0 6.522h21.527v21.528a25.241 25.241 0 0 0 6.522 0V29.25h21.527a25.262 25.262 0 0 0 0-6.522Z"/>
    <path fill="#FFDA44" d="m32.065 27.076 1.63 1.087v-4.348l-1.63 1.087h-5.978v-5.978l1.087-1.63h-4.348l1.087 1.63v5.978h-5.978l-1.63-1.087v4.348l1.63-1.087h5.978v5.978l-1.087 1.63h4.348l-1.087-1.63v-5.978h5.978Z"/>
  </g>
  <defs>
    <clipPath id="a">
      <path fill="#fff" d="M0 0h50v50H0z" transform="translate(0 .99)"/>
    </clipPath>
  </defs>
</svg>
