<svg xmlns="http://www.w3.org/2000/svg" width="50" height="50" fill="none" viewBox="0 0 50 50">
  <g clip-path="url(#a)">
    <path fill="#F0F0F0" d="M13.537 2.776A24.985 24.985 0 0 0 7.322 7.32a24.982 24.982 0 0 0-4.546 6.216l16.075 17.612 17.613 16.075a24.984 24.984 0 0 0 6.215-4.546 24.983 24.983 0 0 0 4.545-6.215L31.15 18.851 13.537 2.776Z"/>
    <path fill="#000" d="M42.678 42.678a25.143 25.143 0 0 0 2.807-3.341L10.663 4.514a25.143 25.143 0 0 0-6.15 6.15l34.823 34.822a25.141 25.141 0 0 0 3.342-2.807Z"/>
    <path fill="#D80027" d="M7.321 42.678c7.888 7.888 19.733 9.402 29.142 4.546L2.776 13.537C-2.08 22.945-.566 34.79 7.321 42.678ZM42.679 7.321C34.79-.566 22.946-2.08 13.537 2.776l33.687 33.687c4.856-9.409 3.342-21.254-4.545-29.142Z"/>
  </g>
  <defs>
    <clipPath id="a">
      <path fill="#fff" d="M0 0h50v50H0z"/>
    </clipPath>
  </defs>
</svg>
