<svg xmlns="http://www.w3.org/2000/svg" width="50" height="50" fill="none" viewBox="0 0 50 50">
  <g clip-path="url(#a)">
    <path fill="#F0F0F0" d="M25 50c13.807 0 25-11.193 25-25S38.807 0 25 0 0 11.193 0 25s11.193 25 25 25Z"/>
    <path fill="#F0F0F0" d="M5.714 9.09h38.572a25.138 25.138 0 0 0-4.91-4.545H10.624a25.132 25.132 0 0 0-4.91 4.546ZM0 25c0 .767.036 1.524.104 2.273h49.792c.068-.749.104-1.506.104-2.273a25.3 25.3 0 0 0-.104-2.273H.104A25.307 25.307 0 0 0 0 25Zm2.726 11.364h44.548a24.837 24.837 0 0 0 1.785-4.546H.94a24.835 24.835 0 0 0 1.785 4.546Zm7.898 9.091h28.752a25.137 25.137 0 0 0 4.91-4.546H5.713a25.147 25.147 0 0 0 4.91 4.546ZM.941 18.182H49.06a24.84 24.84 0 0 0-1.785-4.546H2.726a24.84 24.84 0 0 0-1.785 4.546Z"/>
    <path fill="#D80027" d="M11.957 4.545h27.419A24.885 24.885 0 0 0 25 0c-3.26 0-8.977 1.682-13.043 4.545Zm11.956 9.091h23.36a25.025 25.025 0 0 0-2.988-4.545H23.913v4.545Zm0 9.091h25.983a24.91 24.91 0 0 0-.837-4.545H23.913v4.546ZM.941 31.818H49.06a24.94 24.94 0 0 0 .837-4.545H.104c.14 1.56.423 3.08.837 4.545Zm4.773 9.092h38.572a25.047 25.047 0 0 0 2.988-4.546H2.726a25.032 25.032 0 0 0 2.988 4.545ZM25 50c5.351 0 10.31-1.682 14.376-4.545H10.624A24.885 24.885 0 0 0 25 50Z"/>
    <path fill="#0052B4" d="M.941 18.182a24.91 24.91 0 0 0-.837 4.545H25V0C13.557 0 3.91 7.689.941 18.182Z"/>
    <path fill="#F0F0F0" d="m14.882 6.522 1.618 4.982h5.24l-4.239 3.08 1.619 4.981-4.238-3.079-4.239 3.08 1.62-4.983-4.239-3.08h5.239l1.619-4.981Z"/>
  </g>
  <defs>
    <clipPath id="a">
      <path fill="#fff" d="M0 0h50v50H0z"/>
    </clipPath>
  </defs>
</svg>
