<svg xmlns="http://www.w3.org/2000/svg" width="50" height="50" fill="none" viewBox="0 0 50 50">
  <g clip-path="url(#a)">
    <path fill="#0052B4" d="M50 25c0 13.807-11.193 25-25 25S0 38.807 0 25C0 25.006 25 .003 25 0c13.807 0 25 11.193 25 25Z"/>
    <path fill="#F0F0F0" d="M24.933 25H25v-.067l-.067.067Z"/>
    <path fill="#F0F0F0" d="M25 13.043V0h-.004C11.19.002 0 11.194 0 25h13.043v-7.345L20.389 25h4.545l.067-.067V20.39l-7.345-7.345H25Z"/>
    <path fill="#D80027" d="M12.648 3.26a25.118 25.118 0 0 0-9.387 9.388V25h6.522V9.783H25V3.26H12.648Z"/>
    <path fill="#D80027" d="m25 21.926-8.882-8.882h-3.074L25 25v-3.074Z"/>
    <path fill="#ACABB1" d="m39.13 15.217-3.26 1.087-3.261-1.087-1.087-2.717 1.087-2.717h6.522L38.044 12.5l1.087 2.717Z"/>
    <path fill="#338AF3" d="M28.26 15.217v11.957c0 5.824 7.61 7.609 7.61 7.609s7.608-1.785 7.608-7.61V15.218H28.261Z"/>
    <path fill="#6DA544" d="M28.947 30.006c1.87 3.591 6.923 4.777 6.923 4.777s5.052-1.186 6.922-4.777L35.87 18.478l-6.923 11.528Z"/>
    <path fill="#FFDA44" d="M43.478 27.053 35.87 15.217l-7.608 11.836v.12c0 1.079.26 2.018.686 2.834l6.922-10.77 6.923 10.77a6.047 6.047 0 0 0 .686-2.833v-.12Z"/>
  </g>
  <defs>
    <clipPath id="a">
      <path fill="#fff" d="M0 0h50v50H0z"/>
    </clipPath>
  </defs>
</svg>
