<svg xmlns="http://www.w3.org/2000/svg" width="50" height="50" fill="none" viewBox="0 0 50 50">
  <g clip-path="url(#a)">
    <path fill="#F0F0F0" d="M25 0c13.807 0 25 11.193 25 25S38.807 50 25 50c0-1.087-3.26-25-3.26-25L25 0Z"/>
    <path fill="#FFDA44" d="M25 50C11.193 50 0 38.807 0 25S11.193 0 25 0"/>
    <path fill="#ACABB1" d="m34.573 21.754 4.699 6.216a3.262 3.262 0 1 0 1.734-1.311l-7.323-9.687-1.734 1.311-2.601 1.966 2.622 3.469 2.603-1.964Zm6.764 7.146a1.087 1.087 0 1 1 1.311 1.734 1.087 1.087 0 0 1-1.31-1.734Z"/>
    <path fill="#FFDA44" d="m42.632 23.718 2.622-3.468-2.602-1.967-1.734-1.31-7.322 9.686a3.262 3.262 0 1 0 1.734 1.31l4.698-6.215 2.604 1.964Zm-9.156 6.705a1.087 1.087 0 1 1-1.734-1.311 1.087 1.087 0 0 1 1.734 1.31Z"/>
  </g>
  <defs>
    <clipPath id="a">
      <path fill="#fff" d="M0 0h50v50H0z"/>
    </clipPath>
  </defs>
</svg>
