<svg xmlns="http://www.w3.org/2000/svg" width="50" height="50" fill="none" viewBox="0 0 50 50">
  <g clip-path="url(#a)">
    <path fill="#D80027" d="M25 50c13.807 0 25-11.193 25-25S38.807 0 25 0 0 11.193 0 25s11.193 25 25 25Z"/>
    <path fill="#F0F0F0" d="m34.257 16.76-1.767 6.305-5.302-.98-3.413-7.034-9.22 3.272-.726-2.049-2.413-.297 1.818 5.122 6.345-1.623 1.803 5.081-4.386 6.473 7.443 6.348-1.411 1.654.949 2.238 3.527-4.135-4.578-4.683 3.499-4.102 7.799.562L36 19.292l2.138.394 1.464-1.94-5.345-.987Z"/>
  </g>
  <defs>
    <clipPath id="a">
      <path fill="#fff" d="M0 0h50v50H0z"/>
    </clipPath>
  </defs>
</svg>
