<svg xmlns="http://www.w3.org/2000/svg" width="50" height="50" fill="none" viewBox="0 0 50 50">
  <g clip-path="url(#a)">
    <path fill="#D80027" d="M35.87 2.48A24.901 24.901 0 0 0 25 0c-3.895 0-7.583.891-10.87 2.48L11.957 25l2.175 22.52A24.9 24.9 0 0 0 25 50a24.9 24.9 0 0 0 10.87-2.48L38.044 25 35.87 2.48Z"/>
    <path fill="#000" d="M14.13 2.481C5.768 6.525 0 15.088 0 25c0 9.911 5.768 18.475 14.13 22.518V2.481Z"/>
    <path fill="#496E2D" d="M35.87 2.481v45.037C44.232 43.475 50 34.911 50 25c0-9.912-5.768-18.475-14.13-22.519Z"/>
    <path fill="#FFDA44" d="M25 16.304a8.696 8.696 0 1 0 0 17.391 8.696 8.696 0 0 0 0-17.39Zm0 14.13a5.435 5.435 0 1 1 0-10.869 5.435 5.435 0 0 1 0 10.87Z"/>
    <path fill="#FFDA44" d="M25 21.739a2.174 2.174 0 0 0-2.174 2.174v3.26h4.348v-3.26A2.174 2.174 0 0 0 25 21.739Z"/>
  </g>
  <defs>
    <clipPath id="a">
      <path fill="#fff" d="M0 0h50v50H0z"/>
    </clipPath>
  </defs>
</svg>
