<svg xmlns="http://www.w3.org/2000/svg" width="50" height="50" fill="none" viewBox="0 0 50 50">
  <g clip-path="url(#a)">
    <path fill="#338AF3" d="M50 25c0 13.807-11.193 25-25 25S0 38.807 0 25C0 25.006 25 .003 25 0c13.807 0 25 11.193 25 25Z"/>
    <path fill="#0052B4" d="M25 11.957v8.431l-8.696-8.432H25ZM13.043 25h7.345l-7.345-9.783-1.086 7.61L13.043 25Z"/>
    <path fill="#F0F0F0" d="M24.933 25H25v-.067l-.067.067Z"/>
    <path fill="#F0F0F0" d="M25 13.043V0h-.004C11.19.002 0 11.194 0 25h13.043v-7.345L20.389 25h4.545l.067-.067V20.39l-7.345-7.345H25Z"/>
    <path fill="#D80027" d="M12.648 3.26a25.119 25.119 0 0 0-9.387 9.388V25h6.522V9.783H25V3.26H12.648Z"/>
    <path fill="#D80027" d="m25 21.926-8.882-8.882h-3.074L25 25v-3.074Z"/>
    <path fill="#F3F3F3" d="M28.26 16.304V25c0 5.824 7.61 7.609 7.61 7.609s7.608-1.785 7.608-7.61v-8.695l-7.609-2.173-7.608 2.173Z"/>
    <path fill="#D80027" d="M43.478 16.304v-3.26H28.261v3.26h6.521v6.522h-6.521V25h6.521v7.275c.656.232 1.087.334 1.087.334s.431-.101 1.087-.334V25h6.522v-2.174h-6.522v-6.522h6.522Z"/>
  </g>
  <defs>
    <clipPath id="a">
      <path fill="#fff" d="M0 0h50v50H0z"/>
    </clipPath>
  </defs>
</svg>
