<svg xmlns="http://www.w3.org/2000/svg" width="50" height="50" fill="none" viewBox="0 0 50 50">
  <g clip-path="url(#a)">
    <path fill="#0052B4" d="M50 25.001c0 13.807-11.193 25-25 25s-25-11.193-25-25c0 .006 25-24.997 25-25 13.807 0 25 11.193 25 25Z"/>
    <path fill="#F0F0F0" d="M24.933 25.001H25v-.067l-.067.067Z"/>
    <path fill="#F0F0F0" d="M25 13.044V.001h-.004C11.19.003 0 11.195 0 25.001h13.043v-7.345l7.345 7.345h4.545l.067-.067V20.39l-7.345-7.346H25Z"/>
    <path fill="#D80027" d="M12.648 3.262a25.12 25.12 0 0 0-9.387 9.387v12.352h6.522V9.784H25V3.262H12.648Z"/>
    <path fill="#D80027" d="m25 21.927-8.882-8.882h-3.074L25 25v-3.074Z"/>
    <path fill="#FFDA44" d="M40.217 29.349v1.087h-8.695v-1.087H28.26v4.348h2.174v1.087h10.87v-1.087h2.173v-4.348h-3.26Z"/>
    <path fill="#338AF3" d="M28.26 13.044v11.957c0 5.824 7.61 7.609 7.61 7.609s7.608-1.785 7.608-7.609V13.044H28.261Z"/>
    <path fill="#F3F3F3" d="M35.87 21.963c-1.903 0-1.903 1.739-3.805 1.739-1.902 0-1.902-1.74-3.804-1.74v3.044c1.902 0 1.902 1.74 3.804 1.74s1.902-1.74 3.804-1.74 1.902 1.74 3.805 1.74c1.902 0 1.902-1.74 3.804-1.74v-3.043c-1.902 0-1.902 1.739-3.804 1.739-1.903 0-1.903-1.74-3.805-1.74Zm0-6.093c-1.903 0-1.903 1.74-3.805 1.74-1.902 0-1.902-1.74-3.804-1.74v3.044c1.902 0 1.902 1.74 3.804 1.74s1.902-1.74 3.804-1.74 1.902 1.74 3.805 1.74c1.902 0 1.902-1.74 3.804-1.74V15.87c-1.902 0-1.902 1.74-3.804 1.74-1.903 0-1.903-1.74-3.805-1.74Z"/>
  </g>
  <defs>
    <clipPath id="a">
      <path fill="#fff" d="M0 0h50v50H0z" transform="translate(0 .001)"/>
    </clipPath>
  </defs>
</svg>
