<svg xmlns="http://www.w3.org/2000/svg" width="50" height="51" fill="none" viewBox="0 0 50 51">
  <g clip-path="url(#a)">
    <path fill="#F0F0F0" d="M25 50.581c13.807 0 25-11.193 25-25s-11.193-25-25-25-25 11.193-25 25 11.193 25 25 25Z"/>
    <path fill="#338AF3" d="M25 19.06h24.139a24.861 24.861 0 0 0-2.808-6.522H25v6.521ZM9.438 45.146h31.124a25.125 25.125 0 0 0 5.769-6.522H3.669a25.131 25.131 0 0 0 5.769 6.522ZM25 .581v5.435h15.562A24.893 24.893 0 0 0 25 .58Z"/>
    <path fill="#338AF3" d="M25 19.06h24.139a24.861 24.861 0 0 0-2.808-6.522H25v6.521ZM0 25.581c0 2.257.3 4.442.861 6.522H49.14c.56-2.08.861-4.265.861-6.522H0Z"/>
    <path fill="#FFDA44" d="m21.74 15.212-3.054 1.436 1.626 2.957-3.316-.634-.42 3.35-2.309-2.464-2.31 2.463-.42-3.349-3.315.634 1.626-2.957-3.053-1.436 3.053-1.436-1.626-2.957 3.316.634.42-3.349 2.309 2.463 2.31-2.463.42 3.35 3.315-.635-1.626 2.957 3.053 1.436Z"/>
  </g>
  <defs>
    <clipPath id="a">
      <path fill="#fff" d="M0 0h50v50H0z" transform="translate(0 .581)"/>
    </clipPath>
  </defs>
</svg>
