<svg xmlns="http://www.w3.org/2000/svg" width="50" height="51" fill="none" viewBox="0 0 50 51">
  <g clip-path="url(#a)">
    <path fill="#F0F0F0" d="M2.48 14.711A24.901 24.901 0 0 0 0 25.581c0 3.896.891 7.583 2.48 10.87L25 38.624l22.52-2.173A24.9 24.9 0 0 0 50 25.58a24.9 24.9 0 0 0-2.48-10.87L25 12.538 2.48 14.71Z"/>
    <path fill="#6DA544" d="M2.482 36.45C6.525 44.814 15.089 50.582 25 50.582c9.911 0 18.475-5.768 22.519-14.13H2.482Z"/>
    <path fill="#D80027" d="M2.482 14.711h45.037C43.475 6.35 34.91.581 25 .581c-9.911 0-18.475 5.768-22.518 14.13Z"/>
    <path fill="#FFDA44" d="M20.652 32.103h8.696v-3.696l-1.74.87L25 26.668l-2.609 2.609-1.739-.87v3.696Zm-4.975-4.348L16.082 29h1.31l-1.06.77.405 1.246-1.06-.77-1.06.77.405-1.246-1.06-.77h1.31l.405-1.245Zm1.255-4.348.405 1.245h1.31l-1.06.77.404 1.246-1.06-.77-1.059.77.405-1.246-1.06-.77h1.31l.405-1.245Zm3.587-3.261.405 1.246h1.31l-1.06.77.404 1.245-1.06-.77-1.059.77.405-1.245-1.06-.77h1.31l.405-1.246Zm13.804 7.609L33.918 29h-1.31l1.06.77-.404 1.246 1.06-.77 1.059.77-.405-1.246 1.06-.77h-1.31l-.405-1.245Zm-1.255-4.348-.404 1.245h-1.31l1.06.77-.405 1.246 1.06-.77 1.059.77-.405-1.246 1.06-.77h-1.31l-.405-1.245Zm-3.587-3.261-.405 1.246h-1.309l1.06.77-.405 1.245 1.06-.77 1.059.77-.405-1.245 1.06-.77h-1.31l-.405-1.246ZM25 18.516l.405 1.245h1.31l-1.06.77.405 1.245-1.06-.77-1.06.77.405-1.245-1.06-.77h1.31L25 18.516Z"/>
  </g>
  <defs>
    <clipPath id="a">
      <path fill="#fff" d="M0 0h50v50H0z" transform="translate(0 .581)"/>
    </clipPath>
  </defs>
</svg>
