<svg xmlns="http://www.w3.org/2000/svg" width="50" height="51" fill="none" viewBox="0 0 50 51">
  <g clip-path="url(#a)">
    <path fill="#FFDA44" d="M0 25.99c0 3.058.55 5.987 1.555 8.695L25 36.86l23.445-2.174A24.942 24.942 0 0 0 50 25.99a24.95 24.95 0 0 0-1.513-8.584L25 15.12 1.513 17.405A24.95 24.95 0 0 0 0 25.989Z"/>
    <path fill="#D80027" d="M25 50.99c10.75 0 19.913-6.785 23.445-16.305H1.555C5.087 44.205 14.25 50.989 25 50.989Z"/>
    <path fill="#6DA544" d="M25 .99C14.25.99 5.087 7.773 1.555 17.293h46.89C44.913 7.774 35.75.989 25 .989Z"/>
    <path fill="#0052B4" d="M25 37.946c6.603 0 11.956-5.353 11.956-11.957 0-6.603-5.353-11.956-11.956-11.956s-11.957 5.353-11.957 11.956c0 6.604 5.354 11.957 11.957 11.957Z"/>
    <path fill="#FFDA44" d="m24.997 16.73 2.159 6.643h6.996L28.49 27.48l2.175 6.662-5.668-4.125-5.659 4.118 2.167-6.655-5.657-4.106h6.991l2.159-6.642Z"/>
    <path fill="#FFDA44" d="m33.606 27.643-6.847-2.225 4.231-5.825-1.758-1.278L25 24.14l-4.232-5.825-1.759 1.278 4.232 5.825-6.847 2.224.672 2.068 6.847-2.225v7.2h2.174v-7.2l6.847 2.225.672-2.067Z"/>
  </g>
  <defs>
    <clipPath id="a">
      <path fill="#fff" d="M0 0h50v50H0z" transform="translate(0 .99)"/>
    </clipPath>
  </defs>
</svg>
