<svg xmlns="http://www.w3.org/2000/svg" width="50" height="50" fill="none" viewBox="0 0 50 50">
  <g clip-path="url(#a)">
    <path fill="#F0F0F0" d="M25 50c13.807 0 25-11.193 25-25S38.807 0 25 0 0 11.193 0 25s11.193 25 25 25Z"/>
    <path fill="#D80027" d="M0 25c0 9.476 5.272 17.72 13.043 21.96V3.04C5.274 7.28 0 15.524 0 25Z"/>
    <path fill="#0052B4" d="M0 25c0 11.55 7.834 21.27 18.478 24.14V.86C7.834 3.731 0 13.45 0 25.001Z"/>
    <path fill="#D80027" d="M8.967 8.696v4.076a3.668 3.668 0 0 0 7.337 0V8.696H8.967Z"/>
    <path fill="#F0F0F0" d="M12.636 14.266c-.824 0-1.495-.67-1.495-1.494V10.87h2.99v1.902c0 .824-.671 1.494-1.495 1.494Z"/>
    <path fill="#FFDA44" d="M27.174 26.087h-6.522a2.174 2.174 0 0 0-4.348 0H9.782c0 1.2 1.046 2.174 2.247 2.174h-.073c0 1.2.974 2.174 2.174 2.174 0 1.2.973 2.174 2.174 2.174h4.348c1.2 0 2.174-.974 2.174-2.174 1.2 0 2.174-.973 2.174-2.174h-.072c1.2 0 2.246-.973 2.246-2.174Zm.893-3.479-.57.914.692.825-1.045-.26-.571.913-.076-1.075-1.045-.26 1-.404-.076-1.075.693.826.998-.404Zm-3.33-2.794-.224 1.054.933.538-1.072.113-.223 1.054-.439-.984-1.071.112.8-.72-.438-.985.933.539.8-.721Zm-4.085-1.487.15 1.067 1.06.187-.967.472.15 1.067-.749-.775-.968.473.506-.952-.749-.775 1.061.187.506-.95Zm-4.347 0 .505.951 1.061-.187-.748.775.506.952-.969-.473-.748.775.15-1.067-.968-.472 1.06-.187.15-1.067Zm-4.085 1.487.8.721.933-.539-.438.985.8.72-1.071-.112-.438.984-.224-1.054-1.072-.112.933-.54-.224-1.053Zm-3.33 2.794.998.404.692-.826-.074 1.075.998.404-1.045.26L10.384 25l-.57-.913-1.046.26.692-.825-.57-.914Z"/>
  </g>
  <defs>
    <clipPath id="a">
      <path fill="#fff" d="M0 0h50v50H0z"/>
    </clipPath>
  </defs>
</svg>
