<svg xmlns="http://www.w3.org/2000/svg" width="50" height="50" fill="none" viewBox="0 0 50 50">
  <g clip-path="url(#a)">
    <path fill="#0052B4" d="M25 50c3.058 0 5.987-.55 8.696-1.555L34.783 25 33.695 1.555A24.947 24.947 0 0 0 25 0c-3.058 0-5.988.55-8.696 1.555L15.217 25l1.087 23.445A24.944 24.944 0 0 0 25 50Z"/>
    <path fill="#A2001D" d="M0 25c0 10.75 6.784 19.913 16.304 23.445V1.555C6.784 5.087 0 14.25 0 25ZM33.696 1.555v46.89C43.216 44.913 50 35.75 50 25S43.216 5.087 33.696 1.555Z"/>
    <path fill="#FFDA44" d="M11.957 25h2.173v8.696h-2.174V25ZM3.26 25h2.175v8.696H3.26V25Zm5.435 5.435a2.174 2.174 0 1 0 0-4.348 2.174 2.174 0 0 0 0 4.348Zm.001-8.696a1.087 1.087 0 1 0 0-2.174 1.087 1.087 0 0 0 0 2.174Zm-2.174 9.783h4.348v2.174H6.522v-2.174Zm0-8.696h4.348V25H6.522v-2.174Zm2.173-9.783.77 2.37h2.491l-2.015 1.464.77 2.369-2.016-1.464-2.015 1.464.77-2.37-2.015-1.463h2.49l.77-2.37Z"/>
  </g>
  <defs>
    <clipPath id="a">
      <path fill="#fff" d="M0 0h50v50H0z"/>
    </clipPath>
  </defs>
</svg>
