<svg xmlns="http://www.w3.org/2000/svg" width="50" height="50" fill="none" viewBox="0 0 50 50">
  <g clip-path="url(#a)">
    <path fill="#FFDA44" d="M25 50c13.807 0 25-11.193 25-25S38.807 0 25 0 0 11.193 0 25s11.193 25 25 25Z"/>
    <path fill="#000" d="M7.322 42.678a25.148 25.148 0 0 0 3.342 2.807l34.821-34.821a25.148 25.148 0 0 0-6.149-6.149L4.516 39.337a25.159 25.159 0 0 0 2.806 3.34Z"/>
    <path fill="#6DA544" d="M7.322 7.322c-7.887 7.887-9.4 19.732-4.545 29.14L36.463 2.778C27.054-2.08 15.209-.565 7.323 7.322Z"/>
    <path fill="#338AF3" d="M42.678 42.678c7.887-7.887 9.4-19.732 4.545-29.14L13.537 47.222c9.409 4.856 21.254 3.342 29.14-4.545Z"/>
  </g>
  <defs>
    <clipPath id="a">
      <path fill="#fff" d="M0 0h50v50H0z"/>
    </clipPath>
  </defs>
</svg>
