<svg xmlns="http://www.w3.org/2000/svg" width="50" height="50" fill="none" viewBox="0 0 50 50">
  <g clip-path="url(#a)">
    <path fill="#0052B4" d="M50 25.001c0 13.807-11.193 25-25 25s-25-11.193-25-25c0 .006 25-24.997 25-25 13.807 0 25 11.193 25 25Z"/>
    <path fill="#F0F0F0" d="M24.933 25.001H25v-.067l-.067.067Z"/>
    <path fill="#F0F0F0" d="M25 13.044V.001h-.004C11.19.003 0 11.195 0 25.001h13.043v-7.345l7.345 7.345h4.545l.067-.067V20.39l-7.345-7.346H25Z"/>
    <path fill="#D80027" d="M12.648 3.262a25.119 25.119 0 0 0-9.387 9.387V25h6.522V9.784H25V3.261H12.648Z"/>
    <path fill="#D80027" d="m25 21.927-8.882-8.883h-3.074L25 25.002v-3.074Z"/>
    <path fill="#FFDA44" d="M28.26 13.044v11.957c0 5.824 7.61 7.609 7.61 7.609s7.608-1.785 7.608-7.61V13.045H28.261Z"/>
    <path fill="#FF9811" d="M34.783 17.392c0 1.2-.974 4.348-2.174 4.348s-2.174-3.147-2.174-4.348c0-1.2 2.174-2.174 2.174-2.174s2.174.974 2.174 2.174Z"/>
    <path fill="#A2001D" d="M40.551 19.76c.351-.856.624-2.107.624-2.73 0-1-1.304-1.812-1.304-1.812s-1.305.811-1.305 1.812c0 .623.273 1.874.624 2.73l-.753 1.7a3.8 3.8 0 0 0 2.867 0l-.753-1.7Z"/>
    <path fill="#6DA544" d="M34.24 25.001s-1.088 2.174-1.088 4.348h5.435C38.587 27.175 37.5 25 37.5 25l-1.63-1.087L34.24 25Z"/>
    <path fill="#D80027" d="M37.5 25.001v-.543a1.63 1.63 0 0 0-3.261 0V25H37.5Z"/>
  </g>
  <defs>
    <clipPath id="a">
      <path fill="#fff" d="M0 0h50v50H0z" transform="translate(0 .001)"/>
    </clipPath>
  </defs>
</svg>
