<svg xmlns="http://www.w3.org/2000/svg" width="50" height="50" fill="none" viewBox="0 0 50 50">
  <g clip-path="url(#a)">
    <path fill="#0052B4" d="M50 25c0 13.807-11.193 25-25 25S0 38.807 0 25C0 25.006 25 .003 25 0c13.807 0 25 11.193 25 25Z"/>
    <path fill="#F0F0F0" d="M24.933 25H25v-.067l-.067.067Z"/>
    <path fill="#F0F0F0" d="M25 13.043V0h-.004C11.19.002 0 11.194 0 25h13.043v-7.345L20.389 25h4.545l.067-.067V20.39l-7.345-7.345H25Z"/>
    <path fill="#D80027" d="M12.648 3.26a25.118 25.118 0 0 0-9.387 9.388V25h6.522V9.783H25V3.26H12.648Z"/>
    <path fill="#FFDA44" d="m35.87 25-6.758 6.757a7.606 7.606 0 0 0 13.515 0L35.869 25Z"/>
    <path fill="#D80027" d="m25 21.926-8.882-8.882h-3.074L25 25v-3.074Z"/>
    <path fill="#6DA544" d="M28.26 13.043V25c0 5.824 7.61 7.609 7.61 7.609s7.608-1.785 7.608-7.609V13.043H28.261Z"/>
    <path fill="#F0F0F0" d="M34.24 18.478h3.26v8.696h-3.26v-8.696Z"/>
    <path fill="#A2001D" d="M35.87 20.109a1.63 1.63 0 1 0 0-3.261 1.63 1.63 0 0 0 0 3.26Z"/>
    <path fill="#FFDA44" d="M30.435 15.217h2.174v2.174h-2.174v-2.174Zm0 4.892h2.174v2.174h-2.174v-2.174Zm0 4.891h2.174v2.174h-2.174V25Zm8.695-9.783h2.174v2.174h-2.173v-2.174Zm0 4.892h2.174v2.174h-2.173v-2.174Zm0 4.891h2.174v2.174h-2.173V25Z"/>
  </g>
  <defs>
    <clipPath id="a">
      <path fill="#fff" d="M0 0h50v50H0z"/>
    </clipPath>
  </defs>
</svg>
