<svg xmlns="http://www.w3.org/2000/svg" width="50" height="50" fill="none" viewBox="0 0 50 50">
  <g clip-path="url(#a)">
    <path fill="#FFDA44" d="M42.678 42.678c-9.764 9.763-25.593 9.763-35.356 0-9.763-9.763-9.763-25.593 0-35.356.004 0 22.467-6.637 32.23 3.126 9.763 9.763 3.132 32.223 3.126 32.23Z"/>
    <path fill="#D80027" d="M42.678 42.678c9.763-9.763 9.763-25.592 0-35.356-9.763-9.763-25.593-9.763-35.356 0l35.356 35.356Z"/>
    <path fill="#FF9811" d="M31.535 31.537a3.799 3.799 0 0 1-3.256-.22 3.809 3.809 0 0 1-1.455-5.18l-.312-.175c3.132-.755 5.45-3.598 5.409-6.952a7.048 7.048 0 0 0-2.415-5.229l-2.283 2.339a3.798 3.798 0 0 1 1.437 2.93 3.809 3.809 0 0 1-3.758 3.85l.005.357c-2.22-2.335-5.84-2.92-8.726-1.208a7.05 7.05 0 0 0-3.32 4.706l3.166.808a3.798 3.798 0 0 1 1.819-2.71 3.809 3.809 0 0 1 5.213 1.33l.308-.183c-.912 3.09.39 6.518 3.317 8.16a7.05 7.05 0 0 0 5.735.523l-.884-3.146Zm-6.607-6.464Z"/>
    <path fill="#FFEACF" d="m34.256 16.932-1.767 6.306-5.301-.98-3.413-7.034-9.22 3.271-.726-2.048-2.413-.297 1.818 5.121 6.344-1.622 1.803 5.08-4.385 6.474 7.443 6.348-1.411 1.654.949 2.238 3.527-4.136-4.578-4.683 3.499-4.102 7.799.562L36 19.464l2.138.395 1.463-1.94-5.345-.987Zm-9.258 8.238Z"/>
  </g>
  <defs>
    <clipPath id="a">
      <path fill="#fff" d="M0 0h50v50H0z"/>
    </clipPath>
  </defs>
</svg>
