<svg xmlns="http://www.w3.org/2000/svg" width="50" height="50" fill="none" viewBox="0 0 50 50">
  <g clip-path="url(#a)">
    <path fill="#496E2D" d="M42.678 42.678c9.377-9.376 9.747-24.345 1.115-34.165L25 25 8.513 43.793c9.82 8.632 24.79 8.261 34.165-1.115Z"/>
    <path fill="#0052B4" d="M7.322 7.322c9.376-9.376 24.345-9.747 34.165-1.115L25 25 6.207 41.487c-8.632-9.82-8.261-24.79 1.115-34.165Z"/>
    <path fill="#FFDA44" d="m41.487 6.207-35.28 35.28a24.918 24.918 0 0 0 2.306 2.306l35.28-35.28a25.277 25.277 0 0 0-1.115-1.192 25.328 25.328 0 0 0-1.191-1.114Z"/>
    <path fill="#F0F0F0" d="m10.533 8.695.54 1.66h1.746l-1.412 1.027.54 1.66-1.414-1.026-1.412 1.027.54-1.66-1.413-1.027h1.746l.54-1.661Zm8.92 0 .54 1.66h1.746l-1.413 1.027.54 1.66-1.413-1.026-1.412 1.027.54-1.66-1.413-1.027h1.746l.54-1.661Zm-8.92 8.695.54 1.662h1.746l-1.412 1.026.54 1.66-1.414-1.026-1.412 1.027.54-1.66-1.413-1.027h1.746l.54-1.661Zm8.92 0 .54 1.662h1.746l-1.413 1.026.54 1.66-1.413-1.026-1.412 1.027.54-1.66-1.413-1.027h1.746l.54-1.661Zm-4.46-4.347.54 1.66h1.746l-1.412 1.027.54 1.66-1.414-1.026-1.412 1.027.54-1.661-1.414-1.026h1.747l.54-1.661Z"/>
  </g>
  <defs>
    <clipPath id="a">
      <path fill="#fff" d="M0 0h50v50H0z"/>
    </clipPath>
  </defs>
</svg>
