<svg xmlns="http://www.w3.org/2000/svg" width="50" height="50" fill="none" viewBox="0 0 50 50">
  <g clip-path="url(#a)">
    <path fill="#F0F0F0" d="M25 50c13.807 0 25-11.193 25-25S38.807 0 25 0 0 11.193 0 25s11.193 25 25 25Z"/>
    <path fill="#751A46" d="M50 25C50 11.193 38.807 0 25 0a24.883 24.883 0 0 0-13.306 3.833l5.48 2.328-7.392 3.14 7.392 3.141-7.392 3.14 7.392 3.14-7.392 3.14 7.392 3.14-7.392 3.14 7.392 3.14-7.392 3.14 7.392 3.14-7.392 3.14 7.392 3.14-5.478 2.327A24.884 24.884 0 0 0 25 50c13.807 0 25-11.193 25-25Z"/>
  </g>
  <defs>
    <clipPath id="a">
      <path fill="#fff" d="M0 0h50v50H0z"/>
    </clipPath>
  </defs>
</svg>
