<svg xmlns="http://www.w3.org/2000/svg" width="50" height="50" fill="none" viewBox="0 0 50 50">
  <g clip-path="url(#a)">
    <path fill="#338AF3" d="M25 50c13.807 0 25-11.193 25-25S38.807 0 25 0 0 11.193 0 25s11.193 25 25 25Z"/>
    <path fill="#818085" d="M11.957 27.174h26.087v3.26H11.957v-3.26Z"/>
    <path fill="#FFDA44" d="M16.304 17.392 25 18.479l8.695-1.087v-5.218l-3.478 1.74L25 8.695l-5.218 5.217-3.478-1.739v5.218Z"/>
    <path fill="#F0F0F0" d="M14.13 33.696h-3.26v-5.978l1.087-1.631-1.087-1.63v-3.805h3.26v13.044Zm25 0h-3.26V20.652h3.26v3.804l-1.086 1.658 1.087 1.604v5.978Z"/>
    <path fill="#ACABB1" d="M10.87 24.456h28.26v3.261H10.87v-3.26Z"/>
    <path fill="#F0F0F0" d="M25 38.044c-4.795 0-8.696-3.901-8.696-8.696V17.392h17.392v11.956c0 4.795-3.901 8.696-8.696 8.696Z"/>
    <path fill="#0052B4" d="M25 34.783a5.44 5.44 0 0 1-5.435-5.435v-8.696h10.87v8.696A5.44 5.44 0 0 1 25 34.783Z"/>
    <path fill="#D80027" d="M16.304 17.391h3.261v3.261h-3.26v-3.26Zm14.131 0h3.26v3.261h-3.26v-3.26Zm0 7.065h3.26v3.261h-3.26v-3.26Zm-14.131 0h3.261v3.261h-3.26v-3.26Zm7.066-7.065h3.26v3.261h-3.26v-3.26ZM25 34.782a5.415 5.415 0 0 1-1.63-.25v3.356a8.693 8.693 0 0 0 3.261 0v-3.356a5.418 5.418 0 0 1-1.631.25Zm-5.363-4.552-2.602 2.602a8.724 8.724 0 0 0 1.886 2.726l2.305-2.305a5.424 5.424 0 0 1-1.588-3.023Zm13.327 2.602-2.602-2.602a5.426 5.426 0 0 1-1.589 3.023l2.305 2.305a8.73 8.73 0 0 0 1.886-2.726Z"/>
  </g>
  <defs>
    <clipPath id="a">
      <path fill="#fff" d="M0 0h50v50H0z"/>
    </clipPath>
  </defs>
</svg>
