<svg xmlns="http://www.w3.org/2000/svg" width="50" height="50" fill="none" viewBox="0 0 50 50">
  <g clip-path="url(#a)">
    <path fill="#FFDA44" d="M25 50c13.807 0 25-11.193 25-25S38.807 0 25 0 0 11.193 0 25s11.193 25 25 25Z"/>
    <path fill="#496E2D" d="M25 0c-.018 0-1.087 10-1.087 10h21.088C40.441 3.928 33.18 0 25 0Zm0 50c8.179 0 15.44-3.928 20.001-10H5c4.56 6.072 11.821 10 20 10Zm24.5-30H23.912L25 30h24.5a25.19 25.19 0 0 0 0-10Z"/>
    <path fill="#D80027" d="M25 30V0C11.193 0 0 11.193 0 25c0 1.712.173 3.384.5 5H25Z"/>
    <path fill="#F0F0F0" d="m13.795 11.957 1.619 4.982h5.238l-4.238 3.079L18.033 25l-4.238-3.08L9.557 25l1.618-4.982-4.238-3.08h5.24l1.618-4.981Z"/>
  </g>
  <defs>
    <clipPath id="a">
      <path fill="#fff" d="M0 0h50v50H0z"/>
    </clipPath>
  </defs>
</svg>
