<svg xmlns="http://www.w3.org/2000/svg" width="50" height="50" fill="none" viewBox="0 0 50 50">
  <g clip-path="url(#a)">
    <path fill="#F0F0F0" d="M25 50c13.807 0 25-11.193 25-25S38.807 0 25 0 0 11.193 0 25s11.193 25 25 25Z"/>
    <path fill="#D80027" d="M0 25C0 11.193 11.193 0 25 0s25 11.193 25 25"/>
    <path fill="#F0F0F0" d="M15.217 13.043a7.61 7.61 0 0 1 5.978-7.431 7.609 7.609 0 1 0 0 14.864 7.61 7.61 0 0 1-5.978-7.433ZM25 5.978l.54 1.66h1.745l-1.412 1.027.54 1.661L25 9.3l-1.413 1.026.54-1.66-1.413-1.027h1.746l.54-1.66Z"/>
    <path fill="#F0F0F0" d="m20.764 9.24.539 1.66h1.746l-1.412 1.026.54 1.66-1.413-1.025-1.413 1.026.54-1.66-1.413-1.027h1.746l.54-1.66Zm8.472 0 .54 1.66h1.746l-1.413 1.026.54 1.66-1.413-1.025-1.413 1.026.54-1.66L26.95 10.9h1.746l.54-1.66Zm-1.631 4.89.54 1.661h1.746l-1.413 1.026.54 1.661-1.413-1.026-1.413 1.026.54-1.66-1.413-1.027h1.746l.54-1.66Zm-5.211 0 .54 1.661h1.746l-1.413 1.026.54 1.661-1.413-1.026-1.413 1.026.54-1.66-1.413-1.027h1.747l.54-1.66Z"/>
  </g>
  <defs>
    <clipPath id="a">
      <path fill="#fff" d="M0 0h50v50H0z"/>
    </clipPath>
  </defs>
</svg>
