<svg xmlns="http://www.w3.org/2000/svg" width="50" height="50" fill="none" viewBox="0 0 50 50">
  <g clip-path="url(#a)">
    <path fill="#FFDA44" d="M33.696 1.555A24.949 24.949 0 0 0 25 0c-3.058 0-5.987.55-8.696 1.555L14.13 25l2.174 23.445A24.94 24.94 0 0 0 25 50c3.058 0 5.987-.55 8.696-1.555L35.869 25 33.696 1.555Z"/>
    <path fill="#D80027" d="M50 25c0-10.749-6.784-19.913-16.304-23.445v46.89C43.216 44.913 50 35.75 50 25Z"/>
    <path fill="#0052B4" d="M0 25c0 10.75 6.784 19.913 16.304 23.445V1.555C6.784 5.087 0 14.251 0 25Z"/>
  </g>
  <defs>
    <clipPath id="a">
      <path fill="#fff" d="M0 0h50v50H0z"/>
    </clipPath>
  </defs>
</svg>
