<svg xmlns="http://www.w3.org/2000/svg" width="50" height="50" fill="none" viewBox="0 0 50 50">
  <g clip-path="url(#a)">
    <path fill="#F0F0F0" d="M25 50.001c13.807 0 25-11.193 25-25s-11.193-25-25-25-25 11.193-25 25 11.193 25 25 25Z"/>
    <path fill="#D80027" d="M49.788 21.74H28.261V.213a25.248 25.248 0 0 0-6.522 0V21.74H.212a25.25 25.25 0 0 0 0 6.522h21.527v21.527a25.26 25.26 0 0 0 6.522 0V28.262h21.527a25.26 25.26 0 0 0 0-6.522Z"/>
    <path fill="#000" d="M36.957 8.697a4.35 4.35 0 0 0-4.211 3.26l4.21 1.087 4.211-1.087a4.35 4.35 0 0 0-4.21-3.26Zm-4.348 9.783 5.434 1.086v-2.31a4.356 4.356 0 0 0 3.124-3.125l-4.21-1.087h-5.435l1.087 3.261v2.174Z"/>
    <path fill="#ACABB1" d="M41.167 11.957h-9.645v4.348h1.087v-2.174h8.558a4.351 4.351 0 0 0 0-2.174Z"/>
    <path fill="#000" d="M14.13 8.697a4.35 4.35 0 0 0-4.21 3.26l4.21 1.087 4.211-1.087a4.35 4.35 0 0 0-4.21-3.26ZM9.783 18.48l5.434 1.086v-2.31a4.356 4.356 0 0 0 3.124-3.125l-4.21-1.087H8.695l1.086 3.261v2.174Z"/>
    <path fill="#ACABB1" d="M18.341 11.957H8.696v4.348h1.086v-2.174h8.559a4.356 4.356 0 0 0 0-2.174Z"/>
    <path fill="#000" d="M36.957 30.436a4.35 4.35 0 0 0-4.211 3.26l4.21 1.087 4.211-1.086a4.35 4.35 0 0 0-4.21-3.261Zm-4.348 9.782 5.434 1.087v-2.31a4.356 4.356 0 0 0 3.124-3.124l-4.21-1.087h-5.435l1.087 3.26v2.174Z"/>
    <path fill="#ACABB1" d="M41.167 33.697h-9.645v4.347h1.087v-2.173h8.558a4.352 4.352 0 0 0 0-2.175Z"/>
    <path fill="#000" d="M14.13 30.436a4.35 4.35 0 0 0-4.21 3.26l4.21 1.087 4.211-1.086a4.35 4.35 0 0 0-4.21-3.261Zm-4.347 9.782 5.434 1.087v-2.31a4.356 4.356 0 0 0 3.124-3.124l-4.21-1.087H8.695l1.086 3.26v2.174Z"/>
    <path fill="#ACABB1" d="M18.341 33.697H8.696v4.347h1.086v-2.173h8.559a4.357 4.357 0 0 0 0-2.175Z"/>
  </g>
  <defs>
    <clipPath id="a">
      <path fill="#fff" d="M0 0h50v50H0z" transform="translate(0 .001)"/>
    </clipPath>
  </defs>
</svg>
