<svg xmlns="http://www.w3.org/2000/svg" width="50" height="50" fill="none" viewBox="0 0 50 50">
  <g clip-path="url(#a)">
    <path fill="#F0F0F0" d="M25 49.999c13.807 0 25-11.193 25-25s-11.193-25-25-25-25 11.193-25 25 11.193 25 25 25Z"/>
    <path fill="#D80027" d="M16.305 13.043V9.782h-3.261v3.26H9.783v3.261h3.26v3.261h3.262v-3.26h3.26v-3.261h-3.26Z"/>
    <path fill="#D80027" d="M25-.001v25H0c0 13.807 11.193 25 25 25s25-11.193 25-25-11.193-25-25-25Z"/>
  </g>
  <defs>
    <clipPath id="a">
      <path fill="#fff" d="M0 0h50v50H0z" transform="translate(0 -.001)"/>
    </clipPath>
  </defs>
</svg>
