<svg xmlns="http://www.w3.org/2000/svg" width="50" height="50" fill="none" viewBox="0 0 50 50">
  <g clip-path="url(#a)">
    <path fill="#F0F0F0" d="M50 25.001c0-3.058-.55-5.987-1.555-8.696L25 15.218 1.555 16.305A24.947 24.947 0 0 0 0 25.001c0 3.058.55 5.987 1.555 8.696L25 34.784l23.445-1.087A24.946 24.946 0 0 0 50 25Z"/>
    <path fill="#0052B4" d="M25 50.001c10.75 0 19.913-6.784 23.445-16.304H1.555C5.087 43.217 14.251 50 25 50Z"/>
    <path fill="#D80027" d="M1.555 16.305h46.89C44.913 6.785 35.75.001 25 .001S5.087 6.785 1.555 16.305Z"/>
    <path fill="#338AF3" d="M31.522 17.392h-4.348l.725-5.434 2.898-2.174 2.899 2.173v4.348l-2.174 1.087Zm-13.044 0h4.348l-.725-5.434-2.898-2.174-2.899 2.173v4.348l2.174 1.087Z"/>
    <path fill="#0052B4" d="M27.899 17.392H22.1v-5.434L25 9.784l2.899 2.173v5.435Z"/>
    <path fill="#F0F0F0" d="M16.304 16.305v11.957a8.688 8.688 0 0 0 3.497 6.966l1.522-.38 1.92 1.931a8.7 8.7 0 0 0 3.505.002l2.192-1.825 1.26.268a8.685 8.685 0 0 0 3.496-6.962V16.305H16.304Z"/>
    <path fill="#D80027" d="M16.304 16.305h3.479v3.479h-3.479v-3.479Zm6.956 0h3.48v3.479h-3.48v-3.479Zm6.957 0h3.479v3.479h-3.479v-3.479Zm-10.434 3.479h3.478v3.478h-3.478v-3.478Zm6.957 0h3.477v3.478H26.74v-3.478ZM16.304 23.26h3.479v3.479h-3.479v-3.478Zm3.479 3.48h3.478v3.477h-3.478V26.74Z"/>
    <path fill="#D80027" d="M23.26 23.26h3.48v3.479h-3.48v-3.478Zm6.957 0h3.479v3.479h-3.479v-3.478Zm-3.477 3.48h3.477v3.477H26.74V26.74Zm-3.48 3.477h3.48v3.479h-3.48v-3.479Zm-3.477.001h-3.254a8.668 8.668 0 0 0 1.69 3.478h1.564v-3.478Zm10.434 3.478h1.565a8.668 8.668 0 0 0 1.69-3.478h-3.255v3.478Zm-10.434 0v1.518a8.66 8.66 0 0 0 3.478 1.569v-3.087h-3.478Zm6.957 0v3.087a8.656 8.656 0 0 0 3.477-1.57v-1.517H26.74Z"/>
  </g>
  <defs>
    <clipPath id="a">
      <path fill="#fff" d="M0 0h50v50H0z" transform="translate(0 .001)"/>
    </clipPath>
  </defs>
</svg>
