<svg xmlns="http://www.w3.org/2000/svg" width="51" height="50" fill="none" viewBox="0 0 51 50">
  <g clip-path="url(#a)">
    <path fill="#FFDA44" d="M50.988 25c0 13.807-11.193 25-25 25s-25-11.193-25-25c0 .006 25-24.997 25-25 13.807 0 25 11.193 25 25Z"/>
    <path fill="#0052B4" d="M25.988 11.957v8.431l-8.695-8.432h8.695ZM14.032 25h7.345l-7.345-9.783-1.087 7.609L14.032 25Z"/>
    <path fill="#F0F0F0" d="M25.921 25h.067v-.067l-.067.067Z"/>
    <path fill="#F0F0F0" d="M25.988 13.043V0h-.004C12.18.002.988 11.194.988 25h13.044v-7.345L21.377 25h4.545l.066-.067V20.39l-7.345-7.345h7.345Z"/>
    <path fill="#D80027" d="m25.988 21.926-8.882-8.882h-3.074L25.988 25v-3.074Z"/>
    <path fill="#D80027" d="M13.636 3.26a25.055 25.055 0 0 0-2.765 1.829h1.026l-2.711 1.97 1.035 3.187-2.711-1.97-.289.21a25.074 25.074 0 0 0-2.972 4.162V25h6.522V9.783h15.217V3.26H13.636Z"/>
    <path fill="#0052B4" d="M11.668 4.507c-.27.189-.536.383-.797.582l-1.685 1.97L7.51 8.277l-.291.21a25.124 25.124 0 0 0-1.724 2.193 4.62 4.62 0 0 0 6.173-6.173Z"/>
    <path fill="#FFDA44" d="m7.219 8.488.29-.211 2.712 1.97-1.036-3.188 2.711-1.97H10.87a25.157 25.157 0 0 0-3.65 3.399Zm11.049-4.14.54 1.66h1.746L19.14 7.036l.54 1.66-1.413-1.026-1.413 1.027.54-1.661-1.413-1.026h1.746l.54-1.661ZM7.51 15.217l.54 1.661h1.746l-1.413 1.027.54 1.66L7.51 18.54l-1.413 1.026.54-1.66-1.413-1.027H6.97l.54-1.66Z"/>
  </g>
  <defs>
    <clipPath id="a">
      <path fill="#fff" d="M0 0h50v50H0z" transform="translate(.988)"/>
    </clipPath>
  </defs>
</svg>
