<svg xmlns="http://www.w3.org/2000/svg" width="50" height="50" fill="none" viewBox="0 0 50 50">
  <g clip-path="url(#a)">
    <path fill="#000" d="M42.678 42.678c-9.763 9.763-25.592 9.763-35.356 0-9.763-9.764-9.763-25.593 0-35.356C17.086-2.44 31.377-.904 41.141 8.86c9.763 9.764 11.3 24.055 1.537 33.819Z"/>
    <path fill="#A2001D" d="M7.322 7.322c9.764-9.763 25.592-9.763 35.356 0 9.763 9.764 9.763 25.593 0 35.356"/>
    <path fill="#F0F0F0" d="m19.106 33.696.404 1.245h1.31l-1.06.77.405 1.246-1.06-.77-1.059.77.405-1.246-1.06-.77h1.31l.405-1.245ZM15.76 21.74l.676 2.075h2.182l-1.766 1.283.675 2.076-1.766-1.283-1.766 1.283.675-2.076-1.766-1.283h2.182l.675-2.076Zm0 15.217.675 2.076h2.183l-1.766 1.282.675 2.076-1.766-1.283-1.766 1.283.675-2.076-1.766-1.282h2.182l.675-2.076Zm6.383-9.783.674 2.076H25l-1.766 1.283.675 2.076-1.766-1.283-1.766 1.283.675-2.076-1.766-1.283h2.182l.675-2.076Zm-12.764 0 .675 2.076h2.182l-1.766 1.283.675 2.076-1.766-1.283-1.766 1.283.675-2.076-1.766-1.283h2.182l.675-2.076Z"/>
    <path fill="#FFDA44" d="M41.85 18.512a6.472 6.472 0 0 0-4.129-1.89l4.67-3.633a8.674 8.674 0 0 0-6.785-2.522 6.49 6.49 0 0 0-1.67-2.858l-1.844 3.69a2.717 2.717 0 1 0-3.69 3.69l-3.688 1.843a6.49 6.49 0 0 0 2.86 1.67 8.67 8.67 0 0 0 2.52 6.785l4.08-5.246a1.62 1.62 0 0 1 1.144-.47c.435 0 .845.17 1.153.478.308.308.477.718.477 1.153 0 .436-.17.845-.477 1.153l1.537 1.537a3.78 3.78 0 0 0 1.114-2.69c0-.831-.265-1.622-.755-2.275.714.19 1.388.564 1.947 1.122a4.353 4.353 0 0 1 0 6.149l1.537 1.537a6.48 6.48 0 0 0 1.91-4.611c0-1.743-.679-3.38-1.91-4.612Z"/>
  </g>
  <defs>
    <clipPath id="a">
      <path fill="#fff" d="M0 0h50v50H0z"/>
    </clipPath>
  </defs>
</svg>
