<svg xmlns="http://www.w3.org/2000/svg" width="50" height="50" fill="none" viewBox="0 0 50 50">
  <g clip-path="url(#a)">
    <path fill="#496E2D" d="M25 0c-1.867 0-3.685.206-5.435.594L18.478 25l1.087 24.406c1.75.388 3.568.594 5.435.594 13.807 0 25-11.193 25-25S38.807 0 25 0ZM6.522 8.161A24.908 24.908 0 0 0 0 25a24.91 24.91 0 0 0 6.522 16.839l1.087-16.84L6.522 8.162Z"/>
    <path fill="#F0F0F0" d="M36.565 18.858a7.61 7.61 0 0 0-3.118-9.014 7.609 7.609 0 1 1-5.02 13.99 7.61 7.61 0 0 0 8.138-4.976Zm-6.823-9.954-1.068 1.38-1.644-.589.983 1.443-1.068 1.381 1.676-.489.983 1.443.053-1.745 1.676-.489-1.643-.59.052-1.745Z"/>
    <path fill="#F0F0F0" d="m32.628 13.404-1.069 1.38-1.643-.589.983 1.443-1.069 1.381 1.677-.489.983 1.443.053-1.745 1.676-.49-1.644-.589.053-1.745Zm-7.974-2.861-1.069 1.38-1.643-.59.983 1.444-1.069 1.38 1.676-.488.984 1.443.053-1.745 1.676-.49-1.644-.59.053-1.745Zm-.117 5.154-1.069 1.381-1.643-.59.983 1.444-1.069 1.38 1.677-.488.983 1.443.052-1.746 1.677-.489-1.644-.59.053-1.745Zm4.905 1.76-1.069 1.38-1.643-.589.983 1.443-1.07 1.381 1.677-.489.983 1.444.053-1.746 1.677-.489-1.644-.59.053-1.745Z"/>
    <path fill="#D80027" d="M6.522 8.161V41.84a24.974 24.974 0 0 0 13.043 7.567V.594A24.973 24.973 0 0 0 6.522 8.161Z"/>
    <path fill="#F0F0F0" d="m11.5 13.163-2.184-1.627v-2.3l2.183-1.627h3.089l2.183 1.627v2.3l-2.183 1.627h-3.089Z"/>
    <path fill="#FF9811" d="M13.044 7.609h-1.545L9.316 9.236v1.124h3.728V7.61Zm0 5.554h1.544l2.184-1.627v-1.174h-3.728v2.8Z"/>
    <path fill="#F0F0F0" d="m11.5 42.391-2.184-1.627v-2.3l2.183-1.627h3.089l2.183 1.627v2.3l-2.183 1.627h-3.089Z"/>
    <path fill="#FF9811" d="M13.044 36.837h-1.545l-2.183 1.627v1.125h3.728v-2.752Zm0 5.555h1.544l2.184-1.627V39.59h-3.728v2.8Z"/>
    <path fill="#496E2D" d="M11.5 27.777 9.315 26.15v-2.3l2.183-1.627h3.089l2.183 1.626v2.3l-2.183 1.628h-3.089Zm5.348 3.579h-.951v-.952h-1.672l-1.181-1.181-1.182 1.181H10.19v.952h-.95v1.902h.95v.95h1.672l1.182 1.183 1.181-1.182h1.672v-.951h.95v-1.902Zm0-14.615h-.951v-.95h-1.672l-1.181-1.183-1.182 1.182H10.19v.951h-.95v1.903h.95v.95h1.672l1.182 1.183 1.181-1.182h1.672v-.951h.95V16.74Z"/>
    <path fill="#D80027" d="M11.957 23.913h2.173v2.174h-2.174v-2.174Zm1.086-5.133a1.087 1.087 0 1 0 0-2.175 1.087 1.087 0 0 0 0 2.174Zm0 14.615a1.087 1.087 0 1 0 0-2.174 1.087 1.087 0 0 0 0 2.174Z"/>
  </g>
  <defs>
    <clipPath id="a">
      <path fill="#fff" d="M0 0h50v50H0z"/>
    </clipPath>
  </defs>
</svg>
