<svg xmlns="http://www.w3.org/2000/svg" width="50" height="50" fill="none" viewBox="0 0 50 50">
  <g clip-path="url(#a)">
    <path fill="#F0F0F0" d="M25 50c13.807 0 25-11.193 25-25S38.807 0 25 0 0 11.193 0 25s11.193 25 25 25Z"/>
    <path fill="#FFDA44" d="m13.513 34.783-6.19 7.894A24.919 24.919 0 0 0 25 50c10.335 0 19.204-6.272 23.01-15.217H13.514Z"/>
    <path fill="#496E2D" d="M48.05 15.308C44.264 6.315 35.37 0 25 0A24.919 24.919 0 0 0 7.323 7.323l6.261 7.985H48.05Z"/>
    <path fill="#000" d="M5.435 18.388v13.134h43.704c.56-2.08.86-4.265.86-6.522 0-2.29-.308-4.506-.884-6.612H5.435Z"/>
    <path fill="#A2001D" d="M7.322 7.322c-9.763 9.763-9.763 25.592 0 35.356L25 25 7.322 7.322Z"/>
    <path fill="#FFDA44" d="m10.118 18.478 1.619 4.982h5.239l-4.238 3.08 1.618 4.982-4.238-3.08-4.238 3.08 1.619-4.982-4.238-3.08h5.238l1.62-4.982Z"/>
    <path fill="#F0F0F0" d="M5.381 25h9.475v4.348H5.381V25Z"/>
    <path fill="#000" d="m16.65 20.016-1.537-1.538-4.995 4.995-4.995-4.995-1.537 1.538 5 4.99-5 5 1.537 1.516 4.995-4.986 4.995 4.986 1.537-1.517-5-4.999 5-4.99Z"/>
  </g>
  <defs>
    <clipPath id="a">
      <path fill="#fff" d="M0 0h50v50H0z"/>
    </clipPath>
  </defs>
</svg>
