<svg xmlns="http://www.w3.org/2000/svg" width="50" height="50" fill="none" viewBox="0 0 50 50">
  <g clip-path="url(#a)">
    <path fill="#F0F0F0" d="M25 50c13.807 0 25-11.193 25-25S38.807 0 25 0 0 11.193 0 25s11.193 25 25 25Z"/>
    <path fill="#0052B4" d="M48.445 16.304H21.739V9.783H8.696v6.521H1.555A24.946 24.946 0 0 0 0 25c0 3.058.55 5.987 1.555 8.696L25 35.87l23.445-2.174A24.946 24.946 0 0 0 50 25c0-3.058-.55-5.987-1.555-8.696Z"/>
    <path fill="#D80027" d="M25 50c10.75 0 19.913-6.784 23.445-16.304H1.555C5.087 43.216 14.25 50 25 50Z"/>
    <path fill="#F0F0F0" d="M8.696 16.304v2.174c0 4.993 6.521 6.522 6.521 6.522s6.522-1.53 6.522-6.522v-2.174l-2.174 2.174-4.348-3.26-4.348 3.26-2.173-2.174Z"/>
  </g>
  <defs>
    <clipPath id="a">
      <path fill="#fff" d="M0 0h50v50H0z"/>
    </clipPath>
  </defs>
</svg>
