<svg xmlns="http://www.w3.org/2000/svg" width="50" height="50" fill="none" viewBox="0 0 50 50">
  <g clip-path="url(#a)">
    <path fill="#F0F0F0" d="M25 50c13.807 0 25-11.193 25-25S38.807 0 25 0 0 11.193 0 25s11.193 25 25 25Z"/>
    <path fill="#D80027" d="M25 0C14.251 0 5.087 6.784 1.555 16.304h46.89C44.913 6.784 35.75 0 25 0Z"/>
    <path fill="#000" d="M25 50c10.75 0 19.913-6.784 23.445-16.304H1.555C5.088 43.216 14.251 50 25 50Z"/>
    <path fill="#FF9811" d="M33.696 22.283h-6.522a2.174 2.174 0 0 0-4.348 0h-6.522c0 1.2 1.046 2.173 2.247 2.173h-.073c0 1.201.973 2.174 2.174 2.174 0 1.201.973 2.174 2.174 2.174h4.348c1.2 0 2.174-.973 2.174-2.174 1.2 0 2.174-.973 2.174-2.174h-.073c1.2 0 2.247-.973 2.247-2.173Z"/>
  </g>
  <defs>
    <clipPath id="a">
      <path fill="#fff" d="M0 0h50v50H0z"/>
    </clipPath>
  </defs>
</svg>
