<svg xmlns="http://www.w3.org/2000/svg" width="50" height="51" fill="none" viewBox="0 0 50 51">
  <g clip-path="url(#a)">
    <path fill="#F0F0F0" d="M25 50.99c13.807 0 25-11.194 25-25 0-13.808-11.193-25-25-25s-25 11.192-25 25c0 13.806 11.193 25 25 25Z"/>
    <path fill="#FF9811" d="M25 .99C15.088.99 6.524 6.756 2.48 15.12h45.04C43.475 6.757 34.91.99 25 .99Z"/>
    <path fill="#6DA544" d="M25 50.99c9.911 0 18.476-5.769 22.52-14.131H2.48C6.525 45.22 15.089 50.989 25 50.989Z"/>
    <path fill="#0052B4" d="M25 34.685a8.696 8.696 0 1 0 0-17.391 8.696 8.696 0 0 0 0 17.39Z"/>
    <path fill="#F0F0F0" d="M25 31.424a5.435 5.435 0 1 0 0-10.87 5.435 5.435 0 0 0 0 10.87Z"/>
    <path fill="#0052B4" d="m25 19.283 1.677 3.802 4.131-.45-2.455 3.354 2.455 3.353-4.131-.449L25 32.696l-1.677-3.803-4.13.45 2.454-3.354-2.455-3.353 4.131.45L25 19.282Z"/>
  </g>
  <defs>
    <clipPath id="a">
      <path fill="#fff" d="M0 0h50v50H0z" transform="translate(0 .99)"/>
    </clipPath>
  </defs>
</svg>
