<svg xmlns="http://www.w3.org/2000/svg" width="50" height="50" fill="none" viewBox="0 0 50 50">
  <g clip-path="url(#a)">
    <path fill="#F0F0F0" d="M25 50c13.807 0 25-11.193 25-25S38.807 0 25 0 0 11.193 0 25s11.193 25 25 25Z"/>
    <path fill="#D80027" d="M6.049 8.696a25.086 25.086 0 0 0-2.38 3.26h42.662a25.06 25.06 0 0 0-2.38-3.26H6.049Zm0 32.608H43.95a25.085 25.085 0 0 0 2.38-3.26H3.669a25.092 25.092 0 0 0 2.38 3.26ZM21.8 20.428l2.052 2.827 3.322-1.077-2.055 2.824 2.052 2.826-3.321-1.08-2.055 2.823.002-3.492-3.32-1.081 3.322-1.077.002-3.493Z"/>
    <path fill="#D80027" d="M16.203 32.065a7.065 7.065 0 1 1 3.36-13.281 8.696 8.696 0 1 0 0 12.432 7.03 7.03 0 0 1-3.36.85Z"/>
  </g>
  <defs>
    <clipPath id="a">
      <path fill="#fff" d="M0 0h50v50H0z"/>
    </clipPath>
  </defs>
</svg>
