<svg xmlns="http://www.w3.org/2000/svg" width="50" height="50" fill="none" viewBox="0 0 50 50">
  <g clip-path="url(#a)">
    <path fill="#FFDA44" d="M25 50c13.807 0 25-11.193 25-25S38.807 0 25 0 0 11.193 0 25s11.193 25 25 25Z"/>
    <path fill="#0052B4" d="M40.217 11.957a16.683 16.683 0 0 0-.326 3.37c0 6.594 3.932 12.302 9.566 14.872.355-1.677.543-3.416.543-5.199C50 11.193 38.807 0 25 0S0 11.193 0 25s11.193 25 25 25c8.563 0 16.119-4.306 20.625-10.87H14.13v-3.26h33.39c.341-.707.65-1.432.925-2.174H14.13l26.087-21.74Z"/>
    <path fill="#F0F0F0" d="m18.366 13.043.54 1.661h1.746l-1.412 1.027.54 1.66-1.414-1.026-1.412 1.026.54-1.66-1.413-1.027h1.746l.54-1.66ZM11.273 25l.675 2.076h2.182l-1.766 1.283.675 2.076-1.766-1.283-1.766 1.283.675-2.076-1.766-1.283h2.183L11.273 25Zm0-17.391.675 2.076h2.182l-1.766 1.282.675 2.076-1.766-1.283-1.766 1.283.675-2.076-1.766-1.282h2.183l.674-2.076Zm-5.434 9.782.674 2.076h2.183L6.93 20.75l.674 2.076-1.765-1.283-1.766 1.283.674-2.076-1.766-1.283h2.183l.675-2.076Z"/>
  </g>
  <defs>
    <clipPath id="a">
      <path fill="#fff" d="M0 0h50v50H0z"/>
    </clipPath>
  </defs>
</svg>
