<svg xmlns="http://www.w3.org/2000/svg" width="51" height="50" fill="none" viewBox="0 0 51 50">
  <g clip-path="url(#a)">
    <path fill="#F0F0F0" d="M25.988 50c13.807 0 25-11.193 25-25s-11.193-25-25-25-25 11.193-25 25 11.193 25 25 25Z"/>
    <path fill="#338AF3" d="M25.988 0C16.077 0 7.512 5.768 3.468 14.13h45.04C44.463 5.768 35.9 0 25.987 0Zm0 50c9.912 0 18.476-5.768 22.52-14.13H3.467C7.514 44.232 16.078 50 25.989 50Z"/>
    <path fill="#FFDA44" d="M25.988 17.391a7.609 7.609 0 1 0 0 15.218 7.609 7.609 0 0 0 0-15.218Zm0 11.957a4.348 4.348 0 1 1 0-8.696 4.348 4.348 0 0 1 0 8.696Z"/>
    <path fill="#0052B4" d="M29.754 26.087 25.988 25l-3.765 1.087-1.255 2.174h10.04l-1.254-2.174Z"/>
    <path fill="#338AF3" d="m25.988 19.565-2.51 4.348L25.988 25l2.51-1.087-2.51-4.348Z"/>
    <path fill="#6DA544" d="M22.223 26.087h7.53l-1.255-2.174h-5.02l-1.255 2.174Z"/>
  </g>
  <defs>
    <clipPath id="a">
      <path fill="#fff" d="M0 0h50v50H0z" transform="translate(.988)"/>
    </clipPath>
  </defs>
</svg>
