<svg xmlns="http://www.w3.org/2000/svg" width="51" height="50" fill="none" viewBox="0 0 51 50">
  <g clip-path="url(#a)">
    <path fill="#FFDA44" d="M25.578 49.999c13.807 0 25-11.193 25-25s-11.193-25-25-25-25 11.193-25 25 11.193 25 25 25Z"/>
    <path fill="#0052B4" d="M20.143 21.738h30.223C48.768 9.472 38.28 0 25.578 0c-1.867 0-3.685.206-5.435.594v21.145Zm-6.522 0v-18.7C6.757 6.785 1.843 13.656.79 21.739h12.83Zm0 6.522H.79c1.053 8.083 5.967 14.954 12.831 18.7v-18.7Zm6.522 0v21.145c1.75.388 3.568.594 5.435.594 12.702 0 23.19-9.473 24.788-21.74H20.143Z"/>
  </g>
  <defs>
    <clipPath id="a">
      <path fill="#fff" d="M0 0h50v50H0z" transform="translate(.578 -.001)"/>
    </clipPath>
  </defs>
</svg>
