<svg xmlns="http://www.w3.org/2000/svg" width="50" height="50" fill="none" viewBox="0 0 50 50">
  <g clip-path="url(#a)">
    <path fill="#FFDA44" d="M25 .001c-3.058 0-5.987.55-8.696 1.555l-1.087 23.445 1.087 23.445A24.944 24.944 0 0 0 25 50.001c3.058 0 5.987-.55 8.696-1.555l1.087-23.445-1.087-23.445A24.947 24.947 0 0 0 25 .001Z"/>
    <path fill="#D80027" d="M50 25c0-10.748-6.784-19.912-16.304-23.444v46.89C43.216 44.914 50 35.75 50 25.001Z"/>
    <path fill="#0052B4" d="M16.304 48.446V1.556C6.784 5.088 0 14.252 0 25s6.784 19.913 16.304 23.445Z"/>
  </g>
  <defs>
    <clipPath id="a">
      <path fill="#fff" d="M0 0h50v50H0z" transform="translate(0 .001)"/>
    </clipPath>
  </defs>
</svg>
