<svg xmlns="http://www.w3.org/2000/svg" width="50" height="50" fill="none" viewBox="0 0 50 50">
  <g clip-path="url(#a)">
    <path fill="#6DA544" d="M25 50c13.807 0 25-11.193 25-25S38.807 0 25 0 0 11.193 0 25s11.193 25 25 25Z"/>
    <path fill="#FFDA44" d="m38.377 35.87.687 1.434 1.549-.358-.694 1.43 1.246.989-1.551.35.004 1.59-1.24-.995-1.24.994.003-1.59-1.55-.35 1.245-.987-.694-1.431 1.55.358.685-1.434Zm-6.382-15.218.686 1.435 1.55-.358-.694 1.43 1.245.988-1.55.35.004 1.59-1.24-.995-1.241.995.004-1.59-1.551-.35 1.246-.988-.694-1.43 1.55.358.685-1.435Zm6.382-8.695.686 1.434 1.55-.358-.694 1.43 1.246.989-1.551.35.004 1.59-1.24-.995-1.241.994.004-1.59-1.55-.35 1.245-.987-.694-1.431 1.55.358.685-1.434Zm5.575 6.521.686 1.435 1.55-.358-.695 1.43 1.246.988-1.551.35.004 1.59-1.24-.995-1.24.995.003-1.59-1.55-.35 1.245-.988-.693-1.43 1.549.358.686-1.435Zm-3.986 7.609.54 1.66h1.746l-1.413 1.027.54 1.66-1.413-1.026-1.413 1.027.54-1.66-1.413-1.027h1.746l.54-1.661Z"/>
    <path fill="#FFDA44" d="M27.717 32.065a7.065 7.065 0 1 1 3.361-13.281 8.696 8.696 0 1 0 0 12.432 7.04 7.04 0 0 1-3.36.85ZM15.721 9.783a4.345 4.345 0 0 0-7.53 0h7.53Zm.015.025-3.78 3.779-3.779-3.78a4.348 4.348 0 1 0 7.558 0Z"/>
    <path fill="#A2001D" d="M10.87 12.5v3.667a4.36 4.36 0 0 0 2.174 0V12.5H10.87Z"/>
  </g>
  <defs>
    <clipPath id="a">
      <path fill="#fff" d="M0 0h50v50H0z"/>
    </clipPath>
  </defs>
</svg>
