<svg xmlns="http://www.w3.org/2000/svg" width="50" height="50" fill="none" viewBox="0 0 50 50">
  <g clip-path="url(#a)">
    <path fill="#FFDA44" d="M35.87 2.48A24.901 24.901 0 0 0 25 0c-3.895 0-7.583.891-10.87 2.48L11.957 25l2.175 22.52A24.9 24.9 0 0 0 25 50a24.9 24.9 0 0 0 10.87-2.48L38.044 25 35.87 2.48Z"/>
    <path fill="#0052B4" d="M14.13 2.481C5.768 6.525 0 15.088 0 25c0 9.911 5.768 18.475 14.13 22.518V2.481Zm21.74 0v45.037C44.232 43.475 50 34.911 50 25c0-9.912-5.768-18.475-14.13-22.519Z"/>
    <path fill="#000" d="m32.609 15.217 1.458.73-1.458-.73-1.459-.729c-.087.176-1.992 4.05-2.303 9.968h-2.216v-9.239L25 13.043l-1.631 2.174v9.24h-2.217c-.311-5.919-2.215-9.793-2.303-9.969l-2.917 1.459c.02.04 2.002 4.073 2.002 10.14v1.63h5.435v9.24h3.26v-9.24h5.435v-1.63c0-3.137.543-5.723.998-7.34.497-1.764 1.001-2.794 1.006-2.804l-1.46-.726Z"/>
  </g>
  <defs>
    <clipPath id="a">
      <path fill="#fff" d="M0 0h50v50H0z"/>
    </clipPath>
  </defs>
</svg>
