<svg xmlns="http://www.w3.org/2000/svg" width="50" height="50" fill="none" viewBox="0 0 50 50">
  <g clip-path="url(#a)">
    <path fill="#D80027" d="M47.52 14.13C43.475 5.768 34.911 0 25 0 15.088 0 6.524 5.768 2.48 14.13L25 16.305l22.52-2.173ZM2.48 35.87C6.525 44.232 15.089 50 25 50c9.912 0 18.476-5.768 22.52-14.13L25 33.696 2.48 35.87Z"/>
    <path fill="#0052B4" d="M47.52 14.13H2.48A24.9 24.9 0 0 0 0 25a24.9 24.9 0 0 0 2.48 10.87h45.04A24.897 24.897 0 0 0 50 25c0-3.896-.891-7.583-2.48-10.87Z"/>
    <path fill="#F0F0F0" d="M25 33.695a8.696 8.696 0 1 0 0-17.39 8.696 8.696 0 0 0 0 17.39Z"/>
  </g>
  <defs>
    <clipPath id="a">
      <path fill="#fff" d="M0 0h50v50H0z"/>
    </clipPath>
  </defs>
</svg>
