<svg xmlns="http://www.w3.org/2000/svg" width="50" height="50" fill="none" viewBox="0 0 50 50">
  <g clip-path="url(#a)">
    <path fill="#338AF3" d="M25 50c13.807 0 25-11.193 25-25S38.807 0 25 0 0 11.193 0 25s11.193 25 25 25Z"/>
    <path fill="#F3F3F3" d="M24.212 40.741a1.628 1.628 0 0 1-1.45-1.065 1.632 1.632 0 0 1-2.909-.75 1.633 1.633 0 0 1-2.696-1.323 1.629 1.629 0 0 1-2.375-1.837 1.628 1.628 0 0 1-1.732-.49 1.63 1.63 0 0 1-.227-1.785 1.631 1.631 0 0 1-1.461-2.624 1.63 1.63 0 0 1-.901-2.865 1.63 1.63 0 0 1-.306-2.986 1.63 1.63 0 0 1-.839-1.59h.001a1.631 1.631 0 0 1 1.137-1.397 1.631 1.631 0 0 1 .895-2.868 1.632 1.632 0 0 1 1.456-2.626 1.63 1.63 0 0 1 1.954-2.28 1.63 1.63 0 0 1 2.37-1.843 1.631 1.631 0 0 1 2.694-1.327 1.631 1.631 0 0 1 2.905-.757 1.63 1.63 0 0 1 2.998-.156 1.63 1.63 0 0 1 2.97.448 1.63 1.63 0 0 1 2.818 1.04 1.63 1.63 0 0 1 2.55 1.584 1.632 1.632 0 0 1 2.18 2.064 1.63 1.63 0 0 1 1.722 2.46 1.633 1.633 0 0 1 1.19 2.757 1.63 1.63 0 0 1 .61 2.94c.583.247.994.825.995 1.498V25c0 .674-.409 1.253-.991 1.502a1.63 1.63 0 0 1-.604 2.94 1.632 1.632 0 0 1-1.184 2.76 1.631 1.631 0 0 1-1.717 2.465 1.632 1.632 0 0 1-2.175 2.07 1.632 1.632 0 0 1-2.547 1.59 1.632 1.632 0 0 1-1.061 1.455c-.633.235 0 0-.002 0a1.632 1.632 0 0 1-1.753-.41 1.631 1.631 0 0 1-2.968.454 1.63 1.63 0 0 1-1.547.916Z"/>
    <path fill="#338AF3" d="M25 35.87c6.003 0 10.87-4.867 10.87-10.87 0-6.003-4.867-10.87-10.87-10.87-6.003 0-10.87 4.867-10.87 10.87 0 6.003 4.867 10.87 10.87 10.87Z"/>
    <path fill="#BDBCC1" d="M27.38 21.31a2.17 2.17 0 0 0 .88-1.745v-1.087c0-1.2-.972-2.174-2.173-2.174h-2.174c-1.2 0-2.174.974-2.174 2.174v1.087c0 .716.348 1.35.882 1.745l-1.969 19.994S21.74 42.391 25 42.391s4.348-1.087 4.348-1.087L27.379 21.31Z"/>
    <path fill="#F0F0F0" d="m25 16.304 1.888 5.813H33l-4.944 3.592 1.888 5.813L25 27.93l-4.945 3.592 1.89-5.813L17 22.117h6.111L25 16.304Z"/>
  </g>
  <defs>
    <clipPath id="a">
      <path fill="#fff" d="M0 0h50v50H0z"/>
    </clipPath>
  </defs>
</svg>
