<svg xmlns="http://www.w3.org/2000/svg" width="50" height="50" fill="none" viewBox="0 0 50 50">
  <g clip-path="url(#a)">
    <path fill="#F0F0F0" d="M25 50c13.807 0 25-11.193 25-25S38.807 0 25 0 0 11.193 0 25s11.193 25 25 25Z"/>
    <path fill="#D80027" d="M25 0a24.881 24.881 0 0 0-13.604 4.023l6.43 4.31-8.043 4.166 8.043 4.167-8.043 4.166L17.826 25l-8.043 4.166 8.043 4.167L9.783 37.5l8.043 4.166-6.43 4.311A24.88 24.88 0 0 0 25 50c13.807 0 25-11.193 25-25S38.807 0 25 0Z"/>
  </g>
  <defs>
    <clipPath id="a">
      <path fill="#fff" d="M0 0h50v50H0z"/>
    </clipPath>
  </defs>
</svg>
