<svg xmlns="http://www.w3.org/2000/svg" width="50" height="50" fill="none" viewBox="0 0 50 50">
  <g clip-path="url(#a)">
    <path fill="#D80027" d="M50 24.999c0 13.807-11.193 25-25 25s-25-11.193-25-25l25-25c13.807 0 25 11.193 25 25Z"/>
    <path fill="#0052B4" d="M25 24.999v-25c-13.807 0-25 11.193-25 25h25Z"/>
    <path fill="#F0F0F0" d="m21.74 14.63-3.054 1.436 1.626 2.957-3.316-.634-.42 3.35-2.309-2.464-2.31 2.463-.42-3.35-3.315.635 1.626-2.957-3.053-1.436 3.053-1.436-1.626-2.957 3.316.634.42-3.349 2.309 2.463 2.31-2.463.42 3.35 3.315-.635-1.626 2.957 3.053 1.436Z"/>
    <path fill="#0052B4" d="M14.267 19.283a4.654 4.654 0 1 0 0-9.307 4.654 4.654 0 0 0 0 9.307Z"/>
    <path fill="#F0F0F0" d="M14.267 17.11a2.482 2.482 0 0 1-2.48-2.48 2.482 2.482 0 0 1 2.48-2.48 2.483 2.483 0 0 1 2.48 2.48 2.483 2.483 0 0 1-2.48 2.48Z"/>
  </g>
  <defs>
    <clipPath id="a">
      <path fill="#fff" d="M0 0h50v50H0z" transform="translate(0 -.001)"/>
    </clipPath>
  </defs>
</svg>
