<svg xmlns="http://www.w3.org/2000/svg" width="50" height="50" fill="none" viewBox="0 0 50 50">
  <g clip-path="url(#a)">
    <path fill="#FFDA44" d="M33.696 1.556A24.946 24.946 0 0 0 25 .001c-3.058 0-5.987.55-8.695 1.555L15.218 25l1.087 23.445A24.946 24.946 0 0 0 25 50.001c3.058 0 5.988-.55 8.696-1.555L34.783 25 33.696 1.556Z"/>
    <path fill="#D80027" d="M0 25.001C0 35.75 6.784 44.914 16.304 48.446V1.556C6.784 5.088 0 14.252 0 25Z"/>
    <path fill="#6DA544" d="M50 25.001c0-10.75-6.784-19.913-16.304-23.445v46.89C43.216 44.914 50 35.75 50 25.001Z"/>
  </g>
  <defs>
    <clipPath id="a">
      <path fill="#fff" d="M0 0h50v50H0z" transform="translate(0 .001)"/>
    </clipPath>
  </defs>
</svg>
