<svg xmlns="http://www.w3.org/2000/svg" width="51" height="50" fill="none" viewBox="0 0 51 50">
  <g clip-path="url(#a)">
    <path fill="#F0F0F0" d="M36.858 2.48A24.9 24.9 0 0 0 25.988 0c-3.895 0-7.582.891-10.869 2.48L12.945 25l2.174 22.52A24.9 24.9 0 0 0 25.99 50a24.9 24.9 0 0 0 10.87-2.48L39.031 25 36.858 2.48Z"/>
    <path fill="#6DA544" d="M15.119 2.481C6.756 6.525.989 15.088.989 25c0 9.911 5.767 18.475 14.13 22.518V2.481Zm21.738 0v45.037C45.22 43.475 50.987 34.911 50.987 25c0-9.912-5.767-18.475-14.13-22.519ZM32.51 32.609l-6.52-20.653-6.523 20.654h4.891v5.434h3.261V32.61h4.891Z"/>
  </g>
  <defs>
    <clipPath id="a">
      <path fill="#fff" d="M0 0h50v50H0z" transform="translate(.988)"/>
    </clipPath>
  </defs>
</svg>
