<svg xmlns="http://www.w3.org/2000/svg" width="51" height="50" fill="none" viewBox="0 0 51 50">
  <g clip-path="url(#a)">
    <path fill="#F0F0F0" d="M3.059 14.13A24.9 24.9 0 0 0 .579 25a24.9 24.9 0 0 0 2.48 10.87l22.52 2.174 22.518-2.174A24.901 24.901 0 0 0 50.578 25c0-3.896-.891-7.583-2.48-10.87l-22.52-2.174-22.52 2.175Z"/>
    <path fill="#000" d="M3.06 35.87C7.103 44.232 15.666 50 25.578 50s18.475-5.768 22.518-14.13H3.06Z"/>
    <path fill="#D80027" d="M3.06 14.13h45.036C44.053 5.768 35.49 0 25.578 0S7.103 5.768 3.06 14.13Z"/>
    <path fill="#496E2D" d="M7.9 7.322c-9.763 9.763-9.763 25.592 0 35.356L25.578 25 7.9 7.322Z"/>
  </g>
  <defs>
    <clipPath id="a">
      <path fill="#fff" d="M0 0h50v50H0z" transform="translate(.578)"/>
    </clipPath>
  </defs>
</svg>
