<svg xmlns="http://www.w3.org/2000/svg" width="50" height="50" fill="none" viewBox="0 0 50 50">
  <g clip-path="url(#a)">
    <path fill="#F0F0F0" d="M25 50c13.807 0 25-11.193 25-25S38.807 0 25 0 0 11.193 0 25s11.193 25 25 25Z"/>
    <path fill="#D80027" d="M40.222 5.166c-8.95-6.887-21.494-6.887-30.444 0L25 20.388 40.222 5.166ZM25 29.612 9.778 44.834c8.95 6.887 21.494 6.887 30.444 0L25 29.612Z"/>
    <path fill="#6DA544" d="M20.388 25 5.166 9.778c-6.887 8.95-6.887 21.494 0 30.444L20.388 25Zm9.223 0 15.222 15.222c6.888-8.95 6.888-21.494 0-30.444L29.611 25Z"/>
    <path fill="#F0F0F0" d="M25 35.87c6.003 0 10.87-4.867 10.87-10.87 0-6.003-4.867-10.87-10.87-10.87-6.003 0-10.87 4.867-10.87 10.87 0 6.003 4.867 10.87 10.87 10.87Z"/>
    <path fill="#D80027" d="m25 17.391.941 1.63h1.883l-.942 1.631.942 1.63H25.94L25 23.914l-.942-1.63h-1.882l.941-1.63-.941-1.631h1.882l.942-1.63ZM20.215 25l.941 1.63h1.883l-.941 1.63.941 1.631h-1.883l-.94 1.63-.942-1.63H17.39l.941-1.63-.94-1.63h1.882L20.215 25Zm9.57 0 .94 1.63h1.883l-.94 1.63.94 1.631h-1.882l-.941 1.63-.942-1.63H26.96l.942-1.63-.942-1.63h1.883L29.785 25Z"/>
  </g>
  <defs>
    <clipPath id="a">
      <path fill="#fff" d="M0 0h50v50H0z"/>
    </clipPath>
  </defs>
</svg>
