<svg xmlns="http://www.w3.org/2000/svg" width="50" height="50" fill="none" viewBox="0 0 50 50">
  <g clip-path="url(#a)">
    <path fill="#F0F0F0" d="M25 49.997c13.805 0 24.997-11.192 24.997-24.997S38.805.004 25 .004.004 11.195.004 25C.004 38.805 11.195 49.997 25 49.997Z"/>
    <path fill="#000" d="M3.353 12.502a25.013 25.013 0 0 0-2.515 6.077L42.64 42.715a25.018 25.018 0 0 0 4.006-5.217L3.353 12.502Z"/>
    <path fill="#FFDA44" d="M37.498 3.353C27.497-2.422 15.164-.497 7.358 7.285L49.163 31.42C52 20.77 47.5 9.127 37.498 3.353ZM12.502 46.647c10.002 5.775 22.334 3.85 30.14-3.932L.837 18.579C-1.999 29.23 2.5 40.873 12.502 46.647Z"/>
    <path fill="#D80027" d="M32.064 22.283a7.064 7.064 0 1 1-13.279-3.36 8.694 8.694 0 1 0 12.43 0c.542 1 .85 2.144.85 3.36Z"/>
    <path fill="#D80027" d="M23.37 14.132h3.26v16.302h-3.26V14.132Z"/>
    <path fill="#D80027" d="M30.434 17.392H19.566c0 .75.654 1.359 1.404 1.359h-.045c0 .75.608 1.358 1.358 1.358 0 .75.608 1.359 1.359 1.359h2.717c.75 0 1.358-.608 1.358-1.359.75 0 1.359-.608 1.359-1.358h-.046c.75 0 1.404-.608 1.404-1.359ZM17.393 31.52h15.215v3.261H17.393v-3.26Z"/>
    <path fill="#D80027" d="M28.26 32.608h6.521v3.26h-6.52v-3.26Zm-13.04 0h6.52v3.26h-6.52v-3.26Z"/>
  </g>
  <defs>
    <clipPath id="a">
      <path fill="#fff" d="M0 0h50v50H0z"/>
    </clipPath>
  </defs>
</svg>
