<svg xmlns="http://www.w3.org/2000/svg" width="51" height="50" fill="none" viewBox="0 0 51 50">
  <g clip-path="url(#a)">
    <path fill="#F0F0F0" d="M25.578 50c13.807 0 25-11.193 25-25s-11.193-25-25-25-25 11.193-25 25 11.193 25 25 25Z"/>
    <path fill="#D80027" d="M25.578 0C14.828 0 5.665 6.784 2.133 16.304h46.89C45.49 6.784 36.327 0 25.578 0Z"/>
    <path fill="#000" d="M25.578 50c10.749 0 19.912-6.784 23.445-16.304H2.133C5.665 43.216 14.829 50 25.578 50Z"/>
    <path fill="#6DA544" d="m15.516 19.022 1.35 4.151h4.365l-3.532 2.567 1.349 4.151-3.532-2.566-3.531 2.566 1.349-4.151-3.532-2.567h4.365l1.35-4.151Zm20.125 0 1.35 4.151h4.365l-3.532 2.567 1.349 4.151-3.532-2.566-3.532 2.566 1.35-4.151-3.532-2.567h4.365l1.35-4.151Z"/>
  </g>
  <defs>
    <clipPath id="a">
      <path fill="#fff" d="M0 0h50v50H0z" transform="translate(.578)"/>
    </clipPath>
  </defs>
</svg>
