<svg xmlns="http://www.w3.org/2000/svg" width="50" height="50" fill="none" viewBox="0 0 50 50">
  <g clip-path="url(#a)">
    <path fill="#F0F0F0" d="M48.445 33.695A24.944 24.944 0 0 0 50 24.999c0-3.058-.55-5.987-1.555-8.696L25 14.13 1.555 16.303A24.944 24.944 0 0 0 0 25c0 3.058.55 5.987 1.555 8.696L25 35.869l23.445-2.174Z"/>
    <path fill="#338AF3" d="M25 49.999c10.749 0 19.913-6.784 23.445-16.304H1.555C5.087 43.215 14.25 49.999 25 49.999Z"/>
    <path fill="#6DA544" d="M25-.001c-10.75 0-19.913 6.784-23.445 16.304h46.89C44.913 6.783 35.749 0 25 0Z"/>
  </g>
  <defs>
    <clipPath id="a">
      <path fill="#fff" d="M0 0h50v50H0z" transform="translate(0 -.001)"/>
    </clipPath>
  </defs>
</svg>
