<svg xmlns="http://www.w3.org/2000/svg" width="50" height="50" fill="none" viewBox="0 0 50 50">
  <g clip-path="url(#a)">
    <path fill="#FFDA44" d="M49.139 31.522c.56-2.08.861-4.265.861-6.522 0-2.256-.3-4.442-.861-6.522L22.826.095a24.873 24.873 0 0 0-13.043 5.07L.86 18.479A25.028 25.028 0 0 0 0 25c0 2.244.297 4.417.851 6.486l8.932 13.349a24.872 24.872 0 0 0 13.043 5.07l26.313-18.383Z"/>
    <path fill="#0052B4" d="M.861 31.522a25.021 25.021 0 0 0 8.922 13.313V31.522H.86Zm21.965 18.383A25.21 25.21 0 0 0 25 50c11.55 0 21.27-7.834 24.139-18.478H22.826v18.383Zm26.313-31.427C46.27 7.834 36.55 0 25 0c-.733 0-1.457.033-2.174.095v18.383H49.14ZM9.783 5.166A25.021 25.021 0 0 0 .86 18.478h8.922V5.166Z"/>
    <path fill="#D80027" d="M49.788 21.74H19.565V.593a24.83 24.83 0 0 0-6.522 2.446v18.7H.213a25.213 25.213 0 0 0 0 6.52h12.831v18.7a24.831 24.831 0 0 0 6.522 2.446V28.26h30.223a25.26 25.26 0 0 0 0-6.522Z"/>
  </g>
  <defs>
    <clipPath id="a">
      <path fill="#fff" d="M0 0h50v50H0z"/>
    </clipPath>
  </defs>
</svg>
