<svg xmlns="http://www.w3.org/2000/svg" width="50" height="50" fill="none" viewBox="0 0 50 50">
  <g clip-path="url(#a)">
    <path fill="#FFDA44" d="M25 50c13.807 0 25-11.193 25-25S38.807 0 25 0 0 11.193 0 25s11.193 25 25 25Z"/>
    <path fill="#D80027" d="M28.802 49.713a24.867 24.867 0 0 0 10.982-4.553L25 25l3.802 24.713ZM21.198.287A24.869 24.869 0 0 0 10.216 4.84L25 25 21.198.287ZM10.216 45.16a24.87 24.87 0 0 0 10.982 4.553L25 25 10.216 45.16ZM4.84 10.216A24.869 24.869 0 0 0 .287 21.198L25 25 4.84 10.216ZM.287 28.802A24.866 24.866 0 0 0 4.84 39.784L25 25 .287 28.802Zm49.426-7.604a24.869 24.869 0 0 0-4.553-10.982L25 25l24.713-3.802ZM39.784 4.84A24.868 24.868 0 0 0 28.802.287L25 25 39.784 4.84Zm5.376 34.944a24.872 24.872 0 0 0 4.553-10.982L25 25l20.16 14.784Z"/>
    <path fill="#D80027" d="M25 33.696a8.696 8.696 0 1 0 0-17.391 8.696 8.696 0 0 0 0 17.39Z"/>
    <path fill="#FFDA44" d="M25 31.522a6.522 6.522 0 1 0 0-13.044 6.522 6.522 0 0 0 0 13.044Z"/>
  </g>
  <defs>
    <clipPath id="a">
      <path fill="#fff" d="M0 0h50v50H0z"/>
    </clipPath>
  </defs>
</svg>
