<svg xmlns="http://www.w3.org/2000/svg" width="50" height="50" fill="none" viewBox="0 0 50 50">
  <g clip-path="url(#a)">
    <path fill="#FFDA44" d="M25 50c13.807 0 25-11.193 25-25S38.807 0 25 0 0 11.193 0 25s11.193 25 25 25Z"/>
    <path fill="#A2001D" d="M50 25c0-8.58-4.323-16.15-10.91-20.652H10.91C4.323 8.85 0 16.42 0 25c0 8.58 4.323 16.15 10.91 20.652h28.18C45.677 41.15 50 33.58 50 25Z"/>
    <path fill="#FFDA44" d="M19.565 18.478h10.87V14.13l-2.174 1.087-3.26-3.26-3.262 3.26-2.174-1.087v4.348ZM34.783 25H29.35a2.508 2.508 0 1 0-4.383-2.435A2.508 2.508 0 1 0 20.584 25h-5.367c0 1.662 1.448 3.01 3.11 3.01h-.1a3.01 3.01 0 0 0 2.15 2.885l-2.442 2.443 2.305 2.306 3.271-3.271c.128.047.26.084.398.11l-1.976 4.463a8.123 8.123 0 0 0 3.067.598c1.085 0 2.12-.213 3.068-.598l-1.977-4.463c.137-.026.27-.063.398-.11l3.27 3.27 2.306-2.305-2.443-2.443a3.01 3.01 0 0 0 2.15-2.885h-.1c1.663 0 3.11-1.348 3.11-3.01Z"/>
    <path fill="#6DA544" d="m25 26.63-3.533 1.63v3.262L25 33.696l3.532-2.174V28.26L25 26.63Z"/>
    <path fill="#0052B4" d="M21.467 25h7.066v4.348h-7.066V25Z"/>
  </g>
  <defs>
    <clipPath id="a">
      <path fill="#fff" d="M0 0h50v50H0z"/>
    </clipPath>
  </defs>
</svg>
