<svg xmlns="http://www.w3.org/2000/svg" width="50" height="50" fill="none" viewBox="0 0 50 50">
  <g clip-path="url(#a)">
    <path fill="#338AF3" d="M25 0c-3.058 0-5.988.55-8.696 1.555L15.217 25l1.087 23.445A24.944 24.944 0 0 0 25 50c3.058 0 5.987-.55 8.696-1.555L34.783 25 33.695 1.555A24.947 24.947 0 0 0 25 0Z"/>
    <path fill="#FFDA44" d="M50 25c0-10.75-6.784-19.913-16.304-23.445v46.89C43.216 44.913 50 35.75 50 25Z"/>
    <path fill="#F0F0F0" d="M16.304 48.445V1.555C6.784 5.087 0 14.25 0 25s6.784 19.913 16.304 23.445Z"/>
  </g>
  <defs>
    <clipPath id="a">
      <path fill="#fff" d="M0 0h50v50H0z"/>
    </clipPath>
  </defs>
</svg>
