<svg xmlns="http://www.w3.org/2000/svg" width="50" height="50" fill="none" viewBox="0 0 50 50">
  <g clip-path="url(#a)">
    <path fill="#F0F0F0" d="M25 50.001c13.807 0 25-11.193 25-25s-11.193-25-25-25-25 11.193-25 25 11.193 25 25 25Z"/>
    <path fill="#ACABB1" d="M44.638 20.11h-8.225a2.718 2.718 0 0 0-2.717-2.718l-2.174 4.348s2.319 6.522 2.246 6.522h2.717a2.718 2.718 0 0 0 2.718-2.718c1.5 0 2.717-1.216 2.717-2.717h-.09c1.5 0 2.808-1.217 2.808-2.717Zm-39.276 0h8.225a2.717 2.717 0 0 1 2.717-2.718l2.174 4.348s-2.319 6.522-2.246 6.522h-2.717a2.717 2.717 0 0 1-2.718-2.718 2.717 2.717 0 0 1-2.717-2.717h.09c-1.5 0-2.808-1.217-2.808-2.717Z"/>
    <path fill="#FFDA44" d="M33.696 34.783v1.087H16.304v-1.087h-4.347v4.348h4.347v1.087h17.392v-1.087h4.348v-4.348h-4.348Z"/>
    <path fill="#0052B4" d="M16.304 17.392v10.87c0 6.656 8.696 8.695 8.696 8.695s8.696-2.04 8.696-8.695v-10.87L25 16.305l-8.696 1.087Z"/>
    <path fill="#D80027" d="M16.304 21.74h17.392v6.522H16.304v-6.521Z"/>
    <path fill="#FFDA44" d="M29.348 11.957v1.63l-1.087.544-1.087-1.087v-3.26h-4.348v3.26l-1.087 1.087-1.087-.543v-1.63h-4.348v5.434h17.392v-5.435h-4.348Z"/>
  </g>
  <defs>
    <clipPath id="a">
      <path fill="#fff" d="M0 0h50v50H0z" transform="translate(0 .001)"/>
    </clipPath>
  </defs>
</svg>
