<svg xmlns="http://www.w3.org/2000/svg" width="50" height="50" fill="none" viewBox="0 0 50 50">
  <g clip-path="url(#a)">
    <path fill="#F0F0F0" d="M25 50.001c13.807 0 25-11.193 25-25s-11.193-25-25-25-25 11.193-25 25 11.193 25 25 25Z"/>
    <path fill="#0052B4" d="M48.445 16.305H1.555A24.944 24.944 0 0 0 0 25.001c0 3.058.55 5.987 1.555 8.696h46.89A24.946 24.946 0 0 0 50 25c0-3.058-.55-5.987-1.555-8.696Z"/>
    <path fill="#D80027" d="M25 .001c-7.577 0-14.367 3.371-18.951 8.696H43.95C39.367 3.372 32.577 0 25.001 0Zm18.951 41.304H6.05c4.583 5.325 11.373 8.696 18.95 8.696s14.367-3.371 18.951-8.696Z"/>
  </g>
  <defs>
    <clipPath id="a">
      <path fill="#fff" d="M0 0h50v50H0z" transform="translate(0 .001)"/>
    </clipPath>
  </defs>
</svg>
