<svg xmlns="http://www.w3.org/2000/svg" width="50" height="50" fill="none" viewBox="0 0 50 50">
  <g clip-path="url(#a)">
    <path fill="#F0F0F0" d="M25 50.001c13.807 0 25-11.193 25-25s-11.193-25-25-25-25 11.193-25 25 11.193 25 25 25Z"/>
    <path fill="#000" d="M15.217 16.305h33.228C44.913 6.785 35.749.001 25 .001A24.919 24.919 0 0 0 7.323 7.324l7.894 8.981Z"/>
    <path fill="#6DA544" d="M15.217 33.697h33.228C44.913 43.217 35.749 50 25 50a24.919 24.919 0 0 1-17.677-7.323l7.894-8.981Z"/>
    <path fill="#D80027" d="M7.322 7.323c-9.763 9.763-9.763 25.593 0 35.356L25 25 7.322 7.323Z"/>
    <path fill="#F0F0F0" d="m9.922 19.566 1.372 2.87 3.099-.717-1.388 2.862 2.492 1.976-3.102.699.008 3.18-2.48-1.99-2.482 1.99.01-3.18-3.103-.7 2.491-1.975-1.387-2.862 3.098.716 1.372-2.869Z"/>
  </g>
  <defs>
    <clipPath id="a">
      <path fill="#fff" d="M0 0h50v50H0z" transform="translate(0 .001)"/>
    </clipPath>
  </defs>
</svg>
