<svg xmlns="http://www.w3.org/2000/svg" width="50" height="50" fill="none" viewBox="0 0 50 50">
  <g clip-path="url(#a)">
    <path fill="#FFDA44" d="M25 50.001c13.807 0 25-11.193 25-25s-11.193-25-25-25-25 11.193-25 25 11.193 25 25 25Z"/>
    <path fill="#D80027" d="M25 .001c-6.12 0-11.727 2.2-16.073 5.853L35.87 25 8.927 44.148A24.897 24.897 0 0 0 25 50.001c13.807 0 25-11.193 25-25s-11.193-25-25-25Z"/>
    <path fill="#000" d="M7.322 7.323c-9.763 9.763-9.763 25.593 0 35.356L25 25 7.322 7.323Z"/>
    <path fill="#F0F0F0" d="m6.932 19.274 3.804 3.6 4.6-2.505-2.248 4.73 3.805 3.602-5.195-.677-2.249 4.732-.961-5.15-5.195-.677 4.6-2.506-.961-5.15Z"/>
  </g>
  <defs>
    <clipPath id="a">
      <path fill="#fff" d="M0 0h50v50H0z" transform="translate(0 .001)"/>
    </clipPath>
  </defs>
</svg>
