<svg xmlns="http://www.w3.org/2000/svg" width="50" height="50" fill="none" viewBox="0 0 50 50">
  <g clip-path="url(#a)">
    <path fill="#FFDA44" d="M35.87 2.48A24.9 24.9 0 0 0 25 0a24.9 24.9 0 0 0-10.87 2.48L11.957 25l2.175 22.52A24.9 24.9 0 0 0 25 50a24.9 24.9 0 0 0 10.87-2.48L38.044 25 35.87 2.48Z"/>
    <path fill="#0052B4" d="M14.13 2.481C5.768 6.525 0 15.088 0 25c0 9.911 5.768 18.475 14.13 22.518V2.481Zm21.74 0v45.037C44.232 43.475 50 34.911 50 25c0-9.912-5.768-18.475-14.13-22.519Z"/>
    <path fill="#D80027" d="m32.065 27.174 1.63 2.174v-8.696l-1.63 2.174h-4.891v-4.891l2.174-1.63h-8.696l2.174 1.63v4.89h-4.891l-1.63-2.173v8.696l1.63-2.174h4.89v4.891l-2.173 1.63h8.696l-2.174-1.63v-4.891h4.891Z"/>
    <path fill="#F0F0F0" d="M31.522 23.913h-5.435v-5.435h-2.174v5.435h-5.435v2.174h5.435v5.435h2.174v-5.435h5.435v-2.174Z"/>
  </g>
  <defs>
    <clipPath id="a">
      <path fill="#fff" d="M0 0h50v50H0z"/>
    </clipPath>
  </defs>
</svg>
