<svg xmlns="http://www.w3.org/2000/svg" width="50" height="51" fill="none" viewBox="0 0 50 51">
  <g clip-path="url(#a)">
    <path fill="#F0F0F0" d="M25 50.99c13.807 0 25-11.194 25-25 0-13.808-11.193-25-25-25s-25 11.192-25 25c0 13.806 11.193 25 25 25Z"/>
    <path fill="#A2001D" d="M25 .99C14.665.99 5.795 7.26 1.987 16.206h46.026C44.205 7.26 35.335.989 25 .989Z"/>
    <path fill="#496E2D" d="M25 50.99c10.335 0 19.205-6.273 23.013-15.218H1.987C5.795 44.717 14.665 50.989 25 50.989Z"/>
    <path fill="#0052B4" d="M49.139 19.468H.86A25.027 25.027 0 0 0 0 25.989a25 25 0 0 0 .861 6.522H49.14c.56-2.08.861-4.265.861-6.522 0-2.256-.3-4.442-.861-6.521Z"/>
  </g>
  <defs>
    <clipPath id="a">
      <path fill="#fff" d="M0 0h50v50H0z" transform="translate(0 .99)"/>
    </clipPath>
  </defs>
</svg>
