<svg xmlns="http://www.w3.org/2000/svg" width="50" height="51" fill="none" viewBox="0 0 50 51">
  <g clip-path="url(#a)">
    <path fill="#F0F0F0" d="M25 50.99c13.807 0 25-11.194 25-25 0-13.808-11.193-25-25-25s-25 11.192-25 25c0 13.806 11.193 25 25 25Z"/>
    <path fill="#0052B4" d="M46.96 14.033c-3.23-5.921-8.785-10.39-15.438-12.184l-1.087 12.184H46.96Zm-43.92 0h16.525L18.478 1.849C11.825 3.642 6.27 8.112 3.04 14.033Z"/>
    <path fill="#6DA544" d="M30.435 25.99v11.956H46.96A24.887 24.887 0 0 0 50 25.989H30.435Zm-10.87 0H0c0 4.33 1.102 8.404 3.04 11.956h16.525V25.989Z"/>
    <path fill="#FFDA44" d="M3.04 37.946c3.23 5.92 8.785 10.39 15.438 12.183l1.087-10.655L3.04 37.946ZM31.522 50.13c6.653-1.794 12.208-6.263 15.438-12.184l-16.525 1.528 1.087 10.655Zm-1.087-10.656 16.525-1.528H30.435v1.528Z"/>
    <path fill="#FFDA44" d="M19.565 37.946H3.04l16.525 1.528v-1.528Z"/>
    <path fill="#D80027" d="M25 .99c-2.256 0-4.442.3-6.522.86v48.278c2.08.56 4.265.861 6.522.861 2.257 0 4.442-.3 6.522-.861V1.85A25.027 25.027 0 0 0 25 .99Z"/>
    <path fill="#FFDA44" d="m13.447 6.424.675 2.076h2.182L14.54 9.783l.674 2.076-1.766-1.283-1.766 1.283.675-2.076L10.59 8.5h2.183l.674-2.076Z"/>
  </g>
  <defs>
    <clipPath id="a">
      <path fill="#fff" d="M0 0h50v50H0z" transform="translate(0 .99)"/>
    </clipPath>
  </defs>
</svg>
