<svg xmlns="http://www.w3.org/2000/svg" width="50" height="50" fill="none" viewBox="0 0 50 50">
  <g clip-path="url(#a)">
    <path fill="#F0F0F0" d="M25 50c13.807 0 25-11.193 25-25S38.807 0 25 0 0 11.193 0 25s11.193 25 25 25Z"/>
    <path fill="#FFDA44" d="M25 0C16.136 0 8.35 4.614 3.91 11.57l33.903 34.9C45.112 42.104 50 34.123 50 25 50 11.193 38.807 0 25 0Z"/>
    <path fill="#0052B4" d="M50 25c0-6.486-2.47-12.396-6.522-16.839V41.84A24.908 24.908 0 0 0 50 25ZM31.23 47.058l2.618-.002.808-2.49.81 2.49 1.314-.001a24.965 24.965 0 0 0 2.334-1.42L4.364 10.887A25 25 0 0 0 2.8 13.498l.308.949 2.619-.002-2.118 1.54.811 2.49-2.12-1.537-1.263.92A24.991 24.991 0 0 0 0 25c0 13.807 11.193 25 25 25 2.92 0 5.721-.501 8.325-1.42l-2.096-1.522ZM5.575 23.913l.808-2.49-2.12-1.539 2.619-.002.808-2.49.81 2.49 2.62-.002-2.119 1.54.811 2.49-2.12-1.537-2.117 1.54Zm5.393 5.435.808-2.491-2.12-1.538 2.62-.002.807-2.49.81 2.49 2.62-.002-2.118 1.54.81 2.49-2.12-1.538-2.117 1.541Zm5.393 5.435.808-2.491-2.12-1.538 2.619-.002.808-2.491.81 2.49 2.62-.002-2.118 1.54.81 2.491-2.12-1.538-2.117 1.54Zm7.51 3.894-2.117 1.54.808-2.49-2.12-1.539 2.619-.001.808-2.491.81 2.49 2.62-.002-2.118 1.54.81 2.49-2.12-1.537Zm3.276 6.975.808-2.49-2.12-1.539 2.62-.002.807-2.49.81 2.49 2.62-.002-2.118 1.54.81 2.49-2.12-1.538-2.117 1.541Z"/>
  </g>
  <defs>
    <clipPath id="a">
      <path fill="#fff" d="M0 0h50v50H0z"/>
    </clipPath>
  </defs>
</svg>
