<svg xmlns="http://www.w3.org/2000/svg" width="50" height="50" fill="none" viewBox="0 0 50 50">
  <g clip-path="url(#a)">
    <path fill="#F0F0F0" d="M25 50c13.807 0 25-11.193 25-25S38.807 0 25 0 0 11.193 0 25s11.193 25 25 25Z"/>
    <path fill="#0052B4" d="M5.168 9.78a24.91 24.91 0 0 0-4.307 8.699h13.006l-8.699-8.7Zm43.972 8.699a24.91 24.91 0 0 0-4.307-8.7l-8.7 8.7H49.14ZM.861 31.522a24.911 24.911 0 0 0 4.307 8.699l8.699-8.699H.86ZM40.22 5.168A24.91 24.91 0 0 0 31.522.861v13.006l8.698-8.699ZM9.78 44.832a24.91 24.91 0 0 0 8.698 4.307V36.133L9.78 44.832ZM18.478.861a24.911 24.911 0 0 0-8.699 4.307l8.699 8.699V.86Zm13.043 48.278a24.911 24.911 0 0 0 8.7-4.307l-8.7-8.699V49.14Zm4.613-17.617 8.699 8.699a24.91 24.91 0 0 0 4.306-8.699H36.134Z"/>
    <path fill="#D80027" d="M49.788 21.74H28.261V.211a25.248 25.248 0 0 0-6.522 0v21.527H.212a25.248 25.248 0 0 0 0 6.522h21.527v21.527a25.257 25.257 0 0 0 6.522 0V28.261h21.527a25.257 25.257 0 0 0 0-6.522Z"/>
    <path fill="#D80027" d="m31.521 31.522 11.156 11.156a25.053 25.053 0 0 0 1.47-1.605l-9.551-9.551h-3.074Zm-13.043 0L7.322 42.678c.513.513 1.05 1.002 1.605 1.47l9.551-9.552v-3.074Zm0-13.044L7.322 7.322a25.06 25.06 0 0 0-1.47 1.605l9.552 9.551h3.074Zm13.043.001L42.678 7.322a25.023 25.023 0 0 0-1.605-1.469l-9.55 9.551v3.075Z"/>
  </g>
  <defs>
    <clipPath id="a">
      <path fill="#fff" d="M0 0h50v50H0z"/>
    </clipPath>
  </defs>
</svg>
