<svg xmlns="http://www.w3.org/2000/svg" width="50" height="50" fill="none" viewBox="0 0 50 50">
  <g clip-path="url(#a)">
    <path fill="#FFDA44" d="M35.87 2.48A24.901 24.901 0 0 0 25 0c-3.895 0-7.583.891-10.87 2.48L11.957 25l2.175 22.52A24.9 24.9 0 0 0 25 50a24.9 24.9 0 0 0 10.87-2.48L38.044 25 35.87 2.48Z"/>
    <path fill="#0052B4" d="M14.13 2.481C5.768 6.525 0 15.088 0 25c0 9.911 5.768 18.475 14.13 22.518V2.481Z"/>
    <path fill="#D80027" d="M35.87 2.481v45.037C44.232 43.475 50 34.911 50 25c0-9.912-5.768-18.475-14.13-22.519Z"/>
    <path fill="#FF9811" d="M33.696 19.67h-5.979a2.717 2.717 0 1 0-5.434 0h-5.979c0 1.477 1.288 2.675 2.765 2.675h-.089a2.676 2.676 0 0 0 2.676 2.676c0 1.308.94 2.395 2.18 2.628l-2.108 4.76a8.68 8.68 0 0 0 3.272.639 8.667 8.667 0 0 0 3.272-.64l-2.108-4.76a2.675 2.675 0 0 0 2.18-2.627 2.676 2.676 0 0 0 2.676-2.676h-.09c1.478 0 2.766-1.198 2.766-2.675Z"/>
    <path fill="#0052B4" d="M25 23.37 21.467 25v3.26L25 30.436l3.533-2.174V25L25 23.37Z"/>
    <path fill="#D80027" d="M21.467 21.74h7.066V25h-7.066v-3.26Z"/>
  </g>
  <defs>
    <clipPath id="a">
      <path fill="#fff" d="M0 0h50v50H0z"/>
    </clipPath>
  </defs>
</svg>
