<svg xmlns="http://www.w3.org/2000/svg" width="50" height="50" fill="none" viewBox="0 0 50 50">
  <g clip-path="url(#a)">
    <path fill="#FFDA44" d="m13.552 47.23 18.366-15.312L47.23 13.552A25.111 25.111 0 0 0 36.462 2.777l-18.38 15.305-15.305 18.38a25.109 25.109 0 0 0 10.775 10.769Z"/>
    <path fill="#D80027" d="M42.678 42.678c7.888-7.887 9.402-19.732 4.546-29.141L13.537 47.224c9.408 4.856 21.254 3.342 29.141-4.546Z"/>
    <path fill="#6DA544" d="M7.321 7.321C-.566 15.21-2.08 27.054 2.776 36.463L36.463 2.776C27.054-2.08 15.209-.566 7.32 7.321Z"/>
  </g>
  <defs>
    <clipPath id="a">
      <path fill="#fff" d="M0 0h50v50H0z"/>
    </clipPath>
  </defs>
</svg>
