<svg xmlns="http://www.w3.org/2000/svg" width="50" height="50" fill="none" viewBox="0 0 50 50">
  <g clip-path="url(#a)">
    <path fill="#F0F0F0" d="M25 50c13.807 0 25-11.193 25-25S38.807 0 25 0 0 11.193 0 25s11.193 25 25 25Z"/>
    <path fill="#0052B4" d="M45.833 27.992c-2.083 0-2.083-1.905-4.167-1.905-2.083 0-2.083 1.905-4.166 1.905s-2.084-1.905-4.167-1.905c-2.083 0-2.083 1.905-4.166 1.905-2.084 0-2.084-1.905-4.167-1.905-2.084 0-2.084 1.905-4.167 1.905-2.083 0-2.083-1.905-4.166-1.905-2.084 0-2.084 1.905-4.167 1.905-2.084 0-2.084-1.905-4.167-1.905-2.083 0-2.083 1.905-4.167 1.905-2.072 0-2.084-1.884-4.134-1.904a25.15 25.15 0 0 0 .401 3.364c1.66.244 1.806 1.873 3.734 1.873 2.083 0 2.083-1.905 4.166-1.905s2.083 1.905 4.167 1.905c2.083 0 2.083-1.905 4.167-1.905 2.083 0 2.083 1.905 4.166 1.905 2.084 0 2.084-1.905 4.167-1.905 2.083 0 2.083 1.905 4.167 1.905 2.083 0 2.083-1.905 4.166-1.905 2.084 0 2.084 1.905 4.167 1.905 2.083 0 2.083-1.905 4.166-1.905 2.084 0 2.084 1.905 4.167 1.905 1.928 0 2.073-1.63 3.734-1.873.206-1.098.343-2.22.4-3.364-2.05.02-2.062 1.904-4.134 1.904Zm-4.167 4.617c-2.083 0-2.083 1.904-4.166 1.904s-2.084-1.904-4.167-1.904c-2.083 0-2.083 1.904-4.166 1.904-2.084 0-2.084-1.904-4.167-1.904-2.084 0-2.084 1.904-4.167 1.904-2.083 0-2.083-1.904-4.166-1.904-2.084 0-2.084 1.904-4.167 1.904-2.084 0-2.084-1.904-4.167-1.904-2.083 0-2.083 1.904-4.167 1.904-1.534 0-1.94-1.032-2.88-1.577a24.876 24.876 0 0 0 2.22 4.837c.196.047.413.074.66.074 2.084 0 2.084-1.905 4.167-1.905 2.083 0 2.083 1.905 4.167 1.905 2.083 0 2.083-1.905 4.167-1.905 2.083 0 2.083 1.905 4.166 1.905s2.083-1.905 4.167-1.905c2.083 0 2.083 1.905 4.166 1.905 2.084 0 2.084-1.905 4.167-1.905 2.084 0 2.084 1.905 4.167 1.905 2.083 0 2.083-1.905 4.166-1.905 2.084 0 2.084 1.905 4.167 1.905.247 0 .465-.027.66-.075a24.862 24.862 0 0 0 2.22-4.835c-.94.544-1.345 1.577-2.88 1.577-2.083 0-2.083-1.905-4.167-1.905Zm7.752-12.986c-1.523.316-1.717 1.847-3.585 1.847-2.083 0-2.083-1.905-4.167-1.905-2.083 0-2.083 1.905-4.166 1.905s-2.084-1.905-4.167-1.905c-2.083 0-2.083 1.905-4.166 1.905-2.084 0-2.084-1.905-4.167-1.905-1.126 0-1.644.556-2.21 1.068v3.333c.566-.511 1.084-1.067 2.21-1.067 2.083 0 2.083 1.904 4.167 1.904 2.083 0 2.083-1.904 4.166-1.904 2.084 0 2.084 1.904 4.167 1.904 2.083 0 2.083-1.904 4.166-1.904 2.084 0 2.084 1.904 4.167 1.904 1.928 0 2.073-1.629 3.734-1.873.106 0 .225 0 .347-.002a24.96 24.96 0 0 0-.496-3.305Zm-1.826-5.338c-.432.362-.93.663-1.759.663-2.083 0-2.083-1.905-4.167-1.905-2.083 0-2.083 1.905-4.166 1.905s-2.084-1.905-4.167-1.905c-2.083 0-2.083 1.905-4.166 1.905-2.084 0-2.084-1.905-4.167-1.905-1.126 0-1.644.557-2.21 1.068v3.333c.566-.511 1.084-1.067 2.21-1.067 2.083 0 2.083 1.905 4.167 1.905 2.083 0 2.083-1.905 4.166-1.905 2.084 0 2.084 1.905 4.167 1.905 2.083 0 2.083-1.905 4.166-1.905 2.084 0 2.084 1.905 4.167 1.905 1.478 0 1.909-.958 2.778-1.515a24.835 24.835 0 0 0-1.019-2.482Zm-5.748-7.758a3.273 3.273 0 0 0-.178-.005c-2.083 0-2.083 1.905-4.166 1.905s-2.083-1.905-4.167-1.905c-2.083 0-2.083 1.905-4.166 1.905-2.084 0-2.084-1.905-4.167-1.905-1.126 0-1.644.556-2.21 1.067v3.333c.566-.51 1.084-1.067 2.21-1.067 2.083 0 2.083 1.905 4.167 1.905 2.083 0 2.083-1.905 4.166-1.905 2.084 0 2.084 1.905 4.167 1.905 2.083 0 2.083-1.905 4.166-1.905 2.084 0 2.084 1.905 4.167 1.905.128 0 .248-.008.362-.021a25.12 25.12 0 0 0-4.35-5.212ZM31.39.826c-.572.514-1.089 1.08-2.224 1.08C27.084 1.905 27.084 0 25 0c-1.078 0-1.598.51-2.138 1.002v3.333c.54-.492 1.06-1.001 2.138-1.001 2.083 0 2.083 1.904 4.167 1.904 2.083 0 2.083-1.904 4.166-1.904 2.084 0 2.084 1.904 4.167 1.904.874 0 1.381-.335 1.83-.724A24.881 24.881 0 0 0 31.39.826Zm-2.224 46.731c-2.083 0-2.083-1.905-4.166-1.905-2.084 0-2.084 1.905-4.167 1.905-2.083 0-2.083-1.905-4.166-1.905-1.596 0-1.97 1.117-2.994 1.64a24.841 24.841 0 0 0 9.268 2.623c.513-.468 1.034-.93 2.059-.93 1.025 0 1.545.462 2.058.93a24.841 24.841 0 0 0 9.269-2.623c-1.024-.523-1.398-1.64-2.994-1.64-2.083 0-2.083 1.905-4.166 1.905Zm8.334-6.522c-2.084 0-2.084-1.905-4.167-1.905-2.083 0-2.083 1.905-4.166 1.905-2.084 0-2.084-1.905-4.168-1.905-2.083 0-2.083 1.905-4.166 1.905s-2.083-1.905-4.166-1.905c-2.084 0-2.084 1.905-4.167 1.905-2.084 0-2.084-1.905-4.167-1.905-1.498 0-1.92.986-2.812 1.539.56.695 1.155 1.36 1.784 1.991a2.56 2.56 0 0 1 1.028-.196c2.083 0 2.083 1.904 4.167 1.904 2.083 0 2.083-1.904 4.167-1.904 2.083 0 2.083 1.904 4.166 1.904s2.083-1.904 4.166-1.904c2.084 0 2.084 1.904 4.167 1.904 2.084 0 2.084-1.904 4.167-1.904 2.083 0 2.083 1.904 4.167 1.904 2.083 0 2.083-1.904 4.166-1.904.415 0 .746.076 1.028.197a25.08 25.08 0 0 0 1.785-1.992c-.893-.553-1.314-1.538-2.813-1.538-2.083 0-2.083 1.904-4.166 1.904Z"/>
    <path fill="#F0F0F0" d="M24.933 25H25v-.067l-.067.067Z"/>
    <path fill="#0052B4" d="M25 13.043v7.346l-8.696-8.432L25 13.043ZM13.044 25h7.344l-7.345-9.783-1.086 7.609L13.043 25Z"/>
    <path fill="#F0F0F0" d="M25 13.043V0h-.004C11.19.002 0 11.194 0 25h13.044v-7.345L20.388 25h4.545l.067-.067V20.39l-7.345-7.345H25Z"/>
    <path fill="#D80027" d="M12.648 3.26a25.119 25.119 0 0 0-9.387 9.388V25h6.522V9.783H25V3.26H12.648Z"/>
    <path fill="#D80027" d="m25 21.926-8.882-8.882h-3.074L25 25v-3.074Z"/>
    <path fill="#6DA544" d="M32.609 13.043h9.782L37.5 17.936l-4.891-4.891Z"/>
    <path fill="#A2001D" d="M36.413 16.848h2.174v5.978h-2.174v-5.978Zm0 15.761h2.174v5.978h-2.174v-5.978Z"/>
    <path fill="#FFDA44" d="M44.022 29.348a3.26 3.26 0 0 0-5.435-2.43V25h1.087v-2.174h-1.087V21.74h-2.174v1.087h-1.087V25h1.087v1.918a3.26 3.26 0 0 0-4.348 4.86v1.918h10.87v-1.918a3.252 3.252 0 0 0 1.087-2.43Z"/>
    <path fill="#D80027" d="M40.76 28.26a1.07 1.07 0 0 0-.723.277l-1.45 1.298h-2.174l-1.45-1.297a1.088 1.088 0 0 0-1.448 1.62l.724.648v.716h6.522v-.716l.724-.648a1.088 1.088 0 0 0-.724-1.897Z"/>
  </g>
  <defs>
    <clipPath id="a">
      <path fill="#fff" d="M0 0h50v50H0z"/>
    </clipPath>
  </defs>
</svg>
