<svg xmlns="http://www.w3.org/2000/svg" width="50" height="50" fill="none" viewBox="0 0 50 50">
  <g clip-path="url(#a)">
    <path fill="#FCFCFC" d="M25 50c13.807 0 25-11.193 25-25S38.807 0 25 0 0 11.193 0 25s11.193 25 25 25Z"/>
    <path fill="#A2001D" d="m10.326 23.188-2.718-4.93 2.718-4.852 2.717 4.852-2.717 4.93Z"/>
    <path fill="#A2001D" d="m4.891 23.188-2.717-4.93 2.717-4.852 2.718 4.852-2.718 4.93Zm5.435 13.406-2.718-4.93 2.718-4.852 2.717 4.852-2.717 4.93Z"/>
    <path fill="#A2001D" d="m4.891 36.594-2.717-4.93 2.717-4.852 2.718 4.852-2.718 4.93Zm8.152-31.741-.77-1.374a25.067 25.067 0 0 0-3.866 2.823l1.919 3.48 2.717-4.93Zm-2.717 35.365L8.387 43.68a25.07 25.07 0 0 0 3.864 2.828l.793-1.438-2.718-4.852Z"/>
    <path fill="#6DA544" d="M15.217 31.522v16.49A24.918 24.918 0 0 0 25 50c10.749 0 19.913-6.784 23.445-16.304l-33.228-2.174Z"/>
    <path fill="#A2001D" d="M48.445 33.696A24.944 24.944 0 0 0 50 25C50 11.193 38.807 0 25 0a24.92 24.92 0 0 0-9.783 1.987v31.709h33.228Z"/>
  </g>
  <defs>
    <clipPath id="a">
      <path fill="#fff" d="M0 0h50v50H0z"/>
    </clipPath>
  </defs>
</svg>
