<svg xmlns="http://www.w3.org/2000/svg" width="50" height="50" fill="none" viewBox="0 0 50 50">
  <g clip-path="url(#a)">
    <path fill="#F0F0F0" d="M25 50c13.807 0 25-11.193 25-25S38.807 0 25 0 0 11.193 0 25s11.193 25 25 25Z"/>
    <path fill="#0052B4" d="M48.445 33.696A24.944 24.944 0 0 0 50 25c0-3.058-.55-5.987-1.555-8.696H1.555A24.946 24.946 0 0 0 0 25c0 3.058.55 5.987 1.555 8.696L25 35.87l23.445-2.174Z"/>
    <path fill="#D80027" d="M25 50c10.75 0 19.913-6.784 23.445-16.304H1.555C5.087 43.216 14.25 50 25 50Z"/>
  </g>
  <defs>
    <clipPath id="a">
      <path fill="#fff" d="M0 0h50v50H0z"/>
    </clipPath>
  </defs>
</svg>
