<svg xmlns="http://www.w3.org/2000/svg" width="50" height="50" fill="none" viewBox="0 0 50 50">
  <g clip-path="url(#a)">
    <path fill="#F0F0F0" d="M25 50c13.807 0 25-11.193 25-25S38.807 0 25 0 0 11.193 0 25s11.193 25 25 25Z"/>
    <path fill="#0052B4" d="M37.129 3.136A24.886 24.886 0 0 0 25 0C11.194 0 .002 11.191 0 24.997l17.391-8.693L37.13 3.136ZM0 25.003C.002 38.809 11.194 50 25 50a24.89 24.89 0 0 0 12.129-3.136L17.39 33.696 0 25.003Z"/>
    <path fill="#D80027" d="M39.212 4.432a25.03 25.03 0 0 0-2.084-1.296L0 24.997v.006l37.128 21.86c.717-.398 1.412-.83 2.084-1.295L4.279 25 39.212 4.432Z"/>
    <path fill="#A2001D" d="M43.478 24.068H40.5a2.366 2.366 0 0 0-.145-3.185 2.366 2.366 0 0 0 0-3.347l-.056.056c.924-.924.98-2.478.056-3.402L26.97 27.575a2.334 2.334 0 0 0 3.32-.011l.258-.236 6.409-.582v2.756h2.174v-2.954l3.26-.296 1.087-2.184Z"/>
    <path fill="#FFDA44" d="M27.175 30.435 25 29.348l2.175-1.087h14.13v2.174h-14.13Z"/>
  </g>
  <defs>
    <clipPath id="a">
      <path fill="#fff" d="M0 0h50v50H0z"/>
    </clipPath>
  </defs>
</svg>
