<svg xmlns="http://www.w3.org/2000/svg" width="51" height="50" fill="none" viewBox="0 0 51 50">
  <g clip-path="url(#a)">
    <path fill="#F0F0F0" d="M25.988 50c13.807 0 25-11.193 25-25s-11.193-25-25-25-25 11.193-25 25 11.193 25 25 25Z"/>
    <path fill="#0052B4" d="M50.842 27.717h-.001Zm-.002 0L23.425.13a24.917 24.917 0 0 0-3.623.642C8.986 3.525.988 25 .988 25s35 23.421 38.993 20.719a25.077 25.077 0 0 0 2.294-1.753L26.027 27.717H50.84Z"/>
    <path fill="#D80027" d="M44.467 25 20.153.687C9.16 3.315.988 13.202.988 25c0 13.807 11.193 25 25 25a24.882 24.882 0 0 0 14.114-4.364L19.467 25h25Z"/>
    <path fill="#F0F0F0" d="m24.765 36.913-3.053-1.436 1.625-2.957-3.315.635-.42-3.35-2.31 2.464-2.309-2.464-.42 3.35-3.315-.635 1.626 2.957-3.054 1.436 3.054 1.436-1.626 2.957 3.315-.634.42 3.35 2.31-2.464 2.309 2.464.42-3.35 3.315.635-1.625-2.957 3.053-1.437Zm-2.038-23.047-2.22-1.045 1.182-2.15-2.411.46-.306-2.435-1.68 1.791-1.679-1.791-.306 2.436-2.411-.462 1.183 2.151-2.221 1.045 5.435 1.087 5.434-1.087Z"/>
    <path fill="#F0F0F0" d="M23.814 13.866a6.522 6.522 0 0 1-13.043 0"/>
  </g>
  <defs>
    <clipPath id="a">
      <path fill="#fff" d="M0 0h50v50H0z" transform="translate(.988)"/>
    </clipPath>
  </defs>
</svg>
