<svg xmlns="http://www.w3.org/2000/svg" width="50" height="50" fill="none" viewBox="0 0 50 50">
  <g clip-path="url(#a)">
    <path fill="#F0F0F0" d="M25 50c13.807 0 25-11.193 25-25S38.807 0 25 0 0 11.193 0 25s11.193 25 25 25Z"/>
    <path fill="#338AF3" d="M25 0C15.088 0 6.524 5.768 2.48 14.13h45.04C43.475 5.768 34.911 0 24.999 0Zm0 50c9.911 0 18.475-5.768 22.52-14.13H2.48C6.524 44.232 15.088 50 25 50Z"/>
    <path fill="#FFDA44" d="m32.472 25-3.053 1.436 1.626 2.957-3.316-.634-.42 3.35L25 29.644l-2.31 2.463-.42-3.349-3.315.634 1.626-2.957L17.528 25l3.053-1.436-1.626-2.957 3.316.634.42-3.349L25 20.355l2.31-2.463.42 3.35 3.315-.635-1.626 2.957L32.472 25Z"/>
  </g>
  <defs>
    <clipPath id="a">
      <path fill="#fff" d="M0 0h50v50H0z"/>
    </clipPath>
  </defs>
</svg>
