<svg xmlns="http://www.w3.org/2000/svg" width="50" height="50" fill="none" viewBox="0 0 50 50">
  <g clip-path="url(#a)">
    <path fill="#F0F0F0" d="M25 50c13.807 0 25-11.193 25-25S38.807 0 25 0 0 11.193 0 25s11.193 25 25 25Z"/>
    <path fill="#D80027" d="M25 0C24.977-.018-.007 24.993 0 25 0 11.193 11.193 0 25 0Zm0 0c.023-.018 25.007 24.993 25 25C50 11.193 38.807 0 25 0Z"/>
    <path fill="#0052B4" d="M25 50c-.023.018-25.007-24.993-25-25 0 13.807 11.193 25 25 25Zm0 0c.023.018 25.007-24.993 25-25 0 13.807-11.193 25-25 25Z"/>
    <path fill="#FFDA44" d="m25 13.043 2.698 8.304h8.731l-7.063 5.132 2.698 8.304L25 29.65l-7.063 5.132 2.698-8.304-7.064-5.132h8.731L25 13.043Z"/>
  </g>
  <defs>
    <clipPath id="a">
      <path fill="#fff" d="M0 0h50v50H0z"/>
    </clipPath>
  </defs>
</svg>
