<svg xmlns="http://www.w3.org/2000/svg" width="50" height="50" fill="none" viewBox="0 0 50 50">
  <g clip-path="url(#a)">
    <path fill="#FFDA44" d="M47.224 13.537a24.983 24.983 0 0 0-4.545-6.215 24.983 24.983 0 0 0-6.215-4.546L18.85 18.851 2.776 36.463a24.982 24.982 0 0 0 4.546 6.215 24.982 24.982 0 0 0 6.215 4.546l17.612-16.075 16.075-17.612Z"/>
    <path fill="#D80027" d="M7.322 42.678a25.159 25.159 0 0 0 3.341 2.808l34.823-34.823a25.157 25.157 0 0 0-6.149-6.149L4.514 39.337a25.148 25.148 0 0 0 2.808 3.341Z"/>
    <path fill="#338AF3" d="M7.322 7.322C-.566 15.209-2.08 27.055 2.776 36.463L36.463 2.776C27.054-2.08 15.21-.565 7.322 7.322Zm35.357 35.356c7.887-7.887 9.401-19.732 4.545-29.141L13.537 47.224c9.409 4.856 21.254 3.342 29.142-4.546Z"/>
    <path fill="#FFDA44" d="m13.323 7.608 1.349 4.152h4.365l-3.531 2.566 1.349 4.152-3.532-2.566-3.532 2.566 1.349-4.152-3.532-2.566h4.365l1.35-4.152Z"/>
  </g>
  <defs>
    <clipPath id="a">
      <path fill="#fff" d="M0 0h50v50H0z"/>
    </clipPath>
  </defs>
</svg>
