<svg xmlns="http://www.w3.org/2000/svg" width="51" height="50" fill="none" viewBox="0 0 51 50">
  <g clip-path="url(#a)">
    <path fill="#496E2D" d="M50.99 25c0-3.058-.55-5.988-1.556-8.696L25.99 15.217 2.544 16.304A24.947 24.947 0 0 0 .99 25c0 3.058.55 5.987 1.555 8.696l23.445 1.087 23.445-1.087A24.944 24.944 0 0 0 50.99 25Z"/>
    <path fill="#D80027" d="M25.99 50c10.748 0 19.912-6.784 23.444-16.304H2.544C6.077 43.216 15.24 50 25.99 50Z"/>
    <path fill="#F0F0F0" d="M2.544 16.304h46.89C45.902 6.784 36.738 0 25.99 0S6.077 6.784 2.544 16.304Z"/>
  </g>
  <defs>
    <clipPath id="a">
      <path fill="#fff" d="M0 0h50v50H0z" transform="translate(.99)"/>
    </clipPath>
  </defs>
</svg>
