<svg xmlns="http://www.w3.org/2000/svg" width="50" height="50" fill="none" viewBox="0 0 50 50">
  <g clip-path="url(#a)">
    <path fill="#F0F0F0" d="M25 50c13.807 0 25-11.193 25-25S38.807 0 25 0 0 11.193 0 25s11.193 25 25 25Z"/>
    <path fill="#FFDA44" d="M10.91 4.348A24.882 24.882 0 0 1 25 0a24.882 24.882 0 0 1 14.09 4.348L25 5.435 10.91 4.348Z"/>
    <path fill="#D80027" d="M7.324 42.676 18.85 31.15 25 20.652l6.148 10.496 11.528 11.528A24.918 24.918 0 0 0 50 25c0-8.58-4.323-16.15-10.91-20.652H10.91C4.323 8.85 0 16.42 0 25c0 6.904 2.8 13.153 7.324 17.676Z"/>
    <path fill="#0052B4" d="m48.1 34.572-18.278-7.574 1.325 4.15 11.53 11.528a25.036 25.036 0 0 0 5.424-8.104ZM50 25a24.92 24.92 0 0 0-1.9-9.572L25 25h25ZM42.676 7.324a25.146 25.146 0 0 0-3.586-2.976h-5.532L25 25 42.676 7.324ZM25 4.348h-8.558L25 25V4.348ZM7.324 7.324a25.036 25.036 0 0 0-5.425 8.104L25 25 7.324 7.324ZM0 25c0 3.391.676 6.624 1.9 9.572L25 25H0Z"/>
    <path fill="#FFDA44" d="M10.91 45.652A24.882 24.882 0 0 0 25 50a24.882 24.882 0 0 0 14.09-4.348H10.91ZM25 25l6.149 6.149a8.696 8.696 0 1 0-12.297 0L25 25Zm3.805 12.5c0 2.101-1.704 2.717-3.805 2.717-2.1 0-3.804-.616-3.804-2.717a3.804 3.804 0 0 1 7.609 0Z"/>
    <path fill="#0052B4" d="M28.805 37.5a3.804 3.804 0 0 1-7.61 0"/>
  </g>
  <defs>
    <clipPath id="a">
      <path fill="#fff" d="M0 0h50v50H0z"/>
    </clipPath>
  </defs>
</svg>
