<svg xmlns="http://www.w3.org/2000/svg" width="50" height="50" fill="none" viewBox="0 0 50 50">
  <g clip-path="url(#a)">
    <path fill="#FFDA44" d="M25 0c-2.256 0-4.442.3-6.522.861L16.304 25l2.174 24.139c2.08.56 4.265.861 6.522.861 13.807 0 25-11.193 25-25S38.807 0 25 0Z"/>
    <path fill="#6DA544" d="m16.304 25 2.174 24.139c2.08.56 4.265.861 6.522.861 13.807 0 25-11.193 25-25H16.304Z"/>
    <path fill="#D80027" d="M0 25c0 9.476 5.272 17.72 13.043 21.96V3.04C5.274 7.28 0 15.524 0 25Z"/>
    <path fill="#D80027" d="M0 25c0 11.55 7.834 21.27 18.478 24.14V.86C7.834 3.731 0 13.45 0 25.001Z"/>
    <path fill="#000" d="m9.447 18.478 1.619 4.982h5.238l-4.238 3.08 1.619 4.982-4.238-3.08-4.238 3.08 1.619-4.982-4.238-3.08h5.238l1.619-4.982Z"/>
  </g>
  <defs>
    <clipPath id="a">
      <path fill="#fff" d="M0 0h50v50H0z"/>
    </clipPath>
  </defs>
</svg>
