<svg xmlns="http://www.w3.org/2000/svg" width="50" height="50" fill="none" viewBox="0 0 50 50">
  <g clip-path="url(#a)">
    <path fill="#FFDA44" d="M25 50c13.807 0 25-11.193 25-25S38.807 0 25 0 0 11.193 0 25s11.193 25 25 25Z"/>
    <path fill="#338AF3" d="M25 50c7.577 0 14.367-3.372 18.951-8.696H6.05C10.633 46.628 17.423 50 25 50Zm25-25C50 11.193 38.807 0 25 0S0 11.193 0 25c0 2.256.3 4.442.861 6.522H49.14c.56-2.08.861-4.265.861-6.522ZM1.987 34.783a24.928 24.928 0 0 0 1.682 3.26h42.662a24.9 24.9 0 0 0 1.682-3.26H1.987Z"/>
    <path fill="#F0F0F0" d="m11.457 15.768-4.885-2.156 4.885-2.155 2.155-4.885 2.156 4.885 4.884 2.155-4.884 2.156-2.156 4.884-2.155-4.884Z"/>
    <path fill="#D80027" d="m13.613 9.264 1.33 3.017 3.017 1.331-3.016 1.331-1.332 3.017-1.33-3.017-3.017-1.331 3.016-1.331 1.332-3.017Z"/>
  </g>
  <defs>
    <clipPath id="a">
      <path fill="#fff" d="M0 0h50v50H0z"/>
    </clipPath>
  </defs>
</svg>
