<svg xmlns="http://www.w3.org/2000/svg" width="50" height="50" fill="none" viewBox="0 0 50 50">
  <g clip-path="url(#a)">
    <path fill="#F0F0F0" d="M25 50c13.807 0 25-11.193 25-25S38.807 0 25 0 0 11.193 0 25s11.193 25 25 25Z"/>
    <path fill="#FFDA44" d="M47.607 14.317a25.064 25.064 0 0 0-5.097-7.159L25 5.435 7.49 7.158c-.056.055-.11.111-.165.167l6.992 6.992L25 14.643l22.607-.326ZM7.324 42.676c.092.092.184.184.277.274L25 44.565l17.398-1.615a25.065 25.065 0 0 0 5.158-7.158l-32.339-1.01-7.893 7.894Z"/>
    <path fill="#000" d="m49.752 21.475-29.1-.823L25 25l-4.348 4.348 29.084-.714a25.181 25.181 0 0 0 .016-7.159Z"/>
    <path fill="#6DA544" d="M25 0C18.18 0 12 2.731 7.49 7.158h35.02A24.918 24.918 0 0 0 25 0Z"/>
    <path fill="#D80027" d="M21.475 21.475h28.277a24.827 24.827 0 0 0-2.145-7.158h-33.29l7.158 7.158Zm-7.267 14.317h33.348a24.821 24.821 0 0 0 2.18-7.158h-28.37l-7.158 7.158Z"/>
    <path fill="#6DA544" d="M25 50a24.915 24.915 0 0 0 17.398-7.05H7.602A24.915 24.915 0 0 0 25 50Z"/>
    <path fill="#000" d="M8.927 5.853c-.556.467-1.092.956-1.605 1.47L25 25 7.322 42.678a25.11 25.11 0 0 0 1.605 1.469L28.074 25 8.927 5.853Z"/>
    <path fill="#D80027" d="m10.051 18.478 1.619 4.982h5.239l-4.239 3.08 1.62 4.982-4.239-3.08-4.238 3.08 1.619-4.982-4.238-3.08h5.238l1.62-4.982Z"/>
    <path fill="#FFDA44" d="m14.504 25.408-4.219-1.495s-.311-2.924-.33-3.023a1.631 1.631 0 0 0-3.232.306c0 .149.021.293.059.43l-1.183 1.191h2.103C7.702 25 6.073 25 6.073 27.174l.904 2.174h5.435l.906-2.174a2.17 2.17 0 0 0 .168-.639c.78-.316 1.018-1.127 1.018-1.127Z"/>
  </g>
  <defs>
    <clipPath id="a">
      <path fill="#fff" d="M0 0h50v50H0z"/>
    </clipPath>
  </defs>
</svg>
