<svg xmlns="http://www.w3.org/2000/svg" width="50" height="50" fill="none" viewBox="0 0 50 50">
  <g clip-path="url(#a)">
    <path fill="#0052B4" d="M47.52 35.87A24.899 24.899 0 0 0 50 25c0-3.896-.891-7.583-2.48-10.87L25 11.957 2.48 14.131A24.9 24.9 0 0 0 0 25a24.9 24.9 0 0 0 2.48 10.87L25 38.044l22.52-2.174Z"/>
    <path fill="#D80027" d="M25 50c9.911 0 18.475-5.768 22.52-14.13H2.48C6.524 44.232 15.088 50 25 50Z"/>
    <path fill="#F0F0F0" d="m43.298 29.907-1.32 1.032.572 1.575-1.389-.937-1.32 1.031.461-1.61-1.389-.938 1.675-.058.462-1.61.573 1.574 1.675-.059Zm-3.382-5.857-.887 1.422 1.077 1.283-1.626-.405-.888 1.421-.117-1.671-1.626-.406 1.554-.628-.117-1.671 1.077 1.283 1.553-.627Zm-5.18-4.346-.348 1.639 1.45.838-1.666.175-.348 1.639-.682-1.53-1.666.174 1.245-1.121-.681-1.53 1.45.837 1.246-1.121Zm-6.355-2.313.234 1.66 1.65.29-1.506.735.233 1.66-1.164-1.206-1.506.735.787-1.48-1.165-1.205 1.65.29.787-1.479Zm-6.762 0 .787 1.48 1.65-.291-1.164 1.205.786 1.48-1.506-.735-1.164 1.205.233-1.659-1.506-.734 1.65-.291.234-1.66Zm-6.355 2.313 1.246 1.121 1.45-.838-.68 1.532 1.244 1.12-1.666-.175-.682 1.531-.348-1.639-1.666-.175 1.45-.838-.348-1.64Zm-5.18 4.346 1.554.629 1.077-1.284-.117 1.672 1.554.628-1.626.405-.117 1.671-.888-1.42-1.626.405 1.077-1.284-.888-1.421Zm-3.381 5.857 1.675.058.572-1.574.463 1.611 1.674.059-1.389.937.462 1.61-1.32-1.031-1.39.937.573-1.575-1.32-1.032Z"/>
    <path fill="#FFDA44" d="M47.52 14.13C43.474 5.768 34.91 0 25 0 15.088 0 6.524 5.768 2.48 14.13h45.04Z"/>
  </g>
  <defs>
    <clipPath id="a">
      <path fill="#fff" d="M0 0h50v50H0z"/>
    </clipPath>
  </defs>
</svg>
