<svg xmlns="http://www.w3.org/2000/svg" width="50" height="50" fill="none" viewBox="0 0 50 50">
  <g clip-path="url(#a)">
    <path fill="#F0F0F0" d="M25 50c13.807 0 25-11.193 25-25S38.807 0 25 0 0 11.193 0 25s11.193 25 25 25Z"/>
    <path fill="#6DA544" d="M15.217 16.304h33.228C44.913 6.784 35.749 0 25 0A24.919 24.919 0 0 0 7.323 7.323l7.894 8.981Z"/>
    <path fill="#D80027" d="M15.217 33.696h33.228C44.913 43.216 35.749 50 25 50a24.919 24.919 0 0 1-17.677-7.323l7.894-8.981Z"/>
    <path fill="#0052B4" d="M7.322 7.322c-9.763 9.763-9.763 25.592 0 35.356L25 25 7.322 7.322Z"/>
    <path fill="#DEDDE0" d="M29.348 20.652v5.435c0 3.328 4.348 4.348 4.348 4.348s4.347-1.02 4.347-4.348v-5.435h-8.695Z"/>
    <path fill="#786145" d="M32.609 25.109h2.174v3.152h-2.174v-3.152Z"/>
    <path fill="#6DA544" d="M35.87 23.913a2.174 2.174 0 1 0-4.348 0 1.087 1.087 0 1 0 0 2.174h4.347a1.087 1.087 0 1 0 0-2.174Z"/>
  </g>
  <defs>
    <clipPath id="a">
      <path fill="#fff" d="M0 0h50v50H0z"/>
    </clipPath>
  </defs>
</svg>
