<svg xmlns="http://www.w3.org/2000/svg" width="51" height="50" fill="none" viewBox="0 0 51 50">
  <g clip-path="url(#a)">
    <path fill="#F0F0F0" d="M3.469 14.13A24.9 24.9 0 0 0 .989 25a24.9 24.9 0 0 0 2.48 10.87l22.52 2.174 22.519-2.174A24.9 24.9 0 0 0 50.988 25a24.9 24.9 0 0 0-2.48-10.87l-22.52-2.174-22.52 2.175Z"/>
    <path fill="#6DA544" d="M3.47 35.87C7.513 44.232 16.077 50 25.988 50c9.912 0 18.475-5.768 22.519-14.13H3.47Z"/>
    <path fill="#FF9811" d="M3.47 14.13h45.037C44.463 5.768 35.9 0 25.988 0 16.077 0 7.513 5.768 3.47 14.13Zm22.518 19.566a8.696 8.696 0 1 0 0-17.392 8.696 8.696 0 0 0 0 17.392Z"/>
  </g>
  <defs>
    <clipPath id="a">
      <path fill="#fff" d="M0 0h50v50H0z" transform="translate(.988)"/>
    </clipPath>
  </defs>
</svg>
