<svg xmlns="http://www.w3.org/2000/svg" width="50" height="50" fill="none" viewBox="0 0 50 50">
  <g clip-path="url(#a)">
    <path fill="#F0F0F0" d="M25 50c13.807 0 25-11.193 25-25S38.807 0 25 0 0 11.193 0 25s11.193 25 25 25Z"/>
    <path fill="#0052B4" d="M40.22 5.168A24.888 24.888 0 0 0 25 0 24.888 24.888 0 0 0 9.78 5.168L25 20.388l15.22-15.22ZM5.168 9.78A24.889 24.889 0 0 0 0 25a24.889 24.889 0 0 0 5.168 15.22L20.388 25 5.168 9.78ZM9.78 44.832A24.888 24.888 0 0 0 25 50a24.89 24.89 0 0 0 15.22-5.168L25 29.612 9.78 44.832Zm35.052-4.612A24.887 24.887 0 0 0 50 25a24.887 24.887 0 0 0-5.168-15.22L29.612 25l15.22 15.22Z"/>
  </g>
  <defs>
    <clipPath id="a">
      <path fill="#fff" d="M0 0h50v50H0z"/>
    </clipPath>
  </defs>
</svg>
