<svg xmlns="http://www.w3.org/2000/svg" width="50" height="50" fill="none" viewBox="0 0 50 50">
  <g clip-path="url(#a)">
    <path fill="#F0F0F0" d="M50 25c0-3.058-.55-5.987-1.555-8.696L25 15.217 1.555 16.304A24.947 24.947 0 0 0 0 25c0 3.058.55 5.987 1.555 8.696L25 34.783l23.445-1.087A24.944 24.944 0 0 0 50 25Z"/>
    <path fill="#0052B4" d="M25 50c10.75 0 19.913-6.784 23.445-16.304H1.555C5.087 43.216 14.25 50 25 50Z"/>
    <path fill="#6DA544" d="M1.555 16.304h46.89C44.913 6.784 35.75 0 25 0S5.087 6.784 1.555 16.304Z"/>
  </g>
  <defs>
    <clipPath id="a">
      <path fill="#fff" d="M0 0h50v50H0z"/>
    </clipPath>
  </defs>
</svg>
