<svg xmlns="http://www.w3.org/2000/svg" width="51" height="50" fill="none" viewBox="0 0 51 50">
  <g clip-path="url(#a)">
    <path fill="#0052B4" d="M25.988 50c13.807 0 25-11.193 25-25s-11.193-25-25-25-25 11.193-25 25 11.193 25 25 25Z"/>
    <path fill="#FFDA44" d="M25.988 50c13.807 0 25-11.193 25-25s-11.193-25-25-25-25 11.193-25 25 11.193 25 25 25Z"/>
    <path fill="#0052B4" d="M25.988 0C12.914 0 2.185 10.037 1.084 22.826h49.81C49.79 10.037 39.062 0 25.987 0Zm0 50c13.075 0 23.803-10.037 24.905-22.826H1.083C2.186 39.963 12.914 50 25.989 50Z"/>
    <path fill="#F0F0F0" d="m21.64 33.696-2.8 1.317 1.49 2.713-3.041-.582-.385 3.073-2.12-2.26-2.118 2.26-.386-3.073-3.041.582 1.491-2.713-2.801-1.317 2.801-1.318-1.491-2.713 3.041.582.386-3.073 2.119 2.26 2.119-2.26.385 3.073 3.042-.582-1.492 2.713 2.802 1.318Z"/>
  </g>
  <defs>
    <clipPath id="a">
      <path fill="#fff" d="M0 0h50v50H0z" transform="translate(.988)"/>
    </clipPath>
  </defs>
</svg>
