<svg xmlns="http://www.w3.org/2000/svg" width="50" height="50" fill="none" viewBox="0 0 50 50">
  <g clip-path="url(#a)">
    <path fill="#F0F0F0" d="M0 25C0 11.193 11.193 0 25 0s25 11.193 25 25H0Z"/>
    <path fill="#0052B4" d="M18.478 23.633 17.111 25h1.367v-1.367Zm13.044.001V25h1.367l-1.367-1.366ZM.721 19.022A25.049 25.049 0 0 0 0 25h7.888l5.979-5.978H.72Zm35.412 0L42.111 25H50c0-2.06-.251-4.062-.721-5.978H36.133Z"/>
    <path fill="#D80027" d="M34.596 19.022h-3.074L37.5 25h3.075l-5.979-5.978Zm-16.118 3.074v-3.074L12.5 25h3.074l2.904-2.904Z"/>
    <path fill="#0052B4" d="M11.711 3.823a25.115 25.115 0 0 0-2.932 2.155h5.088L11.71 3.823Zm29.51 2.155a25.1 25.1 0 0 0-2.932-2.155l-2.156 2.155h5.088Z"/>
    <path fill="#D80027" d="M28.26 15.76h19.976a24.976 24.976 0 0 0-3.83-6.52H28.26V.211a25.245 25.245 0 0 0-6.522 0v9.027H5.595a24.976 24.976 0 0 0-3.831 6.522h19.975V25h6.522v-9.24Z"/>
    <path fill="#D80027" d="M18.478 5.978 14.71 2.21c-.697.315-1.376.663-2.037 1.038l2.731 2.731h3.074Zm13.044 0 3.769-3.769a24.888 24.888 0 0 0-2.203-.871l-1.566 1.566v3.074Z"/>
    <path fill="#F0F0F0" d="M50 25c0 13.807-11.193 25-25 25S0 38.807 0 25h50Z"/>
    <path fill="#0052B4" d="M45.833 28.189c-2.083 0-2.083-1.905-4.166-1.905-2.084 0-2.084 1.905-4.167 1.905-2.083 0-2.083-1.905-4.166-1.905-2.084 0-2.084 1.905-4.167 1.905-2.084 0-2.084-1.905-4.167-1.905-2.084 0-2.084 1.905-4.167 1.905-2.083 0-2.083-1.905-4.166-1.905-2.084 0-2.084 1.905-4.167 1.905-2.084 0-2.084-1.905-4.167-1.905-2.083 0-2.083 1.905-4.166 1.905-2.072 0-2.084-1.884-4.134-1.904.057 1.143.194 2.266.4 3.364 1.661.244 1.806 1.873 3.734 1.873 2.083 0 2.083-1.905 4.166-1.905 2.084 0 2.084 1.905 4.167 1.905 2.084 0 2.084-1.905 4.167-1.905 2.083 0 2.083 1.905 4.166 1.905 2.084 0 2.084-1.905 4.167-1.905 2.083 0 2.083 1.905 4.167 1.905 2.083 0 2.083-1.905 4.167-1.905 2.083 0 2.083 1.905 4.166 1.905s2.083-1.905 4.167-1.905c2.083 0 2.083 1.905 4.166 1.905 1.928 0 2.073-1.63 3.734-1.873.206-1.098.343-2.22.4-3.364-2.05.02-2.062 1.904-4.134 1.904Zm-4.167 4.616c-2.083 0-2.083 1.905-4.166 1.905s-2.083-1.905-4.166-1.905c-2.084 0-2.084 1.905-4.167 1.905-2.084 0-2.084-1.905-4.167-1.905-2.084 0-2.084 1.905-4.167 1.905-2.083 0-2.083-1.905-4.166-1.905-2.084 0-2.084 1.905-4.167 1.905-2.084 0-2.084-1.905-4.167-1.905-2.083 0-2.083 1.905-4.166 1.905-1.489 0-1.914-.972-2.795-1.527a24.871 24.871 0 0 0 2.269 4.815c.16.03.334.046.526.046 2.083 0 2.083-1.905 4.166-1.905s2.083 1.905 4.167 1.905c2.084 0 2.084-1.905 4.167-1.905 2.083 0 2.083 1.905 4.166 1.905 2.084 0 2.084-1.905 4.167-1.905 2.083 0 2.083 1.905 4.167 1.905 2.083 0 2.083-1.905 4.166-1.905 2.084 0 2.084 1.905 4.167 1.905 2.083 0 2.083-1.905 4.166-1.905 2.084 0 2.084 1.905 4.167 1.905.192 0 .366-.017.526-.046a24.883 24.883 0 0 0 2.27-4.815c-.882.555-1.307 1.527-2.796 1.527-2.083 0-2.083-1.905-4.166-1.905Z"/>
    <path fill="#F0F0F0" d="m49.986 24.214.007.209-.007-.209Zm-49.979.209.006-.209-.006.209ZM0 25Zm0 0c0 .455.013.908.037 1.357 2.045.023 2.059 1.904 4.13 1.904 2.083 0 2.083-1.905 4.166-1.905s2.083 1.905 4.167 1.905c2.083 0 2.083-1.905 4.167-1.905 2.083 0 2.083 1.905 4.166 1.905 2.084 0 2.084-1.905 4.167-1.905 2.083 0 2.083 1.905 4.167 1.905 2.083 0 2.083-1.905 4.166-1.905 2.084 0 2.084 1.905 4.167 1.905 2.083 0 2.083-1.905 4.166-1.905 2.084 0 2.084 1.905 4.167 1.905 2.07 0 2.084-1.88 4.13-1.904.024-.45.037-.902.037-1.357H0Zm49.993-.577Z"/>
    <path fill="#0052B4" d="M41.666 39.327c-2.083 0-2.083 1.905-4.166 1.905s-2.084-1.905-4.167-1.905c-2.083 0-2.083 1.905-4.166 1.905-2.084 0-2.084-1.905-4.167-1.905-2.084 0-2.084 1.905-4.167 1.905-2.083 0-2.083-1.905-4.166-1.905-2.084 0-2.084 1.905-4.167 1.905-2.084 0-2.084-1.905-4.167-1.905-1.439 0-1.884.909-2.708 1.47a25.106 25.106 0 0 0 8.023 6.48L25 46.707l11.352.572a25.107 25.107 0 0 0 8.023-6.48c-.824-.562-1.27-1.47-2.709-1.47Z"/>
    <path fill="#FFDA44" d="m38.866 39.923-7.605 1.455-.964-7.682L25 39.346l-5.297-5.65-.964 7.682-7.604-1.455 3.73 6.782-1.219.573A24.89 24.89 0 0 0 25 50c4.088 0 7.947-.982 11.354-2.721l-1.218-.573 3.73-6.783Z"/>
  </g>
  <defs>
    <clipPath id="a">
      <path fill="#fff" d="M0 0h50v50H0z"/>
    </clipPath>
  </defs>
</svg>
