<svg xmlns="http://www.w3.org/2000/svg" width="50" height="50" fill="none" viewBox="0 0 50 50">
  <g clip-path="url(#a)">
    <path fill="#338AF3" d="M25 50c13.807 0 25-11.193 25-25S38.807 0 25 0 0 11.193 0 25s11.193 25 25 25Z"/>
    <path fill="#F0F0F0" d="m25 10.87 1.078 3.321h3.493l-2.825 2.053 1.079 3.321-2.826-2.052-2.825 2.052 1.08-3.321-2.826-2.053h3.492L25 10.87ZM10.87 25l3.32-1.08v-3.492l2.054 2.826 3.32-1.08L17.513 25l2.053 2.825-3.322-1.079-2.052 2.826v-3.493L10.869 25ZM25 39.13l-1.08-3.32h-3.492l2.825-2.054-1.079-3.32L25 32.487l2.825-2.053-1.08 3.321 2.826 2.053h-3.492l-1.08 3.322ZM39.13 25l-3.321 1.079v3.492l-2.053-2.825-3.321 1.08L32.487 25l-2.052-2.826 3.321 1.08 2.053-2.826v3.493L39.13 25Z"/>
  </g>
  <defs>
    <clipPath id="a">
      <path fill="#fff" d="M0 0h50v50H0z"/>
    </clipPath>
  </defs>
</svg>
