<svg xmlns="http://www.w3.org/2000/svg" width="50" height="50" fill="none" viewBox="0 0 50 50">
  <g clip-path="url(#a)">
    <path fill="#F0F0F0" d="M25 50c13.807 0 25-11.193 25-25S38.807 0 25 0 0 11.193 0 25s11.193 25 25 25Z"/>
    <path fill="#FFDA44" d="M7.322 7.322C1.964 12.68-.453 19.865.07 26.872L26.871.07C19.865-.452 12.68 1.964 7.322 7.322Z"/>
    <path fill="#0052B4" d="M8.927 44.148c9.822 8.263 24.506 7.775 33.75-1.47 9.246-9.245 9.735-23.929 1.47-33.751l-35.22 35.22Z"/>
    <path fill="#000" d="m24.91 23.993 2.155-1.167-2.154-1.167a7.614 7.614 0 0 0-6.353-6.352l-1.167-2.155-1.167 2.155a7.614 7.614 0 0 0-6.352 6.352l-2.155 1.167 2.155 1.167a7.614 7.614 0 0 0 6.352 6.353l1.167 2.154 1.167-2.154a7.614 7.614 0 0 0 6.353-6.353Zm-7.519 3.181a4.348 4.348 0 1 1 0-8.695 4.348 4.348 0 0 1 0 8.695Z"/>
    <path fill="#D80027" d="m17.391 19.565.942 1.63h1.882l-.941 1.631.941 1.63h-1.882l-.942 1.63-.941-1.63h-1.883l.942-1.63-.942-1.63h1.883l.941-1.63Z"/>
  </g>
  <defs>
    <clipPath id="a">
      <path fill="#fff" d="M0 0h50v50H0z"/>
    </clipPath>
  </defs>
</svg>
