<svg xmlns="http://www.w3.org/2000/svg" width="50" height="50" fill="none" viewBox="0 0 50 50">
  <g clip-path="url(#a)">
    <path fill="#F0F0F0" d="M25 50c13.807 0 25-11.193 25-25S38.807 0 25 0 0 11.193 0 25s11.193 25 25 25Z"/>
    <path fill="#D80027" d="M23.913 25H50c0-2.257-.3-4.442-.861-6.522H23.913V25Zm0-13.044h22.418a25.13 25.13 0 0 0-5.769-6.521H23.913v6.521ZM25 50a24.893 24.893 0 0 0 15.562-5.435H9.438A24.893 24.893 0 0 0 25 50ZM3.67 38.043h42.66a24.855 24.855 0 0 0 2.809-6.521H.86a24.85 24.85 0 0 0 2.808 6.521Z"/>
    <path fill="#0052B4" d="M25 25V0C11.193 0 0 11.193 0 25h25Z"/>
    <path fill="#FFDA44" d="M16.624 21.4a6.182 6.182 0 1 1 2.94-11.621 7.609 7.609 0 1 0 0 10.878 6.155 6.155 0 0 1-2.94.742Z"/>
    <path fill="#FFDA44" d="m18.366 10.87 1.098 2.295 2.478-.573-1.11 2.29 1.994 1.58-2.482.56.007 2.543-1.985-1.591-1.985 1.591.007-2.544-2.482-.56 1.994-1.58-1.11-2.289 2.478.573 1.098-2.295Z"/>
  </g>
  <defs>
    <clipPath id="a">
      <path fill="#fff" d="M0 0h50v50H0z"/>
    </clipPath>
  </defs>
</svg>
