<svg xmlns="http://www.w3.org/2000/svg" width="50" height="50" fill="none" viewBox="0 0 50 50">
  <g clip-path="url(#a)">
    <path fill="#D80027" d="M0 25C0 11.193 11.193 0 25 0s25 11.193 25 25"/>
    <path fill="#FFDA44" d="m33.695 23.25-3.553 1.67 1.892 3.442-3.858-.738-.489 3.898L25 28.654l-2.688 2.866-.489-3.897-3.858.738 1.892-3.441-3.553-1.671 3.553-1.672-1.892-3.44 3.858.737.49-3.898L25 17.845l2.687-2.867.49 3.898 3.858-.738-1.892 3.441 3.552 1.672ZM31.522 8.152H26.63a1.63 1.63 0 0 0-3.26 0h-4.892c0 .9.784 1.63 1.685 1.63h-.055c0 .9.73 1.63 1.63 1.63 0 .901.73 1.631 1.631 1.631h3.261c.9 0 1.63-.73 1.63-1.63.9 0 1.631-.73 1.631-1.63h-.054c.9 0 1.685-.73 1.685-1.631Z"/>
    <path fill="#F0F0F0" d="M50 25c0 13.807-11.193 25-25 25S0 38.807 0 25h50Z"/>
    <path fill="#0052B4" d="M25 50c7.815 0 14.79-3.586 19.375-9.202-.824-.562-1.27-1.47-2.709-1.47-2.083 0-2.083 1.904-4.166 1.904s-2.084-1.905-4.167-1.905c-2.083 0-2.083 1.905-4.166 1.905-2.084 0-2.084-1.905-4.167-1.905-2.084 0-2.084 1.905-4.167 1.905-2.083 0-2.083-1.905-4.166-1.905-2.084 0-2.084 1.905-4.167 1.905-2.084 0-2.084-1.905-4.167-1.905-1.439 0-1.884.909-2.708 1.47C10.209 46.415 17.185 50 25 50Zm20.833-21.811c-2.083 0-2.083-1.905-4.166-1.905-2.084 0-2.084 1.905-4.167 1.905-2.083 0-2.083-1.905-4.166-1.905-2.084 0-2.084 1.905-4.167 1.905-2.084 0-2.084-1.905-4.167-1.905-2.084 0-2.084 1.905-4.167 1.905-2.083 0-2.083-1.905-4.166-1.905-2.084 0-2.084 1.905-4.167 1.905-2.084 0-2.084-1.905-4.167-1.905-2.083 0-2.083 1.905-4.166 1.905-2.072 0-2.084-1.884-4.134-1.904.057 1.143.194 2.266.4 3.364 1.661.244 1.806 1.873 3.734 1.873 2.083 0 2.083-1.905 4.166-1.905 2.084 0 2.084 1.905 4.167 1.905 2.084 0 2.084-1.905 4.167-1.905 2.083 0 2.083 1.905 4.166 1.905 2.084 0 2.084-1.905 4.167-1.905 2.083 0 2.083 1.905 4.167 1.905 2.083 0 2.083-1.905 4.167-1.905 2.083 0 2.083 1.905 4.166 1.905s2.083-1.905 4.167-1.905c2.083 0 2.083 1.905 4.166 1.905 1.928 0 2.073-1.63 3.734-1.873.206-1.098.343-2.22.4-3.364-2.05.02-2.062 1.904-4.134 1.904Zm-4.167 4.617c-2.083 0-2.083 1.905-4.166 1.905s-2.083-1.905-4.166-1.905c-2.084 0-2.084 1.905-4.167 1.905-2.084 0-2.084-1.905-4.167-1.905-2.084 0-2.084 1.905-4.167 1.905-2.083 0-2.083-1.905-4.166-1.905-2.084 0-2.084 1.905-4.167 1.905-2.084 0-2.084-1.905-4.167-1.905-2.083 0-2.083 1.905-4.166 1.905-1.489 0-1.914-.973-2.795-1.528a24.871 24.871 0 0 0 2.269 4.815c.16.03.334.046.526.046 2.083 0 2.083-1.905 4.166-1.905s2.083 1.905 4.167 1.905c2.084 0 2.084-1.905 4.167-1.905 2.083 0 2.083 1.905 4.166 1.905 2.084 0 2.084-1.905 4.167-1.905 2.083 0 2.083 1.905 4.167 1.905 2.083 0 2.083-1.905 4.166-1.905 2.084 0 2.084 1.905 4.167 1.905 2.083 0 2.083-1.905 4.166-1.905 2.084 0 2.084 1.905 4.167 1.905.192 0 .366-.016.526-.046a24.889 24.889 0 0 0 2.27-4.815c-.882.555-1.307 1.528-2.796 1.528-2.083 0-2.083-1.905-4.166-1.905Z"/>
    <path fill="#F0F0F0" d="M49.922 23.025c-2.004.048-2.032 1.903-4.089 1.903-2.083 0-2.083-1.905-4.167-1.905-2.083 0-2.083 1.905-4.166 1.905s-2.084-1.905-4.167-1.905c-2.083 0-2.083 1.905-4.166 1.905-2.084 0-2.084-1.905-4.167-1.905-2.084 0-2.084 1.905-4.167 1.905-2.083 0-2.083-1.905-4.166-1.905-2.084 0-2.084 1.905-4.167 1.905-2.084 0-2.084-1.905-4.167-1.905-2.083 0-2.083 1.905-4.167 1.905-2.056 0-2.084-1.855-4.089-1.903a25.372 25.372 0 0 0-.04 3.332c2.045.023 2.059 1.904 4.13 1.904 2.083 0 2.083-1.905 4.166-1.905s2.083 1.905 4.167 1.905c2.083 0 2.083-1.905 4.167-1.905 2.083 0 2.083 1.905 4.166 1.905 2.084 0 2.084-1.905 4.167-1.905 2.083 0 2.083 1.905 4.167 1.905 2.083 0 2.083-1.905 4.166-1.905 2.084 0 2.084 1.905 4.167 1.905 2.083 0 2.083-1.905 4.166-1.905 2.084 0 2.084 1.905 4.167 1.905 2.07 0 2.084-1.88 4.13-1.904a25.44 25.44 0 0 0-.04-3.332Z"/>
  </g>
  <defs>
    <clipPath id="a">
      <path fill="#fff" d="M0 0h50v50H0z"/>
    </clipPath>
  </defs>
</svg>
