<svg xmlns="http://www.w3.org/2000/svg" width="50" height="50" fill="none" viewBox="0 0 50 50">
  <g clip-path="url(#a)">
    <path fill="#F0F0F0" d="M25 50c13.807 0 25-11.193 25-25S38.807 0 25 0 0 11.193 0 25s11.193 25 25 25Z"/>
    <path fill="#6DA544" d="M42.494 7.143A24.916 24.916 0 0 0 25 0c-2.174 0-8.535 2.725-13.043 7.143h30.537ZM25 21.428h24.745a24.823 24.823 0 0 0-2.152-7.142h-23.68L25 21.429ZM2.407 35.714h45.185a24.82 24.82 0 0 0 2.153-7.143H.255a24.82 24.82 0 0 0 2.152 7.143Zm5.099 7.143A24.917 24.917 0 0 0 25 50a24.917 24.917 0 0 0 17.494-7.143H7.506Z"/>
    <path fill="#D80027" d="M25 0C12.405 0 1.988 9.314.255 21.429H25V0Z"/>
    <path fill="#F0F0F0" d="m12.5 19.167-1.087-2.174v-4.348l2.717-2.174 2.718 2.174v3.261l1.087-1.087v2.174l-2.174 2.174H12.5ZM6.654 12.5l.287.886h.932l-.754.547.288.886-.753-.548-.754.548.288-.886-.753-.547h.93l.289-.886Zm2.173-2.174.288.886h.932l-.754.547.288.886-.754-.547-.753.547.288-.886-.754-.547h.932l.287-.886Zm2.174-2.174.288.886h.931l-.753.548.288.885L11 9.924l-.753.547.288-.885-.754-.548h.931L11 8.152ZM21.607 12.5l-.288.886h-.931l.753.547-.288.886.754-.548.753.548-.288-.886.754-.547h-.931l-.288-.886Zm-2.174-2.174-.288.886h-.931l.753.547-.288.886.754-.547.753.547-.288-.886.754-.547h-.931l-.288-.886ZM17.26 8.152l-.289.886h-.931l.753.548-.287.885.753-.547.753.547-.287-.885.753-.548h-.931l-.288-.886Zm-3.13-1.087-.288.886h-.93l.752.548-.287.885.753-.547.754.547-.288-.885.753-.548h-.931l-.288-.886Z"/>
  </g>
  <defs>
    <clipPath id="a">
      <path fill="#fff" d="M0 0h50v50H0z"/>
    </clipPath>
  </defs>
</svg>
