<svg xmlns="http://www.w3.org/2000/svg" width="50" height="50" fill="none" viewBox="0 0 50 50">
  <g clip-path="url(#a)">
    <path fill="#FFDA44" d="M50 25c0-3.057-.55-5.986-1.555-8.695L25 15.218 1.555 16.305A24.945 24.945 0 0 0 0 25.001c0 3.058.55 5.987 1.555 8.695L25 34.784l23.445-1.086A24.944 24.944 0 0 0 50 25Z"/>
    <path fill="#6DA544" d="M25 50c10.75 0 19.913-6.783 23.445-16.303H1.555C5.087 43.216 14.251 50 25 50Z"/>
    <path fill="#D80027" d="M1.555 16.305h46.89C44.913 6.785 35.75.001 25 .001S5.087 6.785 1.555 16.305Z"/>
  </g>
  <defs>
    <clipPath id="a">
      <path fill="#fff" d="M0 0h50v50H0z" transform="translate(0 .001)"/>
    </clipPath>
  </defs>
</svg>
