<svg xmlns="http://www.w3.org/2000/svg" width="50" height="50" fill="none" viewBox="0 0 50 50">
  <g clip-path="url(#a)">
    <path fill="#0052B4" d="M25 50c13.807 0 25-11.193 25-25S38.807 0 25 0 0 11.193 0 25s11.193 25 25 25Z"/>
    <path fill="#FFDA44" d="m25 9.783.81 2.49h2.619l-2.12 1.54.81 2.491L25 14.764l-2.119 1.54.81-2.49-2.12-1.54h2.62L25 9.783ZM14.24 14.24l2.334 1.189 1.852-1.852-.41 2.587 2.334 1.189-2.587.41-.41 2.587-1.19-2.334-2.586.41 1.852-1.852-1.19-2.334ZM9.783 25l2.49-.81v-2.619l1.54 2.12 2.492-.81L14.765 25l1.54 2.119-2.492-.81-1.54 2.12v-2.62L9.784 25Zm4.457 10.76 1.189-2.334-1.852-1.852 2.587.41 1.189-2.334.41 2.587 2.587.41-2.334 1.19.41 2.586-1.852-1.852-2.334 1.19ZM25 40.217l-.81-2.49h-2.619l2.12-1.54-.81-2.491 2.12 1.54 2.118-1.54-.81 2.49 2.12 1.54h-2.62L25 40.217Zm10.76-4.457-2.334-1.189-1.852 1.852.41-2.587-2.333-1.189 2.586-.41.41-2.587 1.19 2.334 2.586-.41-1.852 1.853 1.19 2.333ZM40.217 25l-2.49.81v2.619l-1.54-2.12-2.491.81L35.236 25l-1.54-2.119 2.49.81 1.54-2.12v2.62l2.491.809ZM35.76 14.24l-1.189 2.334 1.852 1.852-2.587-.41-1.189 2.334-.41-2.588-2.586-.41 2.333-1.188-.41-2.587 1.853 1.852 2.333-1.19Z"/>
  </g>
  <defs>
    <clipPath id="a">
      <path fill="#fff" d="M0 0h50v50H0z"/>
    </clipPath>
  </defs>
</svg>
