<svg xmlns="http://www.w3.org/2000/svg" width="50" height="50" fill="none" viewBox="0 0 50 50">
  <g clip-path="url(#a)">
    <path fill="#F0F0F0" d="M25 50c13.807 0 25-11.193 25-25S38.807 0 25 0 0 11.193 0 25s11.193 25 25 25Z"/>
    <path fill="#000" d="M48.05 15.308C44.264 6.315 35.37 0 25 0A24.919 24.919 0 0 0 7.323 7.323l6.261 7.985H48.05Z"/>
    <path fill="#496E2D" d="m13.655 34.602-6.332 8.075A24.919 24.919 0 0 0 25 50c10.405 0 19.324-6.357 23.088-15.398H13.655Z"/>
    <path fill="#A2001D" d="M5.435 18.388v13.134h43.704c.56-2.08.86-4.265.86-6.522 0-2.29-.308-4.506-.884-6.612H5.435Z"/>
    <path fill="#0052B4" d="M7.322 7.322c-9.763 9.763-9.763 25.592 0 35.356L25 25 7.322 7.322Z"/>
    <path fill="#FFDA44" d="m8.143 18.784 3.051 4.258 4.993-1.586-3.106 4.218 3.05 4.258-4.97-1.651-3.107 4.218.034-5.239-4.972-1.65 4.993-1.587.034-5.239Z"/>
  </g>
  <defs>
    <clipPath id="a">
      <path fill="#fff" d="M0 0h50v50H0z"/>
    </clipPath>
  </defs>
</svg>
