<svg xmlns="http://www.w3.org/2000/svg" width="50" height="50" fill="none" viewBox="0 0 50 50">
  <g clip-path="url(#a)">
    <path fill="#D80027" d="M22.826 27.174S7.336 7.319 7.322 7.322A24.922 24.922 0 0 1 25 0c13.807 0 25 11.193 25 25l-27.174 2.174Z"/>
    <path fill="#0052B4" d="M22.826 25S7.336 42.681 7.322 42.678A24.921 24.921 0 0 0 25 50c13.807 0 25-11.193 25-25H22.826Z"/>
    <path fill="#F0F0F0" d="M7.322 7.322c-9.763 9.763-9.763 25.592 0 35.356L25 25 7.322 7.322Z"/>
    <path fill="#FFDA44" d="M2.74 25a7.065 7.065 0 1 0 14.085 0H2.74Zm7.043-3.26a2.174 2.174 0 1 0 0-4.349 2.174 2.174 0 0 0 0 4.348Z"/>
    <path fill="#D80027" d="M4.891 19.022v7.065c0 3.744 4.892 4.891 4.892 4.891s4.891-1.147 4.891-4.891v-7.065H4.891Z"/>
    <path fill="#338AF3" d="M9.785 28.703c-.907-.326-2.72-1.161-2.72-2.616v-4.891H12.5v4.89c0 1.46-1.812 2.293-2.715 2.617Z"/>
    <path fill="#F3F3F3" d="M10.87 23.913v-1.087l-1.087-.543-1.087.543v1.087l-.544.543v2.174h3.261v-2.174l-.543-.543Z"/>
  </g>
  <defs>
    <clipPath id="a">
      <path fill="#fff" d="M0 0h50v50H0z"/>
    </clipPath>
  </defs>
</svg>
