<svg xmlns="http://www.w3.org/2000/svg" width="50" height="50" fill="none" viewBox="0 0 50 50">
  <g clip-path="url(#a)">
    <path fill="#F0F0F0" d="M1.18 17.391A24.976 24.976 0 0 0 0 25c0 2.653.415 5.21 1.18 7.608L25 33.695l23.82-1.087A25.022 25.022 0 0 0 50 25c0-2.654-.415-5.21-1.18-7.609L25 16.304 1.18 17.391Z"/>
    <path fill="#D80027" d="M48.82 17.392 25 16.305 1.18 17.392a24.946 24.946 0 0 0-.586 2.174h48.811a24.84 24.84 0 0 0-.586-2.174ZM.594 30.435c.164.737.36 1.463.586 2.174h.003L25 33.696l23.82-1.087c.226-.711.422-1.437.585-2.174H.595Z"/>
    <path fill="#6DA544" d="M25 50c11.154 0 20.6-7.305 23.82-17.392H1.18C4.4 42.695 13.847 50 25 50Z"/>
    <path fill="#338AF3" d="M25 0C13.846 0 4.4 7.305 1.18 17.391h47.64C45.6 7.305 36.153 0 25 0Z"/>
    <path fill="#F0F0F0" d="M11.424 10.326a4.892 4.892 0 0 1 3.844-4.778 4.891 4.891 0 1 0 0 9.555 4.892 4.892 0 0 1-3.844-4.777Zm6.735 2.224.33 1.018h1.072l-.867.63.331 1.02-.866-.63-.867.63.33-1.02-.866-.63h1.071l.332-1.019Zm3.42 0 .33 1.018h1.072l-.867.63.331 1.02-.866-.63-.867.63.33-1.02-.866-.63h1.071l.332-1.019Zm3.419 0 .331 1.018h1.072l-.867.63.331 1.02-.867-.63-.867.63.332-1.02-.867-.63h1.071l.331-1.019Zm3.421 0 .33 1.018h1.072l-.867.63.331 1.02-.866-.63-.867.63.33-1.02-.866-.63h1.071l.332-1.019Zm3.42 0 .33 1.018h1.072l-.867.63.332 1.02-.867-.63-.867.63.33-1.02-.866-.63h1.071l.332-1.019Zm-10.26-3.558.33 1.02h1.072l-.867.63.331 1.018-.866-.63-.867.63.33-1.019-.866-.63h1.071l.332-1.019Zm3.419 0 .331 1.02h1.072l-.867.63.331 1.018-.867-.63-.867.63.332-1.019-.867-.63h1.071l.331-1.019Zm3.421 0 .33 1.02h1.072l-.867.63.331 1.018-.866-.63-.867.63.33-1.019-.866-.63h1.071l.332-1.019Zm3.42 0 .33 1.02h1.072l-.867.63.332 1.018-.867-.63-.867.63.33-1.019-.866-.63h1.071l.332-1.019Zm-6.841-3.557.331 1.019h1.072l-.867.63.331 1.019-.867-.63-.867.63.332-1.02-.867-.63h1.071l.331-1.018Zm3.421 0 .33 1.019h1.072l-.867.63.331 1.019-.866-.63-.867.63.33-1.02-.866-.63h1.071l.332-1.018Zm3.42 0 .33 1.019h1.072l-.867.63.332 1.019-.867-.63-.867.63.33-1.02-.866-.63h1.071l.332-1.018Z"/>
  </g>
  <defs>
    <clipPath id="a">
      <path fill="#fff" d="M0 0h50v50H0z"/>
    </clipPath>
  </defs>
</svg>
