<svg xmlns="http://www.w3.org/2000/svg" width="50" height="50" fill="none" viewBox="0 0 50 50">
  <g clip-path="url(#a)">
    <path fill="#F0F0F0" d="M25 50c13.807 0 25-11.193 25-25S38.807 0 25 0 0 11.193 0 25s11.193 25 25 25Z"/>
    <path fill="#0052B4" d="M49.786 21.74a24.888 24.888 0 0 0-7.108-14.417A24.888 24.888 0 0 0 28.261.214V21.74h21.525ZM21.74.214A24.888 24.888 0 0 0 7.321 7.322 24.89 24.89 0 0 0 .214 21.74H21.74V.213ZM.214 28.261a24.889 24.889 0 0 0 7.108 14.417 24.89 24.89 0 0 0 14.417 7.108V28.261H.214Zm28.047 21.525a24.888 24.888 0 0 0 14.417-7.108 24.888 24.888 0 0 0 7.108-14.417H28.261v21.525Z"/>
    <path fill="#F0F0F0" d="M33.534 15.863c0-.332.27-.603.603-.603h1.291a3.706 3.706 0 0 0 3.702-3.702 3.706 3.706 0 0 0-3.702-3.702h-1.226c-.4-.3-.938-.486-1.53-.486-1.236 0-2.237.801-2.237 1.79 0 .979.982 1.773 2.201 1.788v.008h2.792a.603.603 0 0 1 0 1.205h-1.291a3.706 3.706 0 0 0-3.702 3.702 3.706 3.706 0 0 0 3.702 3.702h4.993v-3.1h-4.993a.603.603 0 0 1-.603-.602Zm-19.565 0c0-.332.27-.603.603-.603h1.291a3.706 3.706 0 0 0 3.702-3.702 3.706 3.706 0 0 0-3.702-3.702h-1.226c-.4-.3-.938-.486-1.53-.486-1.236 0-2.237.801-2.237 1.79 0 .979.982 1.773 2.201 1.788v.008h2.792a.603.603 0 0 1 0 1.205h-1.291a3.706 3.706 0 0 0-3.702 3.702 3.706 3.706 0 0 0 3.702 3.702h4.993v-3.1h-4.993a.603.603 0 0 1-.603-.602Zm19.565 23.065c0-.333.27-.603.603-.603h1.291a3.706 3.706 0 0 0 3.702-3.702 3.706 3.706 0 0 0-3.702-3.702h-1.226a2.55 2.55 0 0 0-1.53-.486c-1.236 0-2.237.8-2.237 1.79 0 .978.982 1.772 2.201 1.788v.007h2.792a.603.603 0 0 1 0 1.205h-1.291a3.706 3.706 0 0 0-3.702 3.702 3.706 3.706 0 0 0 3.702 3.703h4.993v-3.1h-4.993a.603.603 0 0 1-.603-.602Zm-19.565 0c0-.333.27-.603.603-.603h1.291a3.706 3.706 0 0 0 3.702-3.702 3.706 3.706 0 0 0-3.702-3.702h-1.226a2.55 2.55 0 0 0-1.53-.486c-1.236 0-2.237.8-2.237 1.79 0 .978.982 1.772 2.201 1.788v.007h2.792a.603.603 0 0 1 0 1.205h-1.291a3.706 3.706 0 0 0-3.702 3.702 3.706 3.706 0 0 0 3.702 3.703h4.993v-3.1h-4.993a.603.603 0 0 1-.603-.602Z"/>
  </g>
  <defs>
    <clipPath id="a">
      <path fill="#fff" d="M0 0h50v50H0z"/>
    </clipPath>
  </defs>
</svg>
