<svg xmlns="http://www.w3.org/2000/svg" width="50" height="50" fill="none" viewBox="0 0 50 50">
  <g clip-path="url(#a)">
    <path fill="#FFDA44" d="M43.632 41.667A24.905 24.905 0 0 0 50 25a24.905 24.905 0 0 0-6.368-16.666L25 6.522 6.368 8.334A24.905 24.905 0 0 0 0 25a24.905 24.905 0 0 0 6.368 16.667L25 43.478l18.632-1.811Z"/>
    <path fill="#000" d="M6.368 8.333h37.264C39.055 3.22 32.404 0 25 0 17.597 0 10.946 3.22 6.368 8.333Z"/>
    <path fill="#D80027" d="m0 25 25 2.174L50 25c0-2.922-.503-5.727-1.425-8.334H1.425A24.952 24.952 0 0 0 0 25Z"/>
    <path fill="#000" d="M1.425 33.333h47.15A24.956 24.956 0 0 0 50 25H0c0 2.922.503 5.727 1.425 8.333Z"/>
    <path fill="#D80027" d="M43.632 41.666H6.368C10.945 46.782 17.596 50 25 50c7.404 0 14.054-3.22 18.632-8.334Z"/>
    <path fill="#F0F0F0" d="M33.343 25A8.342 8.342 0 0 1 25 33.343 8.342 8.342 0 0 1 16.658 25 8.342 8.342 0 0 1 25 16.658 8.342 8.342 0 0 1 33.343 25Z"/>
    <path fill="#000" d="M28.056 25.425 25 24.101s.715-2.373.753-2.536a1.625 1.625 0 0 0-.435-1.522l.769-.769a2.709 2.709 0 0 0-1.922-.796c-.75 0-1.43.305-1.921.796l.768.769a1.625 1.625 0 0 0-.407 1.626l-1.157 1.157h2.103s-.87 1.306-1.344 2.379c-.475 1.072.006 2.381 1.103 2.87l.635.281 1.055.992v1.087l-1.087 1.087h2.174v-2.174l.992-.992h2.051l.03-.061a2.174 2.174 0 0 0-1.104-2.87Z"/>
  </g>
  <defs>
    <clipPath id="a">
      <path fill="#fff" d="M0 0h50v50H0z"/>
    </clipPath>
  </defs>
</svg>
