<svg xmlns="http://www.w3.org/2000/svg" width="50" height="50" fill="none" viewBox="0 0 50 50">
  <g clip-path="url(#a)">
    <path fill="#F0F0F0" d="M25 50c13.807 0 25-11.193 25-25S38.807 0 25 0 0 11.193 0 25s11.193 25 25 25Z"/>
    <path fill="#338AF3" d="M25 18.478h24.139a24.861 24.861 0 0 0-2.808-6.522H25v6.522ZM9.438 44.565h31.124a25.129 25.129 0 0 0 5.769-6.521H3.669a25.132 25.132 0 0 0 5.769 6.521ZM8.696 6.049a25.123 25.123 0 0 0-5.027 5.908h5.027V6.049ZM25 25v-6.522h-9.783V25H8.696v-6.522H.86A25.027 25.027 0 0 0 0 25c0 2.257.3 4.442.861 6.522H49.14c.56-2.08.861-4.265.861-6.522H25Z"/>
    <path fill="#338AF3" d="M25 0a24.92 24.92 0 0 0-9.783 1.987v9.97H25V5.434h15.562A24.893 24.893 0 0 0 25 0Z"/>
  </g>
  <defs>
    <clipPath id="a">
      <path fill="#fff" d="M0 0h50v50H0z"/>
    </clipPath>
  </defs>
</svg>
