<svg xmlns="http://www.w3.org/2000/svg" width="50" height="50" fill="none" viewBox="0 0 50 50">
  <g clip-path="url(#a)">
    <path fill="#F0F0F0" d="M25 50c13.807 0 25-11.193 25-25S38.807 0 25 0 0 11.193 0 25s11.193 25 25 25Z"/>
    <path fill="#D80027" d="M48.445 16.304H1.555A24.946 24.946 0 0 0 0 25c0 3.058.55 5.987 1.555 8.696h46.89A24.946 24.946 0 0 0 50 25c0-3.058-.55-5.987-1.555-8.696Z"/>
    <path fill="#0052B4" d="M25 0C17.423 0 10.633 3.371 6.049 8.696H43.95C39.367 3.37 32.577 0 25 0Zm18.951 41.304H6.05C10.633 46.63 17.423 50 25 50s14.367-3.371 18.951-8.696Z"/>
  </g>
  <defs>
    <clipPath id="a">
      <path fill="#fff" d="M0 0h50v50H0z"/>
    </clipPath>
  </defs>
</svg>
