<svg xmlns="http://www.w3.org/2000/svg" width="50" height="50" fill="none" viewBox="0 0 50 50">
  <g clip-path="url(#a)">
    <path fill="#D80027" d="M25 49.999c13.807 0 25-11.193 25-25s-11.193-25-25-25-25 11.193-25 25 11.193 25 25 25Z"/>
    <path fill="#F0F0F0" d="M25 36.956c6.603 0 11.956-5.354 11.956-11.957 0-6.603-5.353-11.956-11.956-11.956s-11.957 5.353-11.957 11.956S18.398 36.956 25 36.956Z"/>
    <path fill="#D80027" d="m26.473 20.427 2.051 2.827 3.322-1.077L29.792 25l2.05 2.826-3.32-1.08-2.054 2.823.002-3.492-3.321-1.081 3.322-1.077.002-3.493Z"/>
    <path fill="#D80027" d="M27.717 32.064a7.065 7.065 0 1 1 3.361-13.281 8.696 8.696 0 1 0 0 12.432 7.03 7.03 0 0 1-3.36.85Z"/>
  </g>
  <defs>
    <clipPath id="a">
      <path fill="#fff" d="M0 0h50v50H0z" transform="translate(0 -.001)"/>
    </clipPath>
  </defs>
</svg>
