<svg xmlns="http://www.w3.org/2000/svg" width="50" height="50" fill="none" viewBox="0 0 50 50">
  <g clip-path="url(#a)">
    <path fill="#F0F0F0" d="M2.48 14.13A24.9 24.9 0 0 0 0 25a24.9 24.9 0 0 0 2.48 10.87L25 38.044l22.52-2.174A24.9 24.9 0 0 0 50 25a24.9 24.9 0 0 0-2.48-10.87L25 11.957 2.48 14.131Z"/>
    <path fill="#496E2D" d="M2.481 35.87C6.525 44.232 15.088 50 25 50c9.911 0 18.475-5.768 22.518-14.13H2.481Z"/>
    <path fill="#000" d="M2.481 14.13h45.037C43.475 5.768 34.911 0 25 0 15.088 0 6.525 5.768 2.48 14.13Z"/>
    <path fill="#D80027" d="M7.322 7.322c-9.763 9.763-9.763 25.592 0 35.356L25 25 7.322 7.322ZM31.522 25a7.61 7.61 0 0 1 5.978-7.432 7.609 7.609 0 1 0 0 14.863A7.61 7.61 0 0 1 31.522 25Z"/>
    <path fill="#D80027" d="m37.82 20.109 1.079 3.321h3.492l-2.825 2.053 1.08 3.321-2.827-2.052-2.825 2.052 1.08-3.321-2.826-2.053h3.492l1.08-3.321Z"/>
  </g>
  <defs>
    <clipPath id="a">
      <path fill="#fff" d="M0 0h50v50H0z"/>
    </clipPath>
  </defs>
</svg>
