<svg xmlns="http://www.w3.org/2000/svg" width="50" height="50" fill="none" viewBox="0 0 50 50">
  <g clip-path="url(#a)">
    <path fill="#D80027" d="M50 25c0-3.058-.55-5.988-1.555-8.696L25 15.217 1.555 16.304A24.947 24.947 0 0 0 0 25c0 3.058.55 5.987 1.555 8.696L25 34.783l23.445-1.087A24.944 24.944 0 0 0 50 25Z"/>
    <path fill="#6DA544" d="M25 50c10.75 0 19.913-6.784 23.445-16.304H1.555C5.087 43.216 14.25 50 25 50Z"/>
    <path fill="#338AF3" d="M1.555 16.304h46.89C44.913 6.784 35.75 0 25 0S5.087 6.784 1.555 16.304Z"/>
    <path fill="#F0F0F0" d="M25.543 32.065a7.065 7.065 0 1 1 3.361-13.281 8.696 8.696 0 1 0 0 12.432 7.03 7.03 0 0 1-3.36.85Z"/>
    <path fill="#F0F0F0" d="m30.978 20.108.936 2.632 2.523-1.2-1.2 2.524L35.87 25l-2.632.936 1.199 2.523-2.523-1.2-.936 2.632-.936-2.632-2.523 1.2 1.2-2.523L26.087 25l2.632-.936-1.2-2.523 2.524 1.2.935-2.633Z"/>
  </g>
  <defs>
    <clipPath id="a">
      <path fill="#fff" d="M0 0h50v50H0z"/>
    </clipPath>
  </defs>
</svg>
