<svg xmlns="http://www.w3.org/2000/svg" width="50" height="51" fill="none" viewBox="0 0 50 51">
  <g clip-path="url(#a)">
    <path fill="#FCFCFC" d="M25 50.99c13.807 0 25-11.194 25-25 0-13.808-11.193-25-25-25s-25 11.192-25 25c0 13.806 11.193 25 25 25Z"/>
    <path fill="#000" d="M33.705 22.164a9.574 9.574 0 0 0-18.321-3.89l-1.181 4.28 1.087 1.087-2.174 4.348 2.174 1.087-1.087 1.087v1.087l1.087 1.087v2.174l1.087 1.087 3.26-1.087s0 1.087 1.087 2.174 2.174 3.26 2.174 3.26 3.261 1.087 5.435-2.173c2.174-3.261 4.348-4.348 4.348-4.348l-2.095-4.191a9.546 9.546 0 0 0 3.119-7.069Z"/>
    <path fill="#ACABB1" d="M34.485 25.825c4.417-.745 5.153-9.394 5.153-9.394H33.55c3.152 7.609-.148 8.12-.148 8.12-.447-.332-16.442-7.91-16.95-8.102-.122.163-.571.593-1.118 1.93a10.598 10.598 0 0 0-.68 2.54c.255.166 17.243 6.098 17.692 6.147.89.583 1.987 2.325 1.374 7.491l5.86-1.651s-1.989-5.29-5.096-7.08Z"/>
  </g>
  <defs>
    <clipPath id="a">
      <path fill="#fff" d="M0 0h50v50H0z" transform="translate(0 .99)"/>
    </clipPath>
  </defs>
</svg>
