<svg xmlns="http://www.w3.org/2000/svg" width="50" height="50" fill="none" viewBox="0 0 50 50">
  <g clip-path="url(#a)">
    <path fill="#F0F0F0" d="M0 25.001a24.9 24.9 0 0 0 2.48 10.87L25 36.958l22.52-1.087A24.9 24.9 0 0 0 50 25a24.9 24.9 0 0 0-2.48-10.87L25 13.044 2.48 14.131A24.901 24.901 0 0 0 0 25.001Z"/>
    <path fill="#6DA544" d="M25 50.001c9.911 0 18.476-5.768 22.52-14.13H2.48C6.525 44.233 15.089 50 25 50Z"/>
    <path fill="#0052B4" d="M25 .001c-9.912 0-18.476 5.768-22.52 14.13h45.04C43.475 5.77 34.91.001 25 .001Z"/>
    <path fill="#000" d="M26.63 24.458V18.48h-3.26v5.978l-3.939 3.938a6.517 6.517 0 0 0 5.57 3.127 6.517 6.517 0 0 0 5.568-3.127l-3.938-3.938Z"/>
  </g>
  <defs>
    <clipPath id="a">
      <path fill="#fff" d="M0 0h50v50H0z" transform="translate(0 .001)"/>
    </clipPath>
  </defs>
</svg>
