<svg xmlns="http://www.w3.org/2000/svg" width="50" height="50" fill="none" viewBox="0 0 50 50">
  <g clip-path="url(#a)">
    <path fill="#FFDA44" d="M1.555 33.697C5.087 43.216 14.251 50 25 50c10.75 0 19.913-6.784 23.445-16.304L25 31.523 1.555 33.697Z"/>
    <path fill="#000" d="M25 .001C14.25.001 5.087 6.785 1.555 16.305L25 18.48l23.445-2.174C44.913 6.785 35.749.001 25 .001Z"/>
    <path fill="#D80027" d="M1.555 16.305A24.946 24.946 0 0 0 0 25.001c0 3.058.55 5.987 1.555 8.696h46.89A24.946 24.946 0 0 0 50 25c0-3.058-.55-5.987-1.555-8.696H1.555Z"/>
  </g>
  <defs>
    <clipPath id="a">
      <path fill="#fff" d="M0 0h50v50H0z" transform="translate(0 .001)"/>
    </clipPath>
  </defs>
</svg>
