<svg xmlns="http://www.w3.org/2000/svg" width="50" height="50" fill="none" viewBox="0 0 50 50">
  <g clip-path="url(#a)">
    <path fill="#FFDA44" d="M0 25c0 4.331 1.102 8.405 3.04 11.956L25 39.13l21.96-2.174A24.889 24.889 0 0 0 50 25l-25-2.174L0 25Z"/>
    <path fill="#338AF3" d="M46.96 13.043C42.72 5.274 34.476 0 25 0S7.28 5.272 3.04 13.043A24.888 24.888 0 0 0 0 25h50a24.89 24.89 0 0 0-3.04-11.957Z"/>
    <path fill="#496E2D" d="M25 50c9.476 0 17.72-5.272 21.96-13.044H3.04C7.28 44.728 15.524 50 25 50Z"/>
    <path fill="#FFDA44" d="m28.26 14.631 3.054 1.436-1.626 2.957 3.316-.634.42 3.35 2.309-2.464 2.31 2.463.42-3.349 3.315.634-1.626-2.957 3.053-1.436-3.053-1.436 1.626-2.957-3.316.634-.42-3.349-2.31 2.463-2.308-2.463-.42 3.35-3.316-.635 1.626 2.957-3.053 1.436Z"/>
  </g>
  <defs>
    <clipPath id="a">
      <path fill="#fff" d="M0 0h50v50H0z"/>
    </clipPath>
  </defs>
</svg>
