<svg xmlns="http://www.w3.org/2000/svg" width="50" height="50" fill="none" viewBox="0 0 50 50">
  <g clip-path="url(#a)">
    <path fill="#F0F0F0" d="M25 50c13.807 0 25-11.193 25-25S38.807 0 25 0 0 11.193 0 25s11.193 25 25 25Z"/>
    <path fill="#F0F0F0" d="M0 25c0 9.476 5.272 17.72 13.043 21.96V3.04C5.274 7.28 0 15.524 0 25Z"/>
    <path fill="#496E2D" d="M25 0a24.888 24.888 0 0 0-11.957 3.04v43.92A24.888 24.888 0 0 0 25 50c13.807 0 25-11.193 25-25S38.807 0 25 0Z"/>
    <path fill="#F0F0F0" d="M35.688 29.134a7.065 7.065 0 1 1-5.054-12.733 8.696 8.696 0 1 0 7.281 10.077 7.033 7.033 0 0 1-2.227 2.656Zm-.135-12.829 1.782 1.92 2.376-1.101-1.275 2.287 1.781 1.92-2.57-.506-1.275 2.288-.313-2.6-2.57-.507 2.377-1.1-.313-2.601Z"/>
  </g>
  <defs>
    <clipPath id="a">
      <path fill="#fff" d="M0 0h50v50H0z"/>
    </clipPath>
  </defs>
</svg>
