<svg xmlns="http://www.w3.org/2000/svg" width="50" height="50" fill="none" viewBox="0 0 50 50">
  <g clip-path="url(#a)">
    <path fill="#FCFCFC" d="M25 49.999c13.807 0 25-11.193 25-25s-11.193-25-25-25-25 11.193-25 25 11.193 25 25 25Z"/>
    <path fill="#FFDA44" d="M29.246 17.465a4.246 4.246 0 0 0-8.492 0h-9.34c0 2.308 2.01 4.18 4.319 4.18h-.14a4.18 4.18 0 0 0 4.181 4.18 4.18 4.18 0 0 0 3.407 4.107l-.01.024h3.658l-.01-.024a4.18 4.18 0 0 0 3.407-4.106 4.18 4.18 0 0 0 4.18-4.18h-.139c2.309 0 4.32-1.873 4.32-4.181h-9.341Z"/>
    <path fill="#FFDA44" d="M23.134 29.523 20.5 35.467c1.389.564 2.907.878 4.5.878 1.591 0 3.11-.314 4.498-.878l-2.632-5.944h-3.733Z"/>
    <path fill="#F0F0F0" d="M19.565 19.552v7.314C19.565 31.026 25 32.3 25 32.3s5.435-1.275 5.435-5.435v-7.314h-10.87Z"/>
    <path fill="#338AF3" d="m6.063 25.175 2.939 8.22 2.909-8.22h2.22L9.89 36.045H8.114l-4.271-10.87h2.22Zm34.155 10.869v-10.87h2.112v10.87h-2.112Z"/>
    <path fill="#D80027" d="M21.74 21.914v8.863c.746.55 1.55.928 2.173 1.17V21.914H21.74Zm6.52 0v8.863a9.564 9.564 0 0 1-2.173 1.17V21.914h2.174Z"/>
    <path fill="#0052B4" d="M19.565 19.552h10.87v3.45h-10.87v-3.45Z"/>
  </g>
  <defs>
    <clipPath id="a">
      <path fill="#fff" d="M0 0h50v50H0z" transform="translate(0 -.001)"/>
    </clipPath>
  </defs>
</svg>
