<svg xmlns="http://www.w3.org/2000/svg" width="50" height="50" fill="none" viewBox="0 0 50 50">
  <g clip-path="url(#a)">
    <path fill="#0052B4" d="M25 50c13.807 0 25-11.193 25-25S38.807 0 25 0 0 11.193 0 25s11.193 25 25 25Z"/>
    <path fill="#F0F0F0" d="m10.982 15.217.54 1.661h1.745l-1.412 1.026.54 1.661-1.413-1.026-1.413 1.026.54-1.66-1.413-1.027h1.746l.54-1.66Zm5.434-1.63.54 1.66h1.746l-1.412 1.027.54 1.66-1.413-1.026-1.413 1.027.54-1.661-1.413-1.026h1.746l.54-1.661Zm5.435-1.63.54 1.66h1.746l-1.413 1.027.54 1.66-1.413-1.026-1.413 1.026.54-1.66-1.413-1.027h1.746l.54-1.66Zm17.168 3.26-.54 1.661h-1.746l1.413 1.026-.54 1.661 1.413-1.026 1.412 1.026-.54-1.66 1.413-1.027h-1.746l-.54-1.66Zm-5.435-1.63-.54 1.66h-1.746l1.413 1.027-.54 1.66 1.413-1.026 1.413 1.027-.54-1.661 1.413-1.026h-1.746l-.54-1.661Zm-5.434-1.63-.54 1.66h-1.746l1.412 1.027-.54 1.66 1.413-1.026 1.413 1.026-.54-1.66 1.413-1.027H28.69l-.54-1.66Z"/>
    <path fill="#FFDA44" d="M29.348 26.087 25 20.652l-2.174 1.087v2.174l-3.261 2.174h-2.174v2.809a8.696 8.696 0 0 1 5.435 8.06H25v-2.173l2.174-2.174 2.174 2.174 2.174-2.174v-2.174l2.174-3.26-4.348-1.088Z"/>
  </g>
  <defs>
    <clipPath id="a">
      <path fill="#fff" d="M0 0h50v50H0z"/>
    </clipPath>
  </defs>
</svg>
