<svg xmlns="http://www.w3.org/2000/svg" width="50" height="50" fill="none" viewBox="0 0 50 50">
  <g clip-path="url(#a)">
    <path fill="#0052B4" d="M50 25c0 13.807-11.193 25-25 25S0 38.807 0 25C0 25.006 25 .003 25 0c13.807 0 25 11.193 25 25Z"/>
    <path fill="#F0F0F0" d="M24.933 25H25v-.067l-.067.067Z"/>
    <path fill="#F0F0F0" d="M25 13.043V0h-.004C11.19.002 0 11.194 0 25h13.043v-7.345L20.389 25h4.545l.067-.067V20.39l-7.345-7.345H25Z"/>
    <path fill="#6DA544" d="M35.87 18.478a4.348 4.348 0 1 0 0-8.695 4.348 4.348 0 0 0 0 8.695Z"/>
    <path fill="#D80027" d="M12.648 3.26a25.118 25.118 0 0 0-9.387 9.388V25h6.522V9.783H25V3.26H12.648Z"/>
    <path fill="#D80027" d="m25 21.926-8.882-8.882h-3.074L25 25v-3.074Zm3.26-8.883h15.218v6.522H28.261v-6.522Z"/>
    <path fill="#FFDA44" d="M28.26 29.348v4.348h2.288a7.578 7.578 0 0 0 5.321 2.174 7.58 7.58 0 0 0 5.322-2.174h2.287v-4.348H28.261Z"/>
    <path fill="#338AF3" d="M28.26 18.478V25c0 5.824 7.61 7.609 7.61 7.609s7.608-1.785 7.608-7.609v-6.522H28.261Z"/>
    <path fill="#F3F3F3" d="M35.87 21.962c-1.903 0-1.903 1.739-3.805 1.739-1.902 0-1.902-1.74-3.804-1.74v3.044c1.902 0 1.902 1.74 3.804 1.74s1.902-1.74 3.804-1.74 1.902 1.74 3.805 1.74c1.902 0 1.902-1.74 3.804-1.74v-3.043c-1.902 0-1.902 1.739-3.804 1.739-1.903 0-1.903-1.74-3.805-1.74Zm0-6.092c-1.903 0-1.903 1.739-3.805 1.739-1.902 0-1.902-1.74-3.804-1.74v3.044c1.902 0 1.902 1.74 3.804 1.74s1.902-1.74 3.804-1.74 1.902 1.74 3.805 1.74c1.902 0 1.902-1.74 3.804-1.74V15.87c-1.902 0-1.902 1.739-3.804 1.739-1.903 0-1.903-1.74-3.805-1.74Z"/>
  </g>
  <defs>
    <clipPath id="a">
      <path fill="#fff" d="M0 0h50v50H0z"/>
    </clipPath>
  </defs>
</svg>
