<svg xmlns="http://www.w3.org/2000/svg" width="50" height="50" fill="none" viewBox="0 0 50 50">
  <g clip-path="url(#a)">
    <path fill="#F0F0F0" d="M25 50.001c13.807 0 25-11.193 25-25s-11.193-25-25-25-25 11.193-25 25 11.193 25 25 25Z"/>
    <path fill="#D80027" d="M33.12 18.48h-3.271c.027.359.042.721.042 1.086 0 2.418-.604 4.762-1.658 6.431-.325.515-.871 1.241-1.603 1.732v-9.25h-3.26v9.25c-.732-.49-1.278-1.217-1.603-1.732-1.054-1.669-1.658-4.013-1.658-6.431 0-.365.015-.727.042-1.087h-3.27c-.022.358-.033.72-.033 1.087 0 6.705 3.58 11.957 8.152 11.957 4.571 0 8.152-5.252 8.152-11.957 0-.367-.011-.73-.032-1.087Z"/>
    <path fill="#6DA544" d="M10.326 11.957h3.26v2.174h3.262v-2.174h3.26v2.174h3.261v-2.174h3.261v2.174h3.261v-2.174h3.261v2.174h3.26v-2.174h3.262v2.174h7.845C43.476 5.77 34.911.001 25 .001c-9.911 0-18.476 5.768-22.52 14.13h7.846v-2.174Z"/>
    <path fill="#D80027" d="M39.674 35.87v2.175h-3.26V35.87h-3.262v2.173h-3.26V35.87H26.63v2.173h-3.26V35.87h-3.261v2.173h-3.26V35.87h-3.262v2.173h-3.26V35.87H2.48C6.524 44.233 15.088 50 25 50c9.911 0 18.476-5.768 22.52-14.13h-7.846Z"/>
  </g>
  <defs>
    <clipPath id="a">
      <path fill="#fff" d="M0 0h50v50H0z" transform="translate(0 .001)"/>
    </clipPath>
  </defs>
</svg>
