<svg xmlns="http://www.w3.org/2000/svg" width="51" height="50" fill="none" viewBox="0 0 51 50">
  <g clip-path="url(#a)">
    <path fill="#FFDA44" d="M37.535 3.04A24.889 24.889 0 0 0 25.578.002a24.888 24.888 0 0 0-11.956 3.04L11.448 25l2.174 21.96A24.888 24.888 0 0 0 25.578 50a24.89 24.89 0 0 0 11.957-3.04L39.709 25 37.535 3.04Z"/>
    <path fill="#338AF3" d="M13.622 46.96V3.04C5.85 7.28.578 15.526.578 25c0 9.477 5.272 17.721 13.044 21.96Z"/>
    <path fill="#6DA544" d="M50.578 25c0-9.475-5.272-17.72-13.043-21.96v43.92c7.77-4.239 13.043-12.483 13.043-21.96Zm-30.435 6.523L15.795 25l4.348-6.522L24.491 25l-4.348 6.522Zm10.87 0L26.665 25l4.348-6.522L35.361 25l-4.348 6.522Zm-5.435 8.695-4.348-6.522 4.348-6.521 4.348 6.521-4.348 6.522Z"/>
  </g>
  <defs>
    <clipPath id="a">
      <path fill="#fff" d="M0 0h50v50H0z" transform="translate(.578 .001)"/>
    </clipPath>
  </defs>
</svg>
