<svg xmlns="http://www.w3.org/2000/svg" width="50" height="50" fill="none" viewBox="0 0 50 50">
  <g clip-path="url(#a)">
    <path fill="#F0F0F0" d="M25 50c13.807 0 25-11.193 25-25S38.807 0 25 0 0 11.193 0 25s11.193 25 25 25Z"/>
    <path fill="#338AF3" d="M25 50c9.911 0 18.475-5.768 22.52-14.13H2.48C6.524 44.232 15.088 50 25 50Zm0-50C15.088 0 6.524 5.768 2.48 14.13h45.04C43.475 5.768 34.911 0 24.999 0Zm-9.615 16.304.81 2.492h2.619l-2.12 1.539.81 2.491-2.119-1.54-2.119 1.54.81-2.491-2.12-1.54h2.62l.81-2.49Zm0 10.87.81 2.491h2.619l-2.12 1.54.81 2.49-2.119-1.539-2.119 1.54.81-2.491-2.12-1.54h2.62l.81-2.491Zm19.23-10.87.81 2.492h2.619l-2.12 1.539.81 2.491-2.12-1.54-2.118 1.54.81-2.491-2.12-1.54h2.62l.809-2.49Zm0 10.87.81 2.491h2.619l-2.12 1.54.81 2.49-2.12-1.539-2.118 1.54.81-2.491-2.12-1.54h2.62l.809-2.491ZM25 21.74l.81 2.49h2.619l-2.12 1.54.81 2.49L25 26.722l-2.12 1.54.81-2.491-2.119-1.54h2.62L25 21.74Z"/>
  </g>
  <defs>
    <clipPath id="a">
      <path fill="#fff" d="M0 0h50v50H0z"/>
    </clipPath>
  </defs>
</svg>
