<svg xmlns="http://www.w3.org/2000/svg" width="50" height="50" fill="none" viewBox="0 0 50 50">
  <g clip-path="url(#a)">
    <path fill="#D80027" d="M10.91 45.652A24.883 24.883 0 0 0 25 50a24.882 24.882 0 0 0 14.09-4.348L25 43.478l-14.09 2.174ZM39.09 4.348A24.883 24.883 0 0 0 25 0a24.883 24.883 0 0 0-14.09 4.348L25 6.522l14.09-2.174Z"/>
    <path fill="#D80027" d="M10.91 45.652A24.883 24.883 0 0 0 25 50a24.882 24.882 0 0 0 14.09-4.348L25 43.478l-14.09 2.174ZM39.09 4.348A24.883 24.883 0 0 0 25 0a24.883 24.883 0 0 0-14.09 4.348L25 6.522l14.09-2.174Z"/>
    <path fill="#0052B4" d="M49.937 23.37c-.593-7.716-5.28-15.218-10.846-19.022H10.91C4.744 8.563.562 15.466.053 23.37L25 25l24.937-1.63ZM.053 26.63c.509 7.904 4.69 14.807 10.857 19.022h28.18c6.166-4.215 10.349-11.118 10.858-19.021L25 25 .053 26.63Z"/>
    <path fill="#D80027" d="M49.936 23.37H26.631V3.26H23.37v20.11H.053a25.4 25.4 0 0 0 0 3.26H23.37v20.11h3.26V26.63h23.318c.034-.539.052-1.082.052-1.63 0-.544-.022-1.088-.064-1.63Z"/>
    <path fill="#F0F0F0" d="M9.782 25 25 15.435 40.217 25 25 34.565 9.782 25Z"/>
    <path fill="#6DA544" d="M16.305 29.348H35.87l-4.348-6.522L29.348 25l-2.174-1.087L25 27.173h-4.348L18.478 25l-2.173 4.348Z"/>
    <path fill="#FFDA44" d="m25 18.478.54 1.66h1.746l-1.413 1.027.54 1.661L25 21.8l-1.412 1.026.54-1.66-1.413-1.027h1.746l.54-1.66Z"/>
    <path fill="#D80027" d="M25 12.703 5.435 25 25 37.297 44.565 25 25 12.703ZM11.562 25 25 16.554 38.437 25 25 33.446 11.562 25Z"/>
  </g>
  <defs>
    <clipPath id="a">
      <path fill="#fff" d="M0 0h50v50H0z"/>
    </clipPath>
  </defs>
</svg>
