<svg xmlns="http://www.w3.org/2000/svg" width="50" height="50" fill="none" viewBox="0 0 50 50">
  <g clip-path="url(#a)">
    <path fill="#F0F0F0" d="M25 50c13.807 0 25-11.193 25-25S38.807 0 25 0 0 11.193 0 25s11.193 25 25 25Z"/>
    <path fill="#0052B4" d="M25 0C15.088 0 6.524 5.768 2.48 14.13h45.04C43.475 5.768 34.911 0 24.999 0Zm0 50c9.911 0 18.475-5.768 22.52-14.13H2.48C6.524 44.232 15.088 50 25 50Z"/>
    <path fill="#FFDA44" d="M19.98 26.087 25 17.391l5.02 8.696H19.98Z"/>
    <path fill="#6DA544" d="M31.522 28.958 25 32.22l-6.522-3.26v-4.35h13.044v4.348Z"/>
    <path fill="#FFDA44" d="m31.149 17.764-2.306 2.306a5.435 5.435 0 1 1-7.686 0l-2.305-2.306a8.696 8.696 0 1 0 12.297 0Z"/>
  </g>
  <defs>
    <clipPath id="a">
      <path fill="#fff" d="M0 0h50v50H0z"/>
    </clipPath>
  </defs>
</svg>
