<svg xmlns="http://www.w3.org/2000/svg" width="50" height="50" fill="none" viewBox="0 0 50 50">
  <g clip-path="url(#a)">
    <path fill="#F0F0F0" d="M0 25C0 11.193 11.193 0 25 0s25 11.193 25 25c-1.087 0-25 3.26-25 3.26L0 25Z"/>
    <path fill="#D80027" d="M50 25c0 13.807-11.193 25-25 25S0 38.807 0 25"/>
    <path fill="#F0F0F0" d="M17.391 36.956c6.604 0 11.957-5.353 11.957-11.956S23.994 13.043 17.39 13.043c-6.603 0-11.956 5.354-11.956 11.957 0 6.603 5.353 11.956 11.956 11.956Z"/>
    <path fill="#D80027" d="M5.435 25c0-6.603 5.353-11.957 11.956-11.957 6.604 0 11.957 5.354 11.957 11.957"/>
  </g>
  <defs>
    <clipPath id="a">
      <path fill="#fff" d="M0 0h50v50H0z"/>
    </clipPath>
  </defs>
</svg>
