<svg xmlns="http://www.w3.org/2000/svg" width="50" height="50" fill="none" viewBox="0 0 50 50">
  <g clip-path="url(#a)">
    <path fill="#FFDA44" d="M25 50c13.807 0 25-11.193 25-25S38.807 0 25 0 0 11.193 0 25s11.193 25 25 25Z"/>
    <path fill="#A2001D" d="M10.91 4.348A24.882 24.882 0 0 1 25 0a24.882 24.882 0 0 1 14.09 4.348L25 5.435 10.91 4.348Z"/>
    <path fill="#0052B4" d="m25 25-1.595-1.596-.424.76 2.02.836Z"/>
    <path fill="#496E2D" d="M7.322 7.322c-9.763 9.763-9.763 25.592 0 35.356L25 25 7.322 7.322Zm35.356 0c9.763 9.763 9.763 25.592 0 35.356L25 25 42.678 7.322Z"/>
    <path fill="#A2001D" d="M25 33.696a8.696 8.696 0 1 0 0-17.392 8.696 8.696 0 0 0 0 17.392Z"/>
    <path fill="#FFDA44" d="m25 16.304 1.95 6h6.308l-5.104 3.708 1.95 5.999L25 28.303l-5.104 3.708 1.95-6-5.103-3.708h6.308L25 16.304ZM25 0h-.008.016H25Z"/>
    <path fill="#A2001D" d="M25.009 0h-.017A24.92 24.92 0 0 0 7.324 7.321h35.353A24.921 24.921 0 0 0 25.009 0ZM7.324 42.679A24.922 24.922 0 0 0 25 50a24.922 24.922 0 0 0 17.676-7.321H7.324Z"/>
    <path fill="#FFDA44" d="m25 2.717.405 1.246h1.31l-1.06.77.405 1.245-1.06-.77-1.06.77.405-1.245-1.06-.77h1.31L25 2.717Zm-6.062 0 .404 1.246h1.31l-1.06.77.405 1.245-1.06-.77-1.059.77.405-1.245-1.06-.77h1.31l.404-1.246Zm12.124 0 .405 1.246h1.31l-1.06.77.405 1.245-1.06-.77-1.06.77.405-1.245-1.06-.77h1.31l.405-1.246ZM25 44.022l.405 1.245h1.31l-1.06.77.405 1.246-1.06-.77-1.06.77.405-1.246-1.06-.77h1.31L25 44.022Zm-6.062 0 .404 1.245h1.31l-1.06.77.405 1.246-1.06-.77-1.059.77.405-1.246-1.06-.77h1.31l.404-1.245Zm12.124 0 .405 1.245h1.31l-1.06.77.405 1.246-1.06-.77-1.06.77.405-1.246-1.06-.77h1.31l.405-1.245ZM7.617 24.587a2.174 2.174 0 0 1-3.673 2.326c-1.163-1.837-.489-4.837-.489-4.837s3 .674 4.162 2.511Z"/>
    <path fill="#A2001D" d="M6.362 27.755a1.087 1.087 0 1 0 0-2.174 1.087 1.087 0 0 0 0 2.174Z"/>
  </g>
  <defs>
    <clipPath id="a">
      <path fill="#fff" d="M0 0h50v50H0z"/>
    </clipPath>
  </defs>
</svg>
