<svg xmlns="http://www.w3.org/2000/svg" width="50" height="50" fill="none" viewBox="0 0 50 50">
  <g clip-path="url(#a)">
    <path fill="#000" d="M2.48 14.13A24.9 24.9 0 0 0 0 25a24.9 24.9 0 0 0 2.48 10.87L25 38.044l22.52-2.174A24.9 24.9 0 0 0 50 25a24.9 24.9 0 0 0-2.48-10.87L25 11.957 2.48 14.131Z"/>
    <path fill="#496E2D" d="M2.482 35.87C6.525 44.232 15.089 50 25 50c9.911 0 18.475-5.768 22.519-14.13H2.482Z"/>
    <path fill="#D80027" d="M2.482 14.13h45.037C43.475 5.768 34.91 0 25 0 15.088 0 6.525 5.768 2.482 14.13Z"/>
    <path fill="#F0F0F0" d="m30.819 20.428 2.051 2.827 3.322-1.077-2.054 2.824 2.05 2.826-3.32-1.08-2.055 2.823.003-3.492-3.321-1.081 3.322-1.077.002-3.493Z"/>
    <path fill="#F0F0F0" d="M25.22 32.065a7.065 7.065 0 1 1 3.362-13.281 8.696 8.696 0 1 0 0 12.432 7.03 7.03 0 0 1-3.361.85Z"/>
  </g>
  <defs>
    <clipPath id="a">
      <path fill="#fff" d="M0 0h50v50H0z"/>
    </clipPath>
  </defs>
</svg>
