<svg xmlns="http://www.w3.org/2000/svg" width="50" height="50" fill="none" viewBox="0 0 50 50">
  <g clip-path="url(#a)">
    <path fill="#F0F0F0" d="M25 50c13.807 0 25-11.193 25-25S38.807 0 25 0 0 11.193 0 25s11.193 25 25 25Z"/>
    <path fill="#000" d="M25 0C15.088 0 6.524 5.768 2.48 14.13h45.04C43.475 5.768 34.911 0 24.999 0Z"/>
    <path fill="#496E2D" d="M25 50c-9.912 0-18.476-5.768-22.52-14.13h45.04C43.475 44.232 34.911 50 24.999 50Z"/>
    <path fill="#A2001D" d="M48.82 17.391H1.18A24.981 24.981 0 0 0 0 25c0 2.653.415 5.21 1.18 7.608h47.64A25.022 25.022 0 0 0 50 25c0-2.653-.415-5.21-1.18-7.609Z"/>
    <path fill="#F0F0F0" d="m32.785 11.553-2.961-1.367L25 21.11l-4.824-10.923-2.96 1.366L23.203 25l-5.989 13.447 2.961 1.367L25 28.89l4.824 10.923 2.96-1.367L26.797 25l5.989-13.447Z"/>
    <path fill="#F0F0F0" d="M27.01 12.84C25.866 11.59 25 10.87 25 10.87s-.865.72-2.01 1.97v24.32c1.144 1.25 2.01 1.97 2.01 1.97s.865-.719 2.01-1.97V12.84Z"/>
    <path fill="#A2001D" d="M19.565 17.504v14.992c1.212 2.146 2.694 3.905 3.805 5.07V12.434c-1.111 1.166-2.594 2.925-3.805 5.071Zm10.87 0c-1.211-2.146-2.694-3.905-3.805-5.07v25.133c1.111-1.166 2.594-2.925 3.805-5.071V17.504Z"/>
    <path fill="#000" d="M30.435 17.504v14.992c1.226-2.173 2.174-4.742 2.174-7.496 0-2.753-.948-5.323-2.174-7.496Zm-10.87 0v14.992c-1.226-2.173-2.174-4.742-2.174-7.496 0-2.753.948-5.323 2.174-7.496Z"/>
  </g>
  <defs>
    <clipPath id="a">
      <path fill="#fff" d="M0 0h50v50H0z"/>
    </clipPath>
  </defs>
</svg>
