<svg xmlns="http://www.w3.org/2000/svg" width="50" height="50" fill="none" viewBox="0 0 50 50">
  <g clip-path="url(#a)">
    <path fill="#F0F0F0" d="M25 50c13.807 0 25-11.193 25-25S38.807 0 25 0 0 11.193 0 25s11.193 25 25 25Z"/>
    <path fill="#D80027" d="M25 50c6.34 0 12.127-2.36 16.534-6.25H8.466A24.903 24.903 0 0 0 25 50Z"/>
    <path fill="#0052B4" d="M.788 31.25a24.847 24.847 0 0 0 2.557 6.25h43.31a24.848 24.848 0 0 0 2.557-6.25L25 29.348.788 31.25Zm48.424-12.5a24.85 24.85 0 0 0-2.557-6.25L25 11.957V0c-1.857 0-3.667.203-5.409.587C19.558.594 3.261 13.449 3.261 25 3.677 25.073 25 27.174 25 27.174V18.75h24.212Z"/>
    <path fill="#F0F0F0" d="M25 15.598v-12.5h-7.918l2.51-2.51C9.29 2.86 1.375 11.486.163 22.147A25.251 25.251 0 0 0 0 25h12.663v-4.983L17.695 25h8.944l-9.557-9.402H25Z"/>
    <path fill="#D80027" d="m25.011 25-9.402-9.402h-2.946L22.065 25H9.511V12.5h37.144a25.112 25.112 0 0 0-5.121-6.25H9.51v-.872a25.12 25.12 0 0 0-6.25 7.274V25H0c0 2.158.273 4.252.788 6.25h48.424c.515-1.998.788-4.092.788-6.25H25.011Z"/>
  </g>
  <defs>
    <clipPath id="a">
      <path fill="#fff" d="M0 0h50v50H0z"/>
    </clipPath>
  </defs>
</svg>
