<svg xmlns="http://www.w3.org/2000/svg" width="50" height="50" fill="none" viewBox="0 0 50 50">
  <g clip-path="url(#a)">
    <path fill="#F0F0F0" d="M25 50c13.807 0 25-11.193 25-25S38.807 0 25 0 0 11.193 0 25s11.193 25 25 25Z"/>
    <path fill="#496E2D" d="M50 25c0 13.807-11.193 25-25 25S0 38.807 0 25"/>
    <path fill="#D80027" d="M43.263 17.397a6.524 6.524 0 0 0-6.151-4.353h-5.59A6.522 6.522 0 0 0 25 19.564c0 1.177.313 2.308.858 3.261-2.076-.017-3.997.014-5.206 0v-6.39l.257-.256c1.153-1.153.768-3.075.768-3.075s-1.921-.384-3.074.769l-1.344 1.343h-1.498a5.978 5.978 0 0 0-5.979 5.979h4.348v4.89c0 .716.144 1.398.405 2.019l-1.492 1.243H10.87v-2.174H8.695v4.348h9.783v4.348h-2.174v2.174h4.348v-4.348l1.992-2.392h4.71l1.994 2.392v2.174h-2.174v2.174h8.695V26.087a3.26 3.26 0 0 1 3.4-3.258 4.35 4.35 0 0 1 3.994-5.432ZM31.522 35.869v-4.565h.18l1.993 2.392v2.173h-2.174Z"/>
  </g>
  <defs>
    <clipPath id="a">
      <path fill="#fff" d="M0 0h50v50H0z"/>
    </clipPath>
  </defs>
</svg>
