<svg xmlns="http://www.w3.org/2000/svg" width="50" height="50" fill="none" viewBox="0 0 50 50">
  <g clip-path="url(#a)">
    <path fill="#D80027" d="M25 50c13.807 0 25-11.193 25-25S38.807 0 25 0 0 11.193 0 25s11.193 25 25 25Z"/>
    <path fill="#FFDA44" d="m37.226 25-4.995 2.35 2.66 4.838-5.425-1.038-.687 5.48-3.78-4.03-3.778 4.03-.687-5.48-5.425 1.038 2.66-4.838L12.774 25l4.996-2.35-2.66-4.838 5.424 1.038.688-5.48L25 17.4l3.779-4.03.687 5.48 5.425-1.038-2.66 4.839L37.226 25Z"/>
    <path fill="#D80027" d="M25 32.608a7.609 7.609 0 1 0 0-15.217 7.609 7.609 0 0 0 0 15.218Z"/>
    <path fill="#FFDA44" d="M21.196 25c-.184 0-.365.01-.543.027a4.33 4.33 0 0 0 1.017 2.768 7.627 7.627 0 0 1 1.47-2.434A5.406 5.406 0 0 0 21.196 25Zm2.342 4.095a4.337 4.337 0 0 0 2.924 0A5.437 5.437 0 0 0 25 26.56a5.437 5.437 0 0 0-1.462 2.536Zm5.227-6.268a4.345 4.345 0 0 0-7.53 0c1.37.007 2.655.38 3.765 1.023a7.557 7.557 0 0 1 3.765-1.023Zm-1.905 2.534a7.623 7.623 0 0 1 1.47 2.434 4.329 4.329 0 0 0 1.017-2.767 5.404 5.404 0 0 0-2.488.334Z"/>
  </g>
  <defs>
    <clipPath id="a">
      <path fill="#fff" d="M0 0h50v50H0z"/>
    </clipPath>
  </defs>
</svg>
