<svg xmlns="http://www.w3.org/2000/svg" width="50" height="50" fill="none" viewBox="0 0 50 50">
  <g clip-path="url(#a)">
    <path fill="#F0F0F0" d="M25 50c13.807 0 25-11.193 25-25S38.807 0 25 0 0 11.193 0 25s11.193 25 25 25Z"/>
    <path fill="#FFDA44" d="M41.876 6.556A24.909 24.909 0 0 0 25 0c-1.065 0-2.114.067-3.144.196L9.783 14.13.79 31.264a24.845 24.845 0 0 0 2.615 6.34L25 25 41.876 6.556Z"/>
    <path fill="#6DA544" d="m45.814 38.851-34.978 6.75A24.882 24.882 0 0 0 25 50c8.684 0 16.332-4.428 20.814-11.149Z"/>
    <path fill="#D80027" d="M41.88 6.56 3.42 37.627a25.093 25.093 0 0 0 3.582 4.723L50 25c0-7.3-3.13-13.87-8.12-18.44Z"/>
    <path fill="#0052B4" d="M0 25c0 2.163.275 4.261.791 6.263L21.856.196C9.533 1.743 0 12.258 0 25Z"/>
  </g>
  <defs>
    <clipPath id="a">
      <path fill="#fff" d="M0 0h50v50H0z"/>
    </clipPath>
  </defs>
</svg>
