<svg xmlns="http://www.w3.org/2000/svg" width="50" height="50" fill="none" viewBox="0 0 50 50">
  <g clip-path="url(#a)">
    <path fill="#D80027" d="M3.04 13.043 25 15.217l21.96-2.174C42.72 5.274 34.476 0 25 0S7.28 5.272 3.04 13.043Z"/>
    <path fill="#FFDA44" d="M3.04 36.957 25 39.13l21.96-2.174A24.889 24.889 0 0 0 50 25l-25-2.174L0 25a24.89 24.89 0 0 0 3.04 11.957Z"/>
    <path fill="#0052B4" d="M3.04 13.043A24.888 24.888 0 0 0 0 25h50a24.89 24.89 0 0 0-3.04-11.957H3.04Z"/>
    <path fill="#6DA544" d="M25 50c9.476 0 17.72-5.272 21.96-13.044H3.04C7.28 44.728 15.524 50 25 50Z"/>
  </g>
  <defs>
    <clipPath id="a">
      <path fill="#fff" d="M0 0h50v50H0z"/>
    </clipPath>
  </defs>
</svg>
