<svg xmlns="http://www.w3.org/2000/svg" width="50" height="50" fill="none" viewBox="0 0 50 50">
  <g clip-path="url(#a)">
    <path fill="#FFDA44" d="M25 50c13.807 0 25-11.193 25-25S38.807 0 25 0 0 11.193 0 25s11.193 25 25 25Z"/>
    <path fill="#6DA544" d="M15.217 16.304h33.228C44.913 6.784 35.749 0 25 0A24.919 24.919 0 0 0 7.323 7.323l7.894 8.981Zm0 17.392h33.228C44.913 43.216 35.749 50 25 50a24.919 24.919 0 0 1-17.677-7.323l7.894-8.981Z"/>
    <path fill="#D80027" d="M7.322 7.322c-9.763 9.763-9.763 25.592 0 35.356L25 25 7.322 7.322Z"/>
    <path fill="#000" d="m31.745 20.652 1.08 3.322h3.492l-2.825 2.052 1.079 3.322-2.825-2.053-2.826 2.053L30 26.026l-2.826-2.052h3.492l1.08-3.322Zm10.87 0 1.08 3.322h3.492l-2.826 2.052 1.08 3.322-2.826-2.053-2.825 2.053 1.079-3.322-2.825-2.052h3.492l1.08-3.322Z"/>
  </g>
  <defs>
    <clipPath id="a">
      <path fill="#fff" d="M0 0h50v50H0z"/>
    </clipPath>
  </defs>
</svg>
