<svg xmlns="http://www.w3.org/2000/svg" width="50" height="50" fill="none" viewBox="0 0 50 50">
  <g clip-path="url(#a)">
    <path fill="#FFDA44" d="M14.13 47.52A24.9 24.9 0 0 0 25 50a24.9 24.9 0 0 0 10.87-2.48L38.044 25 35.87 2.48A24.9 24.9 0 0 0 25 0a24.9 24.9 0 0 0-10.87 2.48L11.957 25l2.175 22.52Z"/>
    <path fill="#D80027" d="M35.87 47.518C44.232 43.475 50 34.911 50 25c0-9.912-5.768-18.475-14.13-22.519v45.037Z"/>
    <path fill="#0052B4" d="M14.13 47.518V2.481C5.768 6.525 0 15.088 0 25c0 9.911 5.768 18.475 14.13 22.518Z"/>
    <path fill="#D80027" d="M25 33.696V25h6.522v3.26c0 .567-1.087 2.643-3.77 4.349-1.016.646-2.068.854-2.752 1.087Zm-6.522-15.218H25V25h-6.522v-6.522Z"/>
    <path fill="#FF9811" d="M28.26 16.304a2.174 2.174 0 0 0-3.26-1.88 2.174 2.174 0 0 0-3.26 1.88h-5.436v10.87c0 4.046 3.214 6.386 5.734 7.6A2.174 2.174 0 0 0 25 37.75a2.174 2.174 0 0 0 2.962-2.977c2.52-1.214 5.734-3.554 5.734-7.6v-10.87H28.26Zm2.175 10.87c0 .566 0 2.29-2.683 3.996-1.016.646-2.068 1.065-2.752 1.298-.684-.233-1.736-.652-2.752-1.298-2.683-1.706-2.683-3.43-2.683-3.996v-7.609h10.87v7.609Z"/>
  </g>
  <defs>
    <clipPath id="a">
      <path fill="#fff" d="M0 0h50v50H0z"/>
    </clipPath>
  </defs>
</svg>
