<svg xmlns="http://www.w3.org/2000/svg" width="50" height="50" fill="none" viewBox="0 0 50 50">
  <g clip-path="url(#a)">
    <path fill="#F0F0F0" d="M25 0c13.807 0 25 11.193 25 25S38.807 50 25 50c0-1.087-3.26-25-3.26-25L25 0Z"/>
    <path fill="#496E2D" d="M25 50C11.193 50 0 38.807 0 25S11.193 0 25 0"/>
    <path fill="#D80027" d="M30.372 20.205 28.32 23.03l-3.322-1.077 2.055 2.824-2.05 2.827 3.32-1.081 2.054 2.824-.002-3.492 3.32-1.082-3.321-1.077-.002-3.492Z"/>
    <path fill="#D80027" d="M27.074 32.065a7.065 7.065 0 1 1 3.361-13.281 8.696 8.696 0 1 0 0 12.432 7.04 7.04 0 0 1-3.36.85Z"/>
  </g>
  <defs>
    <clipPath id="a">
      <path fill="#fff" d="M0 0h50v50H0z"/>
    </clipPath>
  </defs>
</svg>
