<svg xmlns="http://www.w3.org/2000/svg" width="50" height="50" fill="none" viewBox="0 0 50 50">
  <g clip-path="url(#a)">
    <path fill="#F0F0F0" d="M48.445 33.696A24.946 24.946 0 0 0 50 25c0-3.058-.55-5.987-1.555-8.696L25 14.13 1.555 16.304A24.946 24.946 0 0 0 0 25c0 3.058.55 5.987 1.555 8.696L25 35.869l23.445-2.173Z"/>
    <path fill="#D80027" d="M25 50c10.749 0 19.913-6.784 23.445-16.304H1.555C5.087 43.216 14.25 50 25 50Z"/>
    <path fill="#6DA544" d="M25 0C14.25 0 5.087 6.784 1.555 16.304h46.89C44.913 6.784 35.749 0 25 0Z"/>
    <path fill="#000" d="M7.322 7.322c-9.763 9.763-9.763 25.592 0 35.356l8.982-8.982V16.304L7.322 7.322Z"/>
  </g>
  <defs>
    <clipPath id="a">
      <path fill="#fff" d="M0 0h50v50H0z"/>
    </clipPath>
  </defs>
</svg>
