<svg xmlns="http://www.w3.org/2000/svg" width="51" height="50" fill="none" viewBox="0 0 51 50">
  <g clip-path="url(#a)">
    <path fill="#FFDA44" d="M48.097 35.87A24.901 24.901 0 0 0 50.578 25c0-3.895-.891-7.583-2.48-10.87l-22.52-1.087-22.52 1.087A24.901 24.901 0 0 0 .579 25a24.9 24.9 0 0 0 2.48 10.87l22.52 1.087 22.52-1.087Z"/>
    <path fill="#000" d="M25.578 0C15.666 0 7.102 5.768 3.058 14.13h45.04C44.053 5.768 35.488 0 25.577 0Z"/>
    <path fill="#0052B4" d="M25.578 50c-9.912 0-18.476-5.768-22.52-14.13h45.04C44.053 44.232 35.488 50 25.577 50Z"/>
    <path fill="#A2001D" d="M49.398 17.391H1.758A24.98 24.98 0 0 0 .579 25c0 2.653.415 5.21 1.18 7.609h47.64c.765-2.4 1.18-4.956 1.18-7.609 0-2.653-.415-5.21-1.18-7.609Z"/>
    <path fill="#FFDA44" d="M9.274 23.913h32.609v2.174H9.273v-2.174Zm4.348-4.348h23.913v2.174H13.622v-2.174Z"/>
    <path fill="#F0F0F0" d="M37.69 25s-5.59 6.522-12.112 6.522S19.056 25 19.056 25s0-6.522 6.522-6.522S37.69 25 37.69 25Z"/>
    <path fill="#000" d="M25.578 31.522C19.056 31.522 13.466 25 13.466 25s5.59-6.522 12.112-6.522"/>
    <path fill="#F0F0F0" d="M21.23 22.826h2.174v4.348H21.23v-4.348Z"/>
    <path fill="#000" d="M27.752 22.826h2.174v4.348h-2.174v-4.348Z"/>
    <path fill="#0052B4" d="M9.274 27.174a2.174 2.174 0 1 0 0-4.348 2.174 2.174 0 0 0 0 4.348Zm32.608 0a2.174 2.174 0 1 0 0-4.348 2.174 2.174 0 0 0 0 4.348Z"/>
  </g>
  <defs>
    <clipPath id="a">
      <path fill="#fff" d="M0 0h50v50H0z" transform="translate(.578)"/>
    </clipPath>
  </defs>
</svg>
