<svg xmlns="http://www.w3.org/2000/svg" width="50" height="50" fill="none" viewBox="0 0 50 50">
  <g clip-path="url(#a)">
    <path fill="#F0F0F0" d="M25 50c13.807 0 25-11.193 25-25S38.807 0 25 0 0 11.193 0 25s11.193 25 25 25Z"/>
    <path fill="#000" d="M7.322 42.678c-9.763-9.764-9.763-25.593 0-35.356L21.74 25 7.322 42.678Z"/>
    <path fill="#FFDA44" d="M21.74 25 3.315 12.55a24.913 24.913 0 0 0-1.508 3.102L11.135 25l-9.327 9.349a24.884 24.884 0 0 0 1.507 3.1L21.739 25Z"/>
    <path fill="#6DA544" d="M49.789 21.74h-28.05L7.322 7.322a25.097 25.097 0 0 0-4.006 5.227L15.742 25 3.315 37.448a25.094 25.094 0 0 0 4.007 5.23L21.74 28.26h28.05a25.258 25.258 0 0 0 0-6.522Z"/>
    <path fill="#0052B4" d="M9.78 44.832A24.89 24.89 0 0 0 25 50c11.55 0 21.27-7.834 24.139-18.478h-26.05L9.78 44.832Z"/>
    <path fill="#D80027" d="M49.139 18.478C46.27 7.834 36.551 0 25 0A24.889 24.889 0 0 0 9.78 5.168l13.31 13.31h26.049Z"/>
  </g>
  <defs>
    <clipPath id="a">
      <path fill="#fff" d="M0 0h50v50H0z"/>
    </clipPath>
  </defs>
</svg>
