<svg xmlns="http://www.w3.org/2000/svg" width="51" height="50" fill="none" viewBox="0 0 51 50">
  <g clip-path="url(#a)">
    <path fill="#0052B4" d="M50.988 25c0 13.807-11.193 25-25 25s-25-11.193-25-25c0 .006 25-24.997 25-25 13.807 0 25 11.193 25 25Z"/>
    <path fill="#F0F0F0" d="M25.921 25h.067v-.067l-.067.067Z"/>
    <path fill="#F0F0F0" d="M25.988 13.043V0h-.004C12.18.002.988 11.194.988 25h13.044v-7.345L21.377 25h4.545l.066-.067V20.39l-7.345-7.345h7.345Z"/>
    <path fill="#D80027" d="M13.636 3.26a25.12 25.12 0 0 0-9.387 9.388V25h6.522V9.783h15.217V3.26H13.636Z"/>
    <path fill="#D80027" d="m25.988 21.926-8.882-8.882h-3.074L25.988 25v-3.074Zm18.294-3.376.54 1.661h1.746l-1.413 1.027.54 1.66-1.413-1.026-1.413 1.026.54-1.66-1.413-1.027h1.746l.54-1.66ZM38.04 30.507l.81 2.491h2.619l-2.12 1.54.81 2.49-2.119-1.539-2.12 1.54.81-2.491-2.119-1.54h2.62l.809-2.49Zm.236-19.565.674 2.076h2.183l-1.766 1.283.675 2.076-1.766-1.283-1.766 1.283.675-2.076-1.766-1.283H37.6l.675-2.076Zm-6.006 7.536.809 2.491h2.62l-2.12 1.54.81 2.49-2.12-1.539L30.15 25l.81-2.491-2.12-1.54h2.62l.81-2.491Z"/>
  </g>
  <defs>
    <clipPath id="a">
      <path fill="#fff" d="M0 0h50v50H0z" transform="translate(.988)"/>
    </clipPath>
  </defs>
</svg>
