<svg xmlns="http://www.w3.org/2000/svg" width="50" height="50" fill="none" viewBox="0 0 50 50">
  <g clip-path="url(#a)">
    <path fill="#A2001D" d="M50 25c0 13.807-11.193 25-25 25S0 38.807 0 25 25 0 25 0s25 11.193 25 25Z"/>
    <path fill="#0052B4" d="M0 25C0 11.193 11.193 0 25 0s25 11.193 25 25"/>
    <path fill="#F0F0F0" d="M33.695 31.522 25 30.435l-8.696 1.087V18.478h17.391v13.044Z"/>
    <path fill="#0052B4" d="M25 30.435a4.348 4.348 0 1 0 0-8.696 4.348 4.348 0 0 0 0 8.696Z"/>
    <path fill="#A2001D" d="M25 28.26a2.174 2.174 0 1 0 0-4.347 2.174 2.174 0 0 0 0 4.348Z"/>
    <path fill="#6DA544" d="M21.74 20.652h6.52L25 23.913l-3.26-3.26Z"/>
    <path fill="#FFDA44" d="M23.913 22.826h2.174v6.522h-2.174v-6.522Z"/>
    <path fill="#6DA544" d="M28.478 28.696h-6.957l-5.217 2.826h17.391l-5.217-2.826Z"/>
  </g>
  <defs>
    <clipPath id="a">
      <path fill="#fff" d="M0 0h50v50H0z"/>
    </clipPath>
  </defs>
</svg>
