<svg xmlns="http://www.w3.org/2000/svg" width="50" height="50" fill="none" viewBox="0 0 50 50">
  <g clip-path="url(#a)">
    <path fill="#338AF3" d="M25 50c13.807 0 25-11.193 25-25S38.807 0 25 0 0 11.193 0 25s11.193 25 25 25Z"/>
    <path fill="#F0F0F0" d="M24.927 16.304a8.696 8.696 0 1 0 0 17.391 8.696 8.696 0 0 0 0-17.39ZM22.753 25a2.174 2.174 0 1 1 4.348 0 2.174 2.174 0 0 1-4.348 0Zm4.428-3.719a4.32 4.32 0 0 0-1.095-.471v-2.227c.98.176 1.885.57 2.661 1.132l-1.566 1.566Zm-3.268-.509a4.318 4.318 0 0 0-1.148.456l-1.573-1.573a6.487 6.487 0 0 1 2.72-1.098v2.215Zm-1.148 8c.354.203.74.358 1.147.455v2.215a6.483 6.483 0 0 1-2.72-1.098l1.573-1.573Zm3.321.418a4.32 4.32 0 0 0 1.095-.471l1.566 1.566a6.486 6.486 0 0 1-2.66 1.132V29.19Zm2.613-2.028a4.37 4.37 0 0 0 .439-1.075h2.219a6.482 6.482 0 0 1-1.085 2.648l-1.573-1.573Zm.439-3.25a4.32 4.32 0 0 0-.44-1.074l1.574-1.573a6.481 6.481 0 0 1 1.085 2.648h-2.22Zm-9.496-2.732 1.566 1.566c-.217.358-.385.75-.492 1.167h-2.219a6.484 6.484 0 0 1 1.145-2.733Zm-1.145 4.907h2.22c.106.416.274.808.491 1.167l-1.566 1.566a6.483 6.483 0 0 1-1.145-2.733Z"/>
    <path fill="#F0F0F0" d="M39.058 25c0-3.865-1.553-7.367-4.068-9.918l-2.305 2.305A10.834 10.834 0 0 1 35.797 25c0 6.003-4.867 10.87-10.87 10.87-6.003 0-10.87-4.867-10.87-10.87 0-3.002 1.217-5.719 3.184-7.686l-2.306-2.306A14.086 14.086 0 0 0 10.797 25c0 6.466 4.343 11.918 10.272 13.597a3.617 3.617 0 0 0 .378 3.948L25 39.698l3.553 2.847a3.618 3.618 0 0 0 .358-3.985c5.864-1.72 10.147-7.14 10.147-13.56Z"/>
  </g>
  <defs>
    <clipPath id="a">
      <path fill="#fff" d="M0 0h50v50H0z"/>
    </clipPath>
  </defs>
</svg>
