<svg xmlns="http://www.w3.org/2000/svg" width="50" height="50" fill="none" viewBox="0 0 50 50">
  <g clip-path="url(#a)">
    <path fill="#000" d="M50 25c0-1.104-.073-2.192-.212-3.26h-28.05L7.323 7.323c-9.763 9.763-9.763 25.592 0 35.356L21.74 28.262h28.05c.136-1.068.21-2.156.21-3.262Z"/>
    <path fill="#F0F0F0" d="m49.993 25.57-.004.145.004-.145Zm-.024.683-.008.143.008-.143Zm-.034.545-.016.21.016-.21Zm-.083-4.522.026.251-.026-.25Zm.108 1.33.009.143-.009-.143Zm.03.682.003.145a66.82 66.82 0 0 0-.004-.145Zm-.07-1.294.015.21-.016-.21Z"/>
    <path fill="#D80027" d="M49.788 21.74c.012.086.021.172.032.258C48.336 9.607 37.79 0 25 0A24.921 24.921 0 0 0 7.322 7.324L21.738 21.74h28.05Z"/>
    <path fill="#6DA544" d="M49.788 28.262h-28.05L7.322 42.678A24.922 24.922 0 0 0 25 50.002c12.79 0 23.336-9.606 24.82-21.997-.01.086-.02.172-.032.258Z"/>
    <path fill="#F0F0F0" d="m49.878 27.475-.026.25.026-.25Z"/>
    <path fill="#000" d="M49.935 23.204Zm-.115-1.206Zm.058.529ZM50 25.001Zm-.04 1.394Zm-.04.613Zm-.068.718Zm.141-3.293Zm-.024-.684Zm.021 1.965Z"/>
    <path fill="#FFDA44" d="M49.976 23.905H20.82L5.844 8.931a12.773 12.773 0 0 0-1.333 1.731l14.322 14.33L4.499 39.326c.284.505.902 1.253 1.336 1.739L20.82 26.079h29.16a25.311 25.311 0 0 0-.004-2.174Z"/>
    <path fill="#FFDA44" d="M6.073 30.33v-2.094c2.09 0 3.79-1.7 3.79-3.79a2.684 2.684 0 0 0-2.682-2.68 1.828 1.828 0 0 0-1.826 1.826 1.17 1.17 0 0 0 1.168 1.168.66.66 0 0 0 .66-.66h2.094a2.757 2.757 0 0 1-2.754 2.754 3.266 3.266 0 0 1-3.262-3.262 3.925 3.925 0 0 1 3.92-3.92 4.78 4.78 0 0 1 4.776 4.775 5.89 5.89 0 0 1-5.884 5.883Z"/>
  </g>
  <defs>
    <clipPath id="a">
      <path fill="#fff" d="M0 0h50v50H0z" transform="translate(0 .001)"/>
    </clipPath>
  </defs>
</svg>
