<svg xmlns="http://www.w3.org/2000/svg" width="50" height="50" fill="none" viewBox="0 0 50 50">
  <g clip-path="url(#a)">
    <path fill="#F0F0F0" d="M25 50c13.807 0 25-11.193 25-25S38.807 0 25 0 0 11.193 0 25s11.193 25 25 25Z"/>
    <path fill="#0052B4" d="m48.913 25 .875-3.26a24.975 24.975 0 0 0-.65-3.262H22.827V.095a24.92 24.92 0 0 0-3.26.5l-4.349 2.666-2.174-.22a25.028 25.028 0 0 0-3.26 2.124v13.313H.86a24.97 24.97 0 0 0-.649 3.261L1.087 25l-.875 3.26c.145 1.112.363 2.2.649 3.262h8.921v13.312c1.027.79 2.117 1.5 3.261 2.124l3.261-.219 3.26 2.666c1.064.235 2.152.404 3.262.5V31.522h26.313c.285-1.061.503-2.15.649-3.261L48.913 25Z"/>
    <path fill="#D80027" d="M49.788 21.74H19.565V.593a24.83 24.83 0 0 0-6.522 2.446v18.7H.213a25.248 25.248 0 0 0 0 6.52h12.831v18.7a24.831 24.831 0 0 0 6.522 2.446V28.26h30.223a25.26 25.26 0 0 0 0-6.522Z"/>
  </g>
  <defs>
    <clipPath id="a">
      <path fill="#fff" d="M0 0h50v50H0z"/>
    </clipPath>
  </defs>
</svg>
