<svg xmlns="http://www.w3.org/2000/svg" width="50" height="50" fill="none" viewBox="0 0 50 50">
  <g clip-path="url(#a)">
    <path fill="#D80027" d="M0 25c0 3.058.55 5.987 1.555 8.696L25 34.783l23.445-1.087A24.945 24.945 0 0 0 50 25c0-3.058-.55-5.987-1.555-8.696L25 15.217 1.555 16.304A24.947 24.947 0 0 0 0 25Z"/>
    <path fill="#000" d="M25 0C14.25 0 5.087 6.784 1.555 16.304h46.89C44.912 6.784 35.749 0 25 0Z"/>
    <path fill="#496E2D" d="M48.445 33.696H1.555C5.087 43.216 14.25 50 25 50s19.912-6.784 23.445-16.304Z"/>
    <path fill="#D80027" d="m32.472 11.956-3.053-1.436 1.625-2.957-3.315.635-.42-3.35-2.31 2.464-2.309-2.464-.42 3.35-3.315-.635 1.626 2.957-3.054 1.436h14.945Z"/>
  </g>
  <defs>
    <clipPath id="a">
      <path fill="#fff" d="M0 0h50v50H0z"/>
    </clipPath>
  </defs>
</svg>
