<svg xmlns="http://www.w3.org/2000/svg" width="50" height="50" fill="none" viewBox="0 0 50 50">
  <g clip-path="url(#a)">
    <path fill="#F0F0F0" d="M25 50c13.807 0 25-11.193 25-25S38.807 0 25 0 0 11.193 0 25s11.193 25 25 25Z"/>
    <path fill="#D80027" d="M50 25c0 13.807-11.193 25-25 25S0 38.807 0 25s25 0 25 0h25Z"/>
    <path fill="#0052B4" d="M0 25C0 11.193 11.193 0 25 0v25H0Z"/>
    <path fill="#F0F0F0" d="m14.882 8.696 1.619 4.982h5.238l-4.238 3.079 1.619 4.982-4.238-3.079-4.238 3.08 1.618-4.983-4.238-3.08h5.239l1.619-4.981Z"/>
  </g>
  <defs>
    <clipPath id="a">
      <path fill="#fff" d="M0 0h50v50H0z"/>
    </clipPath>
  </defs>
</svg>
