<svg xmlns="http://www.w3.org/2000/svg" width="50" height="50" fill="none" viewBox="0 0 50 50">
  <g clip-path="url(#a)">
    <path fill="#0052B4" d="M50 25c0 13.807-11.193 25-25 25S0 38.807 0 25C0 25.006 25 .003 25 0c13.807 0 25 11.193 25 25Z"/>
    <path fill="#F0F0F0" d="m25 0-.004.001L25 0Zm-.067 25H25v-.067l-.067.067Z"/>
    <path fill="#F0F0F0" d="M25 13.043V0h-.004C11.19.002 0 11.194 0 25h13.043v-7.345L20.389 25h4.545l.067-.067v-4.544l-7.345-7.345H25Z"/>
    <path fill="#D80027" d="M12.648 3.26a25.119 25.119 0 0 0-9.387 9.388V25h6.522V9.783H25V3.26H12.648Z"/>
    <path fill="#D80027" d="m25 21.925-8.882-8.882h-3.074L25 25v-3.075Z"/>
    <path fill="#F0F0F0" d="m15.077 29.348 1.373 2.87 3.098-.717-1.388 2.861 2.492 1.976-3.102.7.008 3.18-2.48-1.99-2.481 1.99.008-3.18-3.102-.7 2.492-1.976-1.388-2.861 3.099.716 1.371-2.869Zm22.353 5.435.686 1.434 1.549-.358-.694 1.43 1.246.989-1.551.35.004 1.59-1.24-.995-1.24.995.004-1.59-1.551-.35 1.245-.988-.693-1.43 1.549.357.686-1.434Zm-6.382-15.218L31.734 21l1.55-.358-.694 1.43 1.245.989-1.55.35.003 1.59-1.24-.996-1.24.995.004-1.59-1.551-.35 1.245-.987-.693-1.431 1.549.358.686-1.435Zm6.382-8.695.686 1.434 1.549-.358-.694 1.43 1.246.989-1.551.35.004 1.59-1.24-.995-1.24.995.004-1.59-1.551-.35 1.245-.988-.693-1.43 1.549.357.686-1.434Zm5.575 6.522.685 1.434 1.55-.358-.694 1.43 1.246.989-1.551.35.004 1.59-1.24-.995-1.24.994.003-1.59-1.55-.35 1.245-.987-.694-1.431 1.55.358.686-1.434ZM39.018 25l.54 1.66h1.746l-1.413 1.027.54 1.66-1.413-1.026-1.412 1.027.54-1.66-1.414-1.027h1.747l.54-1.661Z"/>
  </g>
  <defs>
    <clipPath id="a">
      <path fill="#fff" d="M0 0h50v50H0z"/>
    </clipPath>
  </defs>
</svg>
