<svg xmlns="http://www.w3.org/2000/svg" width="50" height="50" fill="none" viewBox="0 0 50 50">
  <g clip-path="url(#a)">
    <path fill="#0052B4" d="M50 25c0 13.807-11.193 25-25 25S0 38.807 0 25C0 25.006 25 .003 25 0c13.807 0 25 11.193 25 25Z"/>
    <path fill="#F0F0F0" d="M24.933 25H25v-.067l-.067.067Z"/>
    <path fill="#F0F0F0" d="M25 13.043V0h-.004C11.19.002 0 11.194 0 25h13.043v-7.345L20.389 25h4.545l.067-.067V20.39l-7.345-7.345H25Z"/>
    <path fill="#D80027" d="M12.648 3.26a25.118 25.118 0 0 0-9.387 9.388V25h6.522V9.783H25V3.26H12.648Z"/>
    <path fill="#D80027" d="m25 21.926-8.882-8.882h-3.074L25 25v-3.074Z"/>
    <path fill="#F3F3F3" d="M42.28 28.66A6.096 6.096 0 0 0 43.477 25V14.13a5.41 5.41 0 0 1-3.26 1.087 5.426 5.426 0 0 1-4.348-2.174 5.427 5.427 0 0 1-4.348 2.174 5.411 5.411 0 0 1-3.261-1.087V25a6.1 6.1 0 0 0 1.199 3.66h12.82Z"/>
    <path fill="#FF9811" d="M40.018 22.983c.346-.844.615-2.078.615-2.692 0-.987-1.286-1.787-1.286-1.787s-1.287.8-1.287 1.787c0 .614.27 1.848.615 2.692l-.742 1.677a3.745 3.745 0 0 0 2.828 0l-.743-1.677Zm-5.028-5.429c-.904.122-2.108.507-2.64.814-.854.493-.904 2.007-.904 2.007s1.336.714 2.19.22c.533-.306 1.467-1.156 2.025-1.878l1.824-.195a3.752 3.752 0 0 0-1.414-2.45l-1.081 1.482Zm-2.188 7.07c.558.721 1.492 1.571 2.024 1.878.855.494 2.19-.22 2.19-.22s-.049-1.515-.903-2.008c-.532-.307-1.736-.691-2.64-.813l-1.08-1.482a3.752 3.752 0 0 0-1.415 2.45l1.824.195Z"/>
    <path fill="#338AF3" d="M29.191 28.261c2.03 3.258 6.679 4.348 6.679 4.348s4.648-1.09 6.678-4.348H29.191Z"/>
  </g>
  <defs>
    <clipPath id="a">
      <path fill="#fff" d="M0 0h50v50H0z"/>
    </clipPath>
  </defs>
</svg>
