<svg xmlns="http://www.w3.org/2000/svg" width="50" height="50" fill="none" viewBox="0 0 50 50">
  <g clip-path="url(#a)">
    <path fill="#0052B4" d="M25 50c13.807 0 25-11.193 25-25S38.807 0 25 0 0 11.193 0 25s11.193 25 25 25Z"/>
    <path fill="#F0F0F0" d="M35.729 26.744 40.217 25l-4.488-1.744-2.466-.958-4.005-1.556-1.556-4.006a8.733 8.733 0 0 1 5.561 5.562l2.465.958a10.896 10.896 0 0 0-8.984-8.985L25 9.783l-1.744 4.488c-4.6.745-8.24 4.386-8.985 8.985L9.782 25l4.489 1.744c.745 4.6 4.385 8.24 8.985 8.985L25 40.218l1.744-4.489a10.897 10.897 0 0 0 8.985-8.985Zm-8.15-4.323-2.58 2.58h9.216l-6.637 2.578L25 25v9.215l-2.58-6.636L25 25h-9.216l6.637-2.579L25 25.001v-9.216l2.578 6.636Zm-5.281-5.684-1.557 4.005-4.005 1.556a8.733 8.733 0 0 1 5.562-5.561Zm-5.562 10.965 4.005 1.556 1.557 4.006a8.733 8.733 0 0 1-5.562-5.562Zm10.966 5.562 1.556-4.006 4.005-1.556a8.733 8.733 0 0 1-5.561 5.562Z"/>
    <path fill="#0052B4" d="M34.215 25H25l2.579 2.579L34.215 25Zm-18.431 0H25l-2.58-2.579L15.785 25ZM25 34.215V25l-2.58 2.579L25 34.215ZM25 25l2.579-2.579L25 15.785V25Z"/>
    <path fill="#F0F0F0" d="M23.913 3.26h2.174v4.35h-2.174V3.26ZM3.26 23.913h4.35v2.174H3.26v-2.174Zm20.653 18.478h2.174v4.348h-2.174v-4.348Zm18.479-18.478h4.347v2.174h-4.347v-2.174Z"/>
  </g>
  <defs>
    <clipPath id="a">
      <path fill="#fff" d="M0 0h50v50H0z"/>
    </clipPath>
  </defs>
</svg>
