<svg xmlns="http://www.w3.org/2000/svg" width="50" height="50" fill="none" viewBox="0 0 50 50">
  <g clip-path="url(#a)">
    <path fill="#F0F0F0" d="M1.18 17.391A24.977 24.977 0 0 0 0 25c0 2.653.415 5.21 1.18 7.608L25 33.697l23.82-1.087C49.585 30.21 50 27.654 50 25c0-2.652-.415-5.209-1.18-7.608L25 16.304 1.18 17.391Z"/>
    <path fill="#000" d="M50 25c0-1.483-.13-2.936-.378-4.348H.378a25.132 25.132 0 0 0 0 8.696h49.244A25.12 25.12 0 0 0 50 25Z"/>
    <path fill="#338AF3" d="M25 50c11.154 0 20.6-7.305 23.82-17.392H1.18C4.4 42.695 13.847 50 25 50Zm0-50C13.846 0 4.4 7.305 1.18 17.391h47.64C45.6 7.305 36.153 0 25 0Z"/>
  </g>
  <defs>
    <clipPath id="a">
      <path fill="#fff" d="M0 0h50v50H0z"/>
    </clipPath>
  </defs>
</svg>
