<svg xmlns="http://www.w3.org/2000/svg" width="50" height="50" fill="none" viewBox="0 0 50 50">
  <g clip-path="url(#a)">
    <path fill="#0052B4" d="M50 25c0-8.58-4.323-16.15-10.91-20.652L25 3.26 10.91 4.348C4.322 8.85 0 16.42 0 25c0 8.58 4.323 16.15 10.91 20.652L25 46.74l14.09-1.087C45.677 41.15 50 33.58 50 25Z"/>
    <path fill="#A2001D" d="M39.09 4.348A24.882 24.882 0 0 0 25 0a24.882 24.882 0 0 0-14.09 4.348h28.18ZM10.91 45.652A24.882 24.882 0 0 0 25 50a24.882 24.882 0 0 0 14.09-4.348H10.91Z"/>
    <path fill="#F0F0F0" d="M25 36.956c6.603 0 11.956-5.353 11.956-11.956S31.603 13.043 25 13.043 13.043 18.398 13.043 25c0 6.603 5.354 11.956 11.957 11.956Z"/>
    <path fill="#6DA544" d="M25 34.782c5.403 0 9.782-4.38 9.782-9.782 0-5.403-4.38-9.783-9.782-9.783-5.403 0-9.783 4.38-9.783 9.783s4.38 9.782 9.783 9.782Z"/>
    <path fill="#F0F0F0" d="M25 31.522a6.522 6.522 0 1 0 0-13.044 6.522 6.522 0 0 0 0 13.044Z"/>
    <path fill="#0052B4" d="M25 23.37 21.467 25v2.718L25 29.89l3.532-2.173V25L25 23.37Z"/>
    <path fill="#FFDA44" d="M21.467 21.74h7.066V25h-7.066v-3.26Z"/>
  </g>
  <defs>
    <clipPath id="a">
      <path fill="#fff" d="M0 0h50v50H0z"/>
    </clipPath>
  </defs>
</svg>
