<svg xmlns="http://www.w3.org/2000/svg" width="50" height="50" fill="none" viewBox="0 0 50 50">
  <g clip-path="url(#a)">
    <path fill="#FFDA44" d="M35.87 2.48A24.901 24.901 0 0 0 25 0c-3.895 0-7.583.891-10.87 2.48L11.957 25l2.175 22.52A24.9 24.9 0 0 0 25 50a24.9 24.9 0 0 0 10.87-2.48L38.044 25 35.87 2.48Z"/>
    <path fill="#496E2D" d="m25 16.304 2.158 6.643h6.985l-5.65 4.106 2.158 6.643L25 29.59l-5.651 4.106 2.159-6.643-5.651-4.106h6.985L25 16.304ZM14.13 2.482C5.768 6.525 0 15.089 0 25c0 9.911 5.768 18.475 14.13 22.519V2.482Z"/>
    <path fill="#D80027" d="M35.87 2.482v45.037C44.232 43.475 50 34.91 50 25c0-9.911-5.768-18.475-14.13-22.518Z"/>
  </g>
  <defs>
    <clipPath id="a">
      <path fill="#fff" d="M0 0h50v50H0z"/>
    </clipPath>
  </defs>
</svg>
