<svg xmlns="http://www.w3.org/2000/svg" width="50" height="50" fill="none" viewBox="0 0 50 50">
  <g clip-path="url(#a)">
    <path fill="#0052B4" d="M0 25c0 1.712.173 3.384.5 5L25 31.522 49.5 30c.328-1.616.5-3.288.5-5 0-1.713-.173-3.385-.5-5L25 18.478.5 20a25.107 25.107 0 0 0-.5 5Z"/>
    <path fill="#F0F0F0" d="M49.5 30H.5C2.818 41.411 12.906 50 25 50s22.183-8.589 24.5-20Z"/>
    <path fill="#000" d="M.5 20h49C47.182 8.589 37.094 0 25 0S2.817 8.589.5 20Z"/>
    <path fill="#FFDA44" d="M35.87 20H14.13l4.442-2.09-2.365-4.3 4.822.922.612-4.872L25 13.243l3.36-3.583.61 4.872 4.823-.923-2.365 4.302L35.87 20Z"/>
    <path fill="#A2001D" d="M0 25c0 13.807 11.193 25 25 25L5 9.999c-3.14 4.179-5 9.372-5 15Zm25 25c13.807 0 25-11.193 25-25 0-5.629-1.86-10.822-5-15.001l-20 40Z"/>
  </g>
  <defs>
    <clipPath id="a">
      <path fill="#fff" d="M0 0h50v50H0z"/>
    </clipPath>
  </defs>
</svg>
