<svg xmlns="http://www.w3.org/2000/svg" width="50" height="50" fill="none" viewBox="0 0 50 50">
  <g clip-path="url(#a)">
    <path fill="#496E2D" d="M25 50c13.807 0 25-11.193 25-25S38.807 0 25 0 0 11.193 0 25s11.193 25 25 25Z"/>
    <path fill="#FFDA44" d="M25 28.882c-4.163 0-7.64-2.926-8.494-6.833a8.695 8.695 0 1 0 16.987 0c-.853 3.907-4.33 6.833-8.493 6.833Z"/>
    <path fill="#FFDA44" d="m25 17.391.81 2.491h2.619l-2.12 1.54.81 2.49-2.12-1.539-2.118 1.54.81-2.491-2.12-1.54h2.62l.809-2.49Z"/>
  </g>
  <defs>
    <clipPath id="a">
      <path fill="#fff" d="M0 0h50v50H0z"/>
    </clipPath>
  </defs>
</svg>
