<svg xmlns="http://www.w3.org/2000/svg" width="51" height="50" fill="none" viewBox="0 0 51 50">
  <g clip-path="url(#a)">
    <path fill="#F0F0F0" d="M25.578 50c13.807 0 25-11.193 25-25s-11.193-25-25-25-25 11.193-25 25 11.193 25 25 25Z"/>
    <path fill="#A2001D" d="M49.023 16.304H2.133A24.949 24.949 0 0 0 .578 25c0 3.058.55 5.988 1.555 8.696h46.89A24.943 24.943 0 0 0 50.578 25c0-3.058-.55-5.987-1.555-8.696Z"/>
    <path fill="#6DA544" d="M25.65 50c8.563 0 16.12-4.306 20.625-10.87H5.025C9.533 45.695 17.089 50 25.65 50Zm0-50c8.563 0 16.12 4.306 20.625 10.87H5.025C9.533 4.306 17.089 0 25.65 0Z"/>
    <path fill="#FFDA44" d="m25.578 16.304 2.159 6.643h6.984l-5.65 4.106 2.158 6.643-5.65-4.106-5.652 4.106 2.159-6.643-5.65-4.106h6.984l2.158-6.643Z"/>
  </g>
  <defs>
    <clipPath id="a">
      <path fill="#fff" d="M0 0h50v50H0z" transform="translate(.578)"/>
    </clipPath>
  </defs>
</svg>
