<svg xmlns="http://www.w3.org/2000/svg" width="50" height="50" fill="none" viewBox="0 0 50 50">
  <g clip-path="url(#a)">
    <path fill="#F0F0F0" d="M25 49.999c13.807 0 25-11.193 25-25s-11.193-25-25-25-25 11.193-25 25 11.193 25 25 25Z"/>
    <path fill="#000" d="m14.13 33.695 2.174 14.75A24.943 24.943 0 0 0 25 49.998c10.749 0 19.913-6.784 23.445-16.304H14.13Z"/>
    <path fill="#6DA544" d="m14.13 16.303 2.174-14.75A24.944 24.944 0 0 1 25 0c10.749 0 19.913 6.784 23.445 16.304H14.13Z"/>
    <path fill="#A2001D" d="M0 25c0 10.748 6.784 19.912 16.304 23.444V1.554C6.784 5.087 0 14.25 0 25Z"/>
  </g>
  <defs>
    <clipPath id="a">
      <path fill="#fff" d="M0 0h50v50H0z" transform="translate(0 -.001)"/>
    </clipPath>
  </defs>
</svg>
