<svg xmlns="http://www.w3.org/2000/svg" width="50" height="50" fill="none" viewBox="0 0 50 50">
  <g clip-path="url(#a)">
    <path fill="#F0F0F0" d="M25 50c13.807 0 25-11.193 25-25S38.807 0 25 0 0 11.193 0 25s11.193 25 25 25Z"/>
    <path fill="#D80027" d="M25 0v25L7.322 42.678A24.922 24.922 0 0 0 25 50c13.807 0 25-11.193 25-25S25 0 25 0Z"/>
    <path fill="#0052B4" d="M25 0A24.922 24.922 0 0 0 7.322 7.322L25 25h25C50 11.193 38.807 0 25 0Z"/>
    <path fill="#FFDA44" d="m17.118 25-3.053-1.436 1.626-2.957-3.316.634-.42-3.35-2.309 2.464-2.31-2.463-.42 3.35-3.315-.635 1.626 2.957L2.174 25l3.053 1.436-1.626 2.957 3.316-.634.42 3.35 2.309-2.464 2.31 2.463.42-3.35 3.315.635-1.626-2.957L17.118 25ZM6.667 9.783l1.016 1.42 1.665-.527L8.31 12.08l1.016 1.42-1.657-.552-1.037 1.405.013-1.746-1.657-.552 1.665-.527.013-1.746Zm0 25.863 1.016 1.42 1.665-.527-1.037 1.405 1.016 1.42-1.657-.552-1.037 1.405.013-1.746-1.657-.552 1.665-.527.013-1.746Zm14.492-12.932-1.016 1.42-1.665-.527 1.037 1.405-1.016 1.42 1.657-.551 1.037 1.405-.013-1.746 1.656-.552-1.664-.528-.013-1.746Z"/>
  </g>
  <defs>
    <clipPath id="a">
      <path fill="#fff" d="M0 0h50v50H0z"/>
    </clipPath>
  </defs>
</svg>
