<svg xmlns="http://www.w3.org/2000/svg" width="50" height="50" fill="none" viewBox="0 0 50 50">
  <g clip-path="url(#a)">
    <path fill="#F9F9F9" d="M25 50c13.807 0 25-11.193 25-25S38.807 0 25 0 0 11.193 0 25s11.193 25 25 25Z"/>
    <path fill="#D80027" d="M25 50c10.749 0 19.913-6.784 23.445-16.304H1.555C5.087 43.216 14.25 50 25 50Zm9.783-29.348v-3.26h1.087v-2.175h-2.174v1.087h-2.174v-1.087h-2.174v2.174h1.087v3.261H28.26v-7.608h1.087V10.87h-2.174v1.087h-1.087V10.87h-2.174v1.087h-1.087V10.87h-2.174v2.174h1.087v7.608h-2.174v-3.26h1.087v-2.175h-2.174v1.087h-2.174v-1.087H14.13v2.174h1.086v3.261h-2.174v8.696h23.913v-8.696h-2.173Z"/>
    <path fill="#FFDA44" d="M25 28.26a3.26 3.26 0 0 0-1.087 6.336v4.534h-3.26v4.348h5.434v-8.882A3.262 3.262 0 0 0 25 28.261Zm0 4.349a1.087 1.087 0 1 1 0-2.174 1.087 1.087 0 0 1 0 2.174Z"/>
  </g>
  <defs>
    <clipPath id="a">
      <path fill="#fff" d="M0 0h50v50H0z"/>
    </clipPath>
  </defs>
</svg>
